{"glyphs":{"0":{"ha":906,"x_min":0,"x_max":0,"o":"m 63 521 b 453 1035 63 818 164 1035 b 843 521 742 1035 843 818 b 453 4 843 221 742 4 b 63 521 164 4 63 221 m 610 521 b 453 813 610 676 593 813 b 296 521 313 813 296 676 b 453 226 296 360 313 226 b 610 521 593 226 610 360 "},"1":{"ha":522,"x_min":0,"x_max":0,"o":"m 175 793 l 38 793 l 38 1014 l 422 1014 l 422 0 l 175 0 "},"2":{"ha":793,"x_min":0,"x_max":0,"o":"m 54 190 b 499 715 269 368 499 544 b 393 836 499 789 465 836 b 281 685 322 836 281 781 l 51 685 b 403 1036 58 931 218 1036 b 736 731 633 1036 736 901 b 376 207 736 508 538 331 l 751 207 l 751 14 l 54 14 "},"3":{"ha":840,"x_min":0,"x_max":0,"o":"m 71 728 b 417 1038 79 928 210 1038 b 746 763 631 1038 746 915 b 593 535 746 629 663 558 l 593 529 b 764 285 694 496 764 418 b 429 -8 764 114 642 -8 b 58 321 218 -8 65 92 l 289 321 b 421 189 290 242 333 189 b 535 303 494 189 535 236 b 357 429 535 393 481 429 l 313 429 l 313 622 l 357 622 b 515 733 438 622 515 642 b 411 839 515 801 475 839 b 303 728 335 839 307 783 l 71 728 "},"4":{"ha":940,"x_min":0,"x_max":0,"o":"m 535 181 l 68 181 l 68 372 l 507 1000 l 772 1000 l 772 386 l 886 386 l 886 181 l 772 181 l 772 0 l 535 0 m 551 386 l 551 739 l 318 386 "},"5":{"ha":903,"x_min":0,"x_max":0,"o":"m 776 1015 l 776 807 l 343 807 l 343 615 b 529 685 379 656 449 685 b 835 353 750 685 835 517 b 485 0 835 139 710 0 b 117 301 257 0 125 126 l 349 301 b 476 201 358 249 399 201 b 606 354 567 201 606 267 b 475 494 606 446 560 494 b 357 411 408 494 369 458 l 128 411 l 128 1015 "},"6":{"ha":885,"x_min":0,"x_max":0,"o":"m 564 740 b 446 843 550 807 517 843 b 296 557 339 843 297 753 b 511 661 336 622 418 661 b 813 335 688 661 813 546 b 467 -6 813 133 685 -6 b 86 514 161 -6 86 211 b 457 1035 86 861 194 1035 b 785 740 675 1035 772 890 m 454 474 b 315 338 379 474 315 429 b 457 196 315 249 367 196 b 589 333 538 196 589 247 b 454 474 589 418 543 474 "},"7":{"ha":743,"x_min":0,"x_max":0,"o":"m 710 1013 l 710 836 l 361 0 l 118 0 l 471 810 l 39 810 l 39 1013 "},"8":{"ha":900,"x_min":0,"x_max":0,"o":"m 229 544 b 99 763 151 586 99 656 b 450 1035 99 907 211 1035 b 800 763 689 1035 800 907 b 669 544 800 658 746 585 b 825 297 768 497 825 413 b 450 -19 825 94 657 -19 b 75 297 243 -19 75 94 b 229 544 75 413 132 499 m 450 608 b 569 726 518 608 569 653 b 450 846 569 803 521 846 b 331 725 379 846 331 803 b 450 608 331 651 382 608 m 450 442 b 304 308 365 442 304 394 b 450 175 304 232 358 175 b 593 308 540 175 593 233 b 450 442 593 392 535 442 "},"9":{"ha":854,"x_min":0,"x_max":0,"o":"m 318 297 b 446 188 332 226 372 188 b 581 465 546 188 581 272 b 379 375 540 408 465 375 b 72 699 206 375 72 483 b 421 1038 72 904 206 1038 b 790 533 710 1038 790 842 b 438 -4 790 188 710 -4 b 99 297 217 -4 110 142 m 433 563 b 561 694 511 563 561 613 b 428 833 561 785 508 833 b 296 696 346 833 296 781 b 433 563 296 619 340 563 "},"\u0000":{"ha":0,"x_min":0,"x_max":0,"o":""},"\r":{"ha":294,"x_min":0,"x_max":0,"o":""}," ":{"ha":294,"x_min":0,"x_max":0,"o":""},"अ":{"ha":1165,"x_min":0,"x_max":0,"o":"m 372 661 b 490 758 446 661 490 703 b 394 856 490 818 449 856 b 293 761 336 856 293 818 l 92 761 b 394 1040 92 928 213 1040 b 685 788 571 1040 685 940 b 538 581 685 688 632 613 l 538 575 b 607 544 564 568 588 558 l 835 544 l 835 1028 l 1189 1028 l 1189 846 l 1051 846 l 1051 0 l 835 0 l 835 365 l 699 365 b 699 353 699 361 699 357 b 410 82 699 188 583 82 b 83 375 214 82 83 200 l 288 375 b 396 269 288 317 329 269 b 501 375 463 269 501 313 b 372 485 501 432 463 485 l 310 485 l 310 661 l 372 661 "},"आ":{"ha":1604,"x_min":0,"x_max":0,"o":"m 372 661 b 490 758 446 661 490 703 b 394 856 490 818 449 856 b 293 761 336 856 293 818 l 92 761 b 394 1040 92 928 213 1040 b 685 788 571 1040 685 940 b 538 581 685 688 632 613 l 538 575 b 607 544 564 568 588 558 l 835 544 l 835 1028 l 1632 1028 l 1632 846 l 1496 846 l 1496 0 l 1278 0 l 1278 846 l 1051 846 l 1051 0 l 835 0 l 835 365 l 699 365 b 699 353 699 361 699 357 b 410 82 699 188 583 82 b 83 375 214 82 83 200 l 288 375 b 396 269 288 317 329 269 b 501 375 463 269 501 313 b 372 485 501 432 463 485 l 310 485 l 310 661 l 372 661 "},"इ":{"ha":803,"x_min":0,"x_max":0,"o":"m -29 1028 l 833 1028 l 833 846 l 651 846 l 651 590 l 394 590 b 303 525 349 590 303 575 b 388 463 303 481 339 463 l 449 463 b 735 214 590 463 735 404 b 493 -25 735 76 647 -25 b 319 47 400 -25 343 19 l 319 -117 l 113 -117 l 113 240 l 308 240 b 429 136 313 175 358 136 b 528 219 494 136 528 172 b 407 308 528 285 476 308 b 319 311 379 308 351 308 b 83 528 207 317 83 375 b 339 744 83 681 200 744 l 440 744 l 440 846 l -29 846 "},"ई":{"ha":803,"x_min":0,"x_max":0,"o":"m 319 -117 l 113 -117 l 113 240 l 308 240 b 429 136 313 175 358 136 b 528 219 494 136 528 172 b 407 308 528 285 476 308 b 319 311 379 308 351 308 b 83 528 207 317 83 375 b 339 744 83 681 200 744 l 440 744 l 440 846 l -29 846 l -29 1028 l 443 1028 l 443 1117 b 719 1418 443 1264 504 1418 b 988 1133 900 1418 996 1307 l 797 1133 b 724 1238 800 1200 771 1238 b 646 1119 668 1238 646 1197 l 646 1028 l 833 1028 l 833 846 l 651 846 l 651 590 l 394 590 b 303 525 349 590 303 575 b 388 463 303 481 339 463 l 449 463 b 735 214 590 463 735 404 b 493 -25 735 76 647 -25 b 319 47 400 -25 343 19 "},"उ":{"ha":785,"x_min":0,"x_max":0,"o":"m -24 1028 l 808 1028 l 808 846 l 688 846 l 688 763 b 560 557 688 647 633 575 l 560 553 b 722 307 656 525 722 429 b 406 6 722 129 606 6 b 56 331 200 6 56 128 l 264 331 b 394 200 264 256 318 200 b 517 325 469 200 517 251 b 383 454 517 389 478 454 l 300 454 l 300 644 l 353 644 b 476 772 426 644 476 686 l 476 846 l -24 846 "},"ऊ":{"ha":1185,"x_min":0,"x_max":0,"o":"m -24 1028 l 1206 1028 l 1206 846 l 688 846 l 688 763 b 560 557 688 647 633 575 l 560 553 l 807 553 b 1132 281 999 553 1132 469 b 867 26 1132 128 1033 26 b 785 35 840 26 814 29 l 785 199 b 828 197 799 197 814 197 b 922 289 883 197 922 225 b 810 381 922 351 875 381 l 708 381 b 719 294 715 354 719 325 b 406 6 719 131 603 6 b 56 331 200 6 56 128 l 264 331 b 394 200 264 256 318 200 b 517 325 469 200 517 251 b 383 454 517 389 478 454 l 300 454 l 300 644 l 353 644 b 476 772 426 644 476 686 l 476 846 l -24 846 "},"ऋ":{"ha":1461,"x_min":0,"x_max":0,"o":"m 663 238 l 403 0 l 125 0 l 125 10 l 658 447 b 496 554 635 511 576 554 b 306 358 376 554 306 475 l 88 358 b 431 739 88 582 214 739 b 663 642 536 739 611 703 l 663 846 l -24 846 l -24 1028 l 1485 1028 l 1485 846 l 863 846 l 863 626 l 1064 626 b 1153 701 1122 626 1153 653 l 1153 753 l 1340 753 l 1340 267 l 1303 267 b 1186 168 1224 267 1186 224 b 1313 74 1186 99 1243 74 b 1392 83 1339 74 1369 78 l 1392 -90 b 1283 -100 1363 -96 1318 -100 b 978 149 1107 -100 978 -12 b 1153 382 978 268 1047 349 l 1153 474 b 1032 454 1115 461 1074 454 l 863 454 l 863 0 l 663 0 "},"ॠ":{"ha":1439,"x_min":0,"x_max":0,"o":"m 663 238 l 403 0 l 125 0 l 125 10 l 658 447 b 496 554 635 511 576 554 b 306 358 376 554 306 475 l 88 358 b 431 739 88 582 214 739 b 663 642 536 739 611 703 l 663 846 l -24 846 l -24 1028 l 1488 1028 l 1488 846 l 863 846 l 863 626 l 1064 626 b 1153 701 1122 626 1153 653 l 1153 753 l 1340 753 l 1340 261 l 1290 261 b 1192 193 1238 261 1192 247 b 1293 128 1192 143 1239 128 l 1372 128 l 1372 -35 l 1303 -35 b 1190 -106 1246 -35 1190 -47 b 1306 -176 1190 -164 1250 -176 b 1447 -154 1365 -176 1425 -161 l 1447 -315 b 1272 -344 1404 -333 1332 -344 b 981 -129 1128 -344 981 -286 b 1119 40 981 -42 1039 22 l 1119 46 b 982 206 1044 63 982 108 b 1153 376 982 315 1069 364 l 1153 474 b 1032 454 1115 461 1074 454 l 863 454 l 863 0 l 663 0 "},"ऌ":{"ha":1258,"x_min":0,"x_max":0,"o":"m -24 1028 l 1281 1028 l 1281 846 l 996 846 l 996 715 b 1185 400 1104 675 1185 571 b 1163 261 1185 350 1178 303 l 1154 261 b 1010 161 1047 261 1010 219 b 1140 69 1010 97 1068 69 b 1221 79 1168 69 1196 72 l 1221 -94 b 1113 -104 1185 -101 1149 -104 b 801 151 932 -104 801 -17 b 967 371 801 260 875 340 b 968 401 968 381 968 390 b 850 543 968 483 926 543 b 725 379 760 543 725 467 l 725 339 l 544 339 l 544 379 b 422 543 544 465 510 543 b 294 397 339 543 294 483 b 443 238 294 289 354 238 b 481 239 451 238 467 238 l 481 50 b 433 49 461 49 444 49 b 74 400 200 49 74 189 b 390 735 74 628 222 735 b 629 576 521 735 594 663 l 635 576 b 785 719 660 639 708 694 l 785 846 l -24 846 "},"ॡ":{"ha":1272,"x_min":0,"x_max":0,"o":"m -24 1028 l 1294 1028 l 1294 846 l 996 846 l 996 715 b 1185 400 1104 675 1185 571 b 1163 261 1185 350 1178 303 l 1122 261 b 1022 193 1069 261 1022 247 b 1125 128 1022 143 1071 128 l 1204 128 l 1204 -35 l 1135 -35 b 1021 -106 1076 -35 1021 -47 b 1138 -176 1021 -164 1082 -176 b 1279 -154 1197 -176 1257 -161 l 1279 -315 b 1104 -344 1236 -333 1164 -344 b 813 -128 960 -344 813 -286 b 951 40 813 -42 871 22 l 951 46 b 814 206 876 63 814 108 b 967 372 814 307 889 356 b 968 401 968 382 968 392 b 850 543 968 483 926 543 b 725 379 760 543 725 467 l 725 339 l 544 339 l 544 379 b 422 543 544 465 510 543 b 294 397 339 543 294 483 b 443 238 294 289 354 238 b 481 239 451 238 467 238 l 481 50 b 433 49 461 49 444 49 b 74 400 200 49 74 189 b 390 735 74 628 222 735 b 629 576 521 735 594 663 l 635 576 b 785 719 660 639 708 694 l 785 846 l -24 846 "},"ए":{"ha":907,"x_min":0,"x_max":0,"o":"m -24 1028 l 931 1028 l 931 846 l 810 846 l 810 736 b 481 443 810 526 724 411 l 481 639 b 597 742 561 628 597 663 l 597 846 l 332 846 l 332 365 b 464 213 332 264 385 213 b 589 340 540 213 589 260 l 803 340 b 468 26 803 140 669 26 b 115 374 232 26 115 168 l 114 846 l -24 846 "},"ऐ":{"ha":907,"x_min":0,"x_max":0,"o":"m 468 26 b 115 374 232 26 115 168 l 114 846 l -24 846 l -24 1028 l 592 1028 b 331 1214 486 1190 453 1214 l 258 1214 l 258 1389 l 326 1389 b 796 1028 543 1388 618 1350 l 931 1028 l 931 846 l 810 846 l 810 736 b 481 443 810 526 724 411 l 481 639 b 597 742 561 628 597 663 l 597 846 l 332 846 l 332 365 b 464 213 332 264 385 213 b 589 340 540 213 589 260 l 803 340 b 468 26 803 140 669 26 "},"ओ":{"ha":1608,"x_min":0,"x_max":0,"o":"m 835 0 l 835 365 l 699 365 b 699 353 699 361 699 357 b 410 82 699 188 583 82 b 83 375 214 82 83 200 l 288 375 b 396 269 288 317 329 269 b 501 375 463 269 501 313 b 372 485 501 432 463 485 l 310 485 l 310 661 l 372 661 b 490 758 446 661 490 703 b 394 856 490 818 449 856 b 293 761 336 856 293 818 l 92 761 b 394 1040 92 928 213 1040 b 685 788 571 1040 685 940 b 538 581 685 688 632 613 l 538 575 b 607 544 564 568 588 558 l 835 544 l 835 1028 l 1279 1028 b 1018 1214 1174 1190 1140 1214 l 946 1214 l 946 1389 l 1014 1389 b 1483 1028 1231 1388 1306 1350 l 1632 1028 l 1632 846 l 1496 846 l 1496 0 l 1278 0 l 1278 846 l 1051 846 l 1051 0 "},"औ":{"ha":1608,"x_min":0,"x_max":0,"o":"m 835 0 l 835 365 l 699 365 b 699 353 699 361 699 357 b 410 82 699 188 583 82 b 83 375 214 82 83 200 l 288 375 b 396 269 288 317 329 269 b 501 375 463 269 501 313 b 372 485 501 432 463 485 l 310 485 l 310 661 l 372 661 b 490 758 446 661 490 703 b 394 856 490 818 449 856 b 293 761 336 856 293 818 l 92 761 b 394 1040 92 928 213 1040 b 685 788 571 1040 685 940 b 538 581 685 688 632 613 l 538 575 b 607 544 564 568 588 558 l 835 544 l 835 1028 l 1290 1028 b 1000 1122 1144 1119 1147 1122 l 925 1122 l 925 1258 l 996 1258 b 1263 1179 1126 1258 1161 1257 b 1004 1351 1161 1349 1101 1351 l 925 1351 l 925 1489 l 1000 1489 b 1482 1028 1213 1489 1254 1468 l 1632 1028 l 1632 846 l 1496 846 l 1496 0 l 1278 0 l 1278 846 l 1051 846 l 1051 0 "},"ऍ":{"ha":907,"x_min":0,"x_max":0,"o":"m -24 1028 l 931 1028 l 931 846 l 810 846 l 810 736 b 481 443 810 526 724 411 l 481 639 b 597 742 561 628 597 663 l 597 846 l 332 846 l 332 365 b 464 213 332 264 385 213 b 589 340 540 213 589 260 l 803 340 b 468 26 803 140 669 26 b 115 374 232 26 115 168 l 114 846 l -24 846 m 454 1138 b 122 1431 224 1138 122 1261 l 310 1431 b 454 1299 310 1358 351 1299 b 600 1431 557 1299 600 1358 l 788 1431 b 454 1138 788 1261 685 1138 "},"ॲ":{"ha":1171,"x_min":0,"x_max":0,"o":"m 372 661 b 490 758 446 661 490 703 b 394 856 490 818 449 856 b 293 761 336 856 293 818 l 92 761 b 394 1040 92 928 213 1040 b 685 788 571 1040 685 940 b 538 581 685 688 632 613 l 538 575 b 607 544 564 568 588 558 l 835 544 l 835 1028 l 1189 1028 l 1189 846 l 1051 846 l 1051 0 l 835 0 l 835 365 l 699 365 b 699 353 699 361 699 357 b 410 82 699 188 583 82 b 83 375 214 82 83 200 l 288 375 b 396 269 288 317 329 269 b 501 375 463 269 501 313 b 372 485 501 432 463 485 l 310 485 l 310 661 l 372 661 m 954 1144 b 622 1438 724 1144 622 1268 l 810 1438 b 954 1306 810 1365 851 1306 b 1100 1438 1057 1306 1100 1365 l 1288 1438 b 954 1144 1288 1268 1185 1144 "},"ऑ":{"ha":1608,"x_min":0,"x_max":0,"o":"m 372 661 b 490 758 446 661 490 703 b 394 856 490 818 449 856 b 293 761 336 856 293 818 l 92 761 b 394 1040 92 928 213 1040 b 685 788 571 1040 685 940 b 538 581 685 688 632 613 l 538 575 b 607 544 564 568 588 558 l 835 544 l 835 1028 l 1632 1028 l 1632 846 l 1496 846 l 1496 0 l 1278 0 l 1278 846 l 1051 846 l 1051 0 l 835 0 l 835 365 l 699 365 b 699 353 699 361 699 357 b 410 82 699 188 583 82 b 83 375 214 82 83 200 l 288 375 b 396 269 288 317 329 269 b 501 375 463 269 501 313 b 372 485 501 432 463 485 l 310 485 l 310 661 l 372 661 m 1169 1138 b 838 1431 939 1138 838 1261 l 1025 1431 b 1169 1299 1025 1358 1067 1299 b 1315 1431 1272 1299 1315 1358 l 1503 1431 b 1169 1138 1503 1261 1400 1138 "},"ा":{"ha":443,"x_min":0,"x_max":0,"o":"m 113 846 l -24 846 l -24 1028 l 467 1028 l 467 846 l 331 846 l 331 0 l 113 0 "},"ि":{"ha":443,"x_min":0,"x_max":0,"o":"m 331 0 l 113 0 l 113 846 l -24 846 l -24 1028 l 113 1028 b 692 1432 126 1274 347 1432 b 1272 1004 1044 1432 1272 1256 l 1272 979 l 1054 979 l 1054 1000 b 692 1254 1054 1174 878 1254 b 331 1028 511 1254 343 1188 l 467 1028 l 467 846 l 331 846 "},"ी":{"ha":443,"x_min":0,"x_max":0,"o":"m -331 1069 b 3 1432 -331 1279 -243 1432 b 331 1069 251 1432 331 1274 l 331 1028 l 467 1028 l 467 846 l 331 846 l 331 0 l 113 0 l 113 846 l -24 846 l -24 1028 l 119 1028 l 119 1081 b 3 1249 119 1151 104 1249 b -119 1081 -104 1249 -119 1151 l -119 979 l -331 979 "},"ु":{"ha":0,"x_min":0,"x_max":0,"o":"m -293 -472 b -653 -149 -474 -472 -656 -387 l -460 -149 b -299 -301 -462 -258 -392 -301 b -172 -203 -219 -301 -172 -265 b -282 -110 -172 -151 -208 -110 l -331 -110 l -331 60 l -282 60 b 13 -206 -86 60 13 -43 b -293 -472 13 -371 -106 -472 "},"ू":{"ha":0,"x_min":0,"x_max":0,"o":"m -265 -451 b -531 -204 -408 -451 -531 -371 b -229 53 -531 -42 -404 53 b 142 -365 60 53 142 -156 b 139 -443 142 -393 140 -418 l -37 -443 l -37 -356 b -232 -110 -37 -197 -101 -110 b -356 -206 -299 -110 -356 -140 b -250 -296 -356 -267 -306 -296 b -212 -294 -239 -296 -226 -294 l -212 -450 b -265 -451 -231 -451 -247 -451 "},"ृ":{"ha":0,"x_min":0,"x_max":0,"o":"m -189 -467 b -496 -203 -337 -467 -496 -397 b -193 56 -496 -50 -386 56 b -112 53 -179 56 -126 54 l -112 -93 l -175 -93 b -285 -194 -247 -93 -285 -137 b -154 -293 -285 -268 -224 -293 b -39 -275 -107 -293 -62 -282 l -39 -444 b -189 -467 -87 -460 -140 -467 "},"ॄ":{"ha":0,"x_min":0,"x_max":0,"o":"m -158 -668 b -450 -454 -303 -668 -450 -612 b -311 -285 -450 -365 -392 -303 l -311 -279 b -449 -119 -386 -262 -449 -217 b -226 56 -449 14 -321 56 l -112 56 l -112 -62 l -140 -62 b -240 -131 -194 -62 -240 -78 b -139 -199 -240 -181 -192 -199 l -58 -199 l -58 -358 l -126 -358 b -240 -431 -186 -358 -240 -371 b -125 -500 -240 -487 -181 -500 b 17 -479 -65 -500 -6 -486 l 17 -642 b -158 -668 -26 -658 -99 -668 "},"ॢ":{"ha":0,"x_min":0,"x_max":0,"o":"m 142 -662 b -96 -468 4 -662 -96 -596 b 29 -303 -96 -386 -40 -325 b 29 -283 29 -297 29 -290 b -57 -179 29 -222 0 -179 b -147 -299 -122 -179 -147 -235 l -147 -329 l -287 -329 l -287 -299 b -376 -179 -287 -235 -312 -179 b -469 -286 -437 -179 -469 -222 b -361 -401 -469 -365 -425 -401 b -333 -399 -356 -401 -343 -401 l -333 -547 l -369 -547 b -640 -283 -544 -547 -640 -442 b -403 -31 -640 -111 -528 -31 b -222 -149 -304 -31 -249 -85 l -219 -149 b -31 -31 -192 -85 -131 -31 b 201 -283 90 -31 201 -112 b 185 -387 201 -321 194 -356 l 176 -387 b 67 -460 94 -387 67 -418 b 163 -528 67 -507 111 -528 b 224 -521 183 -528 206 -526 l 224 -656 b 142 -662 197 -660 169 -662 "},"ॣ":{"ha":0,"x_min":0,"x_max":0,"o":"m 267 -822 b 135 -842 235 -835 181 -842 b -83 -681 25 -842 -83 -801 b 19 -553 -83 -612 -40 -565 l 19 -550 b -83 -426 -37 -536 -83 -499 b 29 -300 -83 -350 -29 -312 b 29 -283 29 -294 29 -289 b -57 -179 29 -222 0 -179 b -147 -299 -122 -179 -147 -235 l -147 -329 l -287 -329 l -287 -299 b -376 -179 -287 -235 -312 -179 b -469 -286 -437 -179 -469 -222 b -361 -401 -469 -365 -425 -401 b -333 -399 -356 -401 -343 -401 l -333 -547 l -369 -547 b -640 -283 -544 -547 -640 -442 b -403 -31 -640 -111 -528 -31 b -222 -149 -304 -31 -249 -85 l -219 -149 b -31 -31 -192 -85 -131 -31 b 201 -283 90 -31 201 -112 b 185 -387 201 -321 194 -356 l 150 -387 b 76 -436 110 -387 76 -397 b 153 -485 76 -472 111 -485 l 211 -485 l 211 -610 l 161 -610 b 75 -662 115 -610 75 -617 b 161 -712 75 -704 119 -712 b 267 -697 206 -712 250 -703 l 267 -822 "},"े":{"ha":0,"x_min":0,"x_max":0,"o":"m -319 1021 b -585 1214 -428 1190 -461 1214 l -657 1214 l -657 1389 l -589 1389 b -115 1021 -372 1388 -297 1350 l -319 1021 "},"ै":{"ha":0,"x_min":0,"x_max":0,"o":"m -303 1024 b -600 1122 -456 1119 -450 1122 l -675 1122 l -675 1258 l -604 1258 b -337 1179 -474 1258 -439 1257 b -596 1351 -439 1349 -499 1351 l -675 1351 l -675 1489 l -600 1489 b -115 1024 -387 1489 -346 1468 l -303 1024 "},"ो":{"ha":444,"x_min":0,"x_max":0,"o":"m 113 0 l 113 846 l -24 846 l -24 1028 l 121 1028 b -140 1214 15 1190 -18 1214 l -212 1214 l -212 1389 l -144 1389 b 325 1028 72 1388 147 1350 l 467 1028 l 467 846 l 331 846 l 331 0 "},"ौ":{"ha":443,"x_min":0,"x_max":0,"o":"m 113 0 l 113 846 l -24 846 l -24 1028 l 126 1028 b -164 1122 -19 1119 -17 1122 l -239 1122 l -239 1258 l -168 1258 b 99 1179 -37 1258 -3 1257 b -160 1351 -3 1349 -62 1351 l -239 1351 l -239 1489 l -164 1489 b 318 1028 49 1489 90 1468 l 467 1028 l 467 846 l 331 846 l 331 0 "},"ॅ":{"ha":0,"x_min":0,"x_max":0,"o":"m -233 1126 b -565 1419 -464 1126 -565 1250 l -378 1419 b -233 1288 -378 1347 -336 1288 b -87 1419 -131 1288 -87 1347 l 100 1419 b -233 1126 100 1250 -3 1126 "},"ॉ":{"ha":444,"x_min":0,"x_max":0,"o":"m 114 846 l -22 846 l -22 1028 l 468 1028 l 468 846 l 332 846 l 332 0 l 114 0 m 222 1126 b -110 1419 -8 1126 -110 1250 l 78 1419 b 222 1288 78 1347 119 1288 b 368 1419 325 1288 368 1347 l 556 1419 b 222 1126 556 1250 453 1126 "},"क":{"ha":1340,"x_min":0,"x_max":0,"o":"m 576 193 b 360 89 535 129 461 89 b 74 414 183 89 74 224 b 368 738 74 606 183 738 b 576 640 467 738 536 700 l 576 846 l -24 846 l -24 1028 l 1364 1028 l 1364 846 l 786 846 l 786 640 b 986 738 826 700 893 738 b 1267 419 1164 738 1267 596 b 981 103 1267 218 1146 103 b 886 114 947 103 919 106 l 886 285 b 921 281 896 282 908 281 b 1046 414 993 281 1046 329 b 917 551 1046 492 996 551 b 786 400 826 551 786 482 l 786 0 l 576 0 m 435 272 b 576 414 526 272 576 343 b 436 553 576 486 528 553 b 294 413 356 553 294 497 b 435 272 294 328 351 272 "},"ख":{"ha":1333,"x_min":0,"x_max":0,"o":"m 889 321 b 1004 442 965 321 1004 378 b 889 561 1003 501 968 561 b 768 443 822 561 768 518 b 889 321 768 363 821 321 m 840 154 b 797 157 825 154 811 156 b 482 -10 735 63 629 -10 b 90 383 243 -10 90 132 l 90 560 l 126 560 b 314 740 251 560 314 613 l 314 846 l -24 846 l -24 1028 l 1357 1028 l 1357 846 l 1221 846 l 1221 0 l 1004 0 l 1004 219 b 840 154 969 181 917 154 m 488 179 b 638 247 564 179 611 210 b 574 443 597 299 574 365 b 840 726 574 607 685 726 b 1004 660 917 726 969 700 l 1004 846 l 532 846 l 532 710 b 307 408 532 524 440 425 l 307 357 b 488 179 307 256 369 179 "},"ग":{"ha":1132,"x_min":0,"x_max":0,"o":"m 801 846 l 626 846 l 626 532 b 342 235 626 365 542 235 b 50 521 157 235 50 336 b 51 565 50 536 50 551 l 263 565 l 263 522 b 336 421 263 467 279 421 b 407 524 396 421 407 475 l 407 846 l -24 846 l -24 1028 l 1156 1028 l 1156 846 l 1019 846 l 1019 0 l 801 0 "},"घ":{"ha":971,"x_min":0,"x_max":0,"o":"m 444 308 b 640 494 554 308 640 381 l 640 846 l 326 846 l 326 790 b 451 676 326 721 358 676 l 506 676 l 506 501 l 433 501 b 313 407 350 501 313 461 b 444 308 313 340 369 308 m -24 1028 l 994 1028 l 994 846 l 860 846 l 860 0 l 640 0 l 640 238 b 392 131 583 168 496 131 b 92 385 226 131 92 217 b 240 585 92 493 164 563 l 240 589 b 108 781 165 608 108 664 l 108 846 l -24 846 "},"ङ":{"ha":975,"x_min":0,"x_max":0,"o":"m 846 399 b 732 513 782 399 732 450 b 846 626 732 576 782 626 b 960 513 910 626 960 576 b 846 399 960 450 910 399 m -24 1028 l 999 1028 l 999 846 l 657 846 l 657 590 l 400 590 b 310 526 356 590 310 575 b 392 463 310 479 347 463 l 454 463 b 740 219 596 463 740 401 b 428 -28 740 69 629 -28 b 71 240 226 -28 78 68 l 288 240 b 421 136 290 171 349 136 b 535 221 493 136 535 169 b 414 308 535 283 485 308 l 364 308 b 90 533 258 308 90 343 b 344 743 90 679 206 743 l 447 743 l 447 846 l -24 846 "},"च":{"ha":1046,"x_min":0,"x_max":0,"o":"m -24 1028 l 1069 1028 l 1069 846 l 933 846 l 933 0 l 715 0 l 715 222 b 472 115 663 153 575 115 b 189 378 314 115 189 213 b 257 540 189 444 213 500 l 71 540 l 71 711 l 583 711 l 583 540 l 526 540 b 393 418 450 540 393 493 b 539 296 393 338 458 294 b 715 511 651 297 715 383 l 715 846 l -24 846 "},"छ":{"ha":1144,"x_min":0,"x_max":0,"o":"m -24 1028 l 1168 1028 l 1168 846 l 907 846 l 907 733 b 1085 451 1015 697 1085 599 b 558 28 1085 194 892 28 b 86 336 281 28 86 128 b 238 550 86 449 146 519 l 238 556 b 107 747 164 574 107 631 l 107 846 l -24 846 m 560 214 b 893 463 774 214 893 300 b 806 589 893 538 857 589 b 718 478 757 589 718 551 b 736 372 718 444 725 407 l 557 372 b 538 503 546 406 538 451 b 706 735 538 633 608 707 l 706 846 l 325 846 l 325 757 b 436 643 325 688 354 643 l 464 643 l 464 468 l 440 468 b 307 357 349 468 307 418 b 560 214 307 268 383 214 "},"ज":{"ha":1194,"x_min":0,"x_max":0,"o":"m -24 1028 l 1218 1028 l 1218 846 l 1082 846 l 1082 0 l 864 0 l 864 492 l 704 492 l 704 450 b 390 139 704 268 585 139 b 72 450 181 139 72 268 l 72 678 l 292 678 l 292 456 b 392 329 292 378 326 329 b 490 456 456 329 490 378 l 490 678 l 864 678 l 864 846 l -24 846 "},"झ":{"ha":1207,"x_min":0,"x_max":0,"o":"m 881 463 l 881 846 l 651 846 l 651 590 l 394 590 b 303 525 349 590 303 575 b 388 463 303 481 339 463 m 881 299 l 706 299 b 729 190 721 269 729 233 b 500 -21 729 69 647 -21 b 322 46 404 -21 347 22 l 322 -117 l 117 -117 l 117 235 l 313 235 b 431 139 317 178 360 139 b 528 219 497 139 528 175 b 407 308 528 274 490 308 b 319 311 379 308 351 308 b 83 528 207 317 83 375 b 339 744 83 681 200 744 l 440 744 l 440 846 l -24 846 l -24 1028 l 1231 1028 l 1231 846 l 1094 846 l 1094 0 l 881 0 "},"ञ":{"ha":1160,"x_min":0,"x_max":0,"o":"m -24 1028 l 1183 1028 l 1183 846 l 1047 846 l 1047 0 l 829 0 l 829 325 l 717 325 b 397 75 686 169 567 75 b 74 346 215 75 86 179 l 279 346 b 400 258 294 292 340 258 b 529 408 485 258 529 325 b 400 557 529 488 485 557 b 279 469 339 557 293 522 l 74 469 b 397 742 85 636 215 742 b 714 508 560 742 676 653 l 829 508 l 829 846 l -24 846 "},"ट":{"ha":897,"x_min":0,"x_max":0,"o":"m -24 1028 l 921 1028 l 921 846 l 681 846 l 681 557 l 490 557 b 292 382 381 557 292 499 b 468 217 292 285 361 217 b 649 393 578 217 649 289 l 856 393 b 474 28 856 172 707 28 b 74 383 239 28 74 169 b 467 740 74 597 222 736 l 467 846 l -24 846 "},"ठ":{"ha":932,"x_min":0,"x_max":0,"o":"m 465 224 b 643 396 574 224 643 296 b 465 567 643 496 574 567 b 290 396 361 567 290 496 b 465 224 290 296 361 224 m 465 42 b 74 396 244 42 74 175 b 357 738 74 588 200 703 l 357 846 l -24 846 l -24 1028 l 956 1028 l 956 846 l 572 846 l 572 739 b 860 396 732 704 860 589 b 465 42 860 175 688 42 "},"ड":{"ha":786,"x_min":0,"x_max":0,"o":"m -24 1028 l 808 1028 l 808 846 l 654 846 l 654 590 l 400 590 b 310 526 356 590 310 575 b 392 463 310 479 347 463 l 454 463 b 740 219 596 463 740 401 b 428 -28 740 69 629 -28 b 71 240 226 -28 78 68 l 288 240 b 421 136 290 171 349 136 b 535 221 493 136 535 169 b 414 308 535 283 485 308 l 364 308 b 90 533 258 308 90 343 b 344 743 90 679 206 743 l 443 743 l 443 846 l -24 846 "},"ढ":{"ha":910,"x_min":0,"x_max":0,"o":"m -24 1028 l 933 1028 l 933 846 l 708 846 l 708 601 l 547 601 b 285 369 399 601 285 524 b 525 144 285 243 363 144 b 703 271 625 144 703 189 b 626 349 703 317 672 349 b 557 282 588 349 557 321 b 561 260 557 274 558 265 l 406 260 b 400 313 403 278 400 297 b 636 504 400 436 499 504 b 889 271 796 504 889 408 b 521 -12 889 94 757 -12 b 74 378 268 -12 74 129 b 476 751 74 619 246 751 l 503 751 l 503 846 l -24 846 "},"ण":{"ha":1244,"x_min":0,"x_max":0,"o":"m 421 385 b 513 488 481 385 513 426 l 513 846 l 326 846 l 326 488 b 421 385 326 426 363 385 m -24 1028 l 1268 1028 l 1268 846 l 1131 846 l 1131 0 l 913 0 l 913 846 l 726 846 l 726 507 b 419 201 726 332 625 201 b 113 507 213 201 113 338 l 113 846 l -24 846 "},"त":{"ha":983,"x_min":0,"x_max":0,"o":"m -24 1028 l 1007 1028 l 1007 846 l 871 846 l 871 0 l 653 0 l 653 496 l 479 496 b 294 336 368 496 294 440 b 468 174 294 238 351 174 l 494 174 l 494 1 l 435 1 b 74 340 236 1 74 103 b 468 683 74 581 253 683 l 653 683 l 653 846 l -24 846 "},"थ":{"ha":1103,"x_min":0,"x_max":0,"o":"m 772 264 b 471 114 731 186 626 114 b 76 510 233 114 76 264 b 83 610 76 542 78 575 l 204 610 b 461 763 349 610 461 643 b 378 854 461 814 431 854 b 290 758 324 854 290 818 b 296 710 290 740 293 725 l 99 710 b 93 764 96 728 93 749 b 381 1040 93 947 225 1040 b 667 757 550 1040 667 929 b 292 454 667 576 540 454 b 289 454 290 454 290 454 b 504 296 299 372 358 296 b 772 582 651 296 772 392 l 772 1028 l 1126 1028 l 1126 846 l 990 846 l 990 0 l 772 0 "},"द":{"ha":850,"x_min":0,"x_max":0,"o":"m -24 1028 l 874 1028 l 872 846 l 714 846 l 714 549 l 467 549 b 297 400 365 549 297 494 b 432 263 297 317 349 263 b 558 390 501 263 558 308 l 761 390 l 761 -46 l 547 -46 l 547 158 b 369 90 508 115 446 90 b 74 406 214 90 74 192 b 443 735 74 619 231 735 l 496 735 l 496 846 l -24 846 "},"ध":{"ha":1017,"x_min":0,"x_max":0,"o":"m 413 108 b 99 360 242 108 99 193 b 260 560 99 481 186 543 l 260 564 b 88 796 174 590 88 663 b 347 1040 88 947 199 1040 b 597 806 508 1040 597 942 b 594 749 597 789 596 764 l 433 749 b 435 778 435 764 435 771 b 356 858 435 825 404 858 b 274 772 304 858 274 821 b 449 654 274 685 363 654 l 532 654 l 532 478 l 458 478 b 321 383 374 478 321 446 b 468 286 321 318 379 286 b 700 528 608 286 700 383 l 700 1028 l 1050 1028 l 1050 846 l 918 846 l 918 0 l 700 0 l 700 231 b 413 108 642 153 543 108 "},"न":{"ha":1143,"x_min":0,"x_max":0,"o":"m 383 281 b 499 393 451 281 499 326 b 383 507 499 460 451 507 b 265 393 314 507 265 460 b 383 281 265 326 314 281 m -24 1028 l 1167 1028 l 1167 846 l 1031 846 l 1031 0 l 811 0 l 811 507 l 636 507 b 672 364 657 469 672 422 b 381 96 672 188 538 96 b 68 392 215 96 68 204 b 399 689 68 592 219 689 l 811 689 l 811 846 l -24 846 "},"प":{"ha":940,"x_min":0,"x_max":0,"o":"m 461 406 b 610 568 560 406 610 479 l 610 846 l 313 846 l 313 581 b 461 406 313 478 358 406 m -24 1028 l 964 1028 l 964 846 l 828 846 l 828 0 l 610 0 l 610 303 b 404 222 564 253 496 222 b 94 581 199 222 94 375 l 94 846 l -24 846 "},"फ":{"ha":1367,"x_min":0,"x_max":0,"o":"m 449 406 b 586 557 540 406 586 475 l 586 846 l 313 846 l 313 569 b 449 406 313 474 356 406 m -24 1028 l 1392 1028 l 1392 846 l 804 846 l 804 640 b 1015 738 846 699 918 738 b 1296 425 1192 738 1296 600 b 1010 103 1296 221 1176 103 b 907 117 975 103 940 107 l 907 285 b 951 279 921 281 938 279 b 1075 414 1026 279 1075 333 b 946 551 1075 492 1025 551 b 804 376 850 551 804 475 l 804 0 l 586 0 l 586 300 b 393 222 543 251 479 222 b 94 569 196 222 94 369 l 94 846 l -24 846 "},"ब":{"ha":956,"x_min":0,"x_max":0,"o":"m 633 175 b 411 82 589 118 510 82 b 74 422 218 82 74 221 b 410 751 74 618 217 751 b 633 667 506 751 582 718 l 633 846 l -24 846 l -24 1028 l 979 1028 l 979 846 l 843 846 l 843 0 l 633 0 m 457 611 b 336 572 411 611 369 597 l 631 347 b 646 424 640 371 646 397 b 457 611 646 524 575 611 m 457 238 b 578 276 507 238 547 251 l 279 500 b 264 422 269 476 264 450 b 457 238 264 307 353 238 "},"भ":{"ha":1185,"x_min":0,"x_max":0,"o":"m 378 269 b 478 390 444 269 478 318 l 478 467 l 397 467 b 279 367 328 467 279 432 b 378 269 279 304 322 269 m 382 85 b 76 367 199 85 76 196 b 390 644 76 556 218 644 l 478 644 l 478 750 b 401 854 478 811 456 854 b 326 765 356 854 326 819 b 331 721 326 751 328 736 l 113 721 b 107 774 110 736 107 756 b 393 1040 107 925 201 1040 b 681 710 610 1040 681 894 l 681 644 l 853 644 l 853 1028 l 1208 1028 l 1208 846 l 1071 846 l 1071 0 l 853 0 l 853 467 l 681 467 l 681 401 b 382 85 681 206 579 85 "},"म":{"ha":1171,"x_min":0,"x_max":0,"o":"m 356 269 b 457 390 422 269 457 318 l 457 467 l 374 467 b 258 367 307 467 258 432 b 356 269 258 304 300 269 m 839 846 l 660 846 l 660 644 l 839 644 m -24 1028 l 1194 1028 l 1194 846 l 1058 846 l 1058 0 l 839 0 l 839 467 l 660 467 l 660 401 b 360 85 660 206 557 85 b 56 367 176 85 56 196 b 368 644 56 556 196 644 l 457 644 l 457 846 l -24 846 "},"य":{"ha":1051,"x_min":0,"x_max":0,"o":"m 500 296 b 719 518 636 296 719 390 l 719 846 l 517 846 l 517 743 b 293 478 517 600 454 497 b 500 296 296 372 369 296 m -24 1028 l 1075 1028 l 1075 846 l 939 846 l 939 0 l 719 0 l 719 217 b 453 114 663 154 574 114 b 76 506 211 114 76 268 b 82 589 76 533 78 561 l 96 589 b 301 783 254 589 301 663 l 301 846 l -24 846 "},"र":{"ha":738,"x_min":0,"x_max":0,"o":"m -24 1028 l 761 1028 l 761 846 l 643 846 l 643 772 b 310 417 643 569 564 417 l 303 417 l 303 278 b 388 174 303 218 328 174 b 471 272 440 174 471 215 l 471 311 l 681 311 l 681 279 b 392 -12 681 103 575 -12 b 88 289 190 -12 88 119 l 88 592 l 228 592 b 425 772 376 592 425 661 l 425 846 l -24 846 "},"ल":{"ha":1269,"x_min":0,"x_max":0,"o":"m 836 42 b 789 43 825 42 808 42 l 789 233 b 826 231 801 232 818 231 b 975 390 915 231 975 290 b 850 536 975 475 932 536 b 725 372 760 536 725 460 l 725 339 l 544 339 l 544 372 b 422 536 544 458 510 536 b 294 390 339 536 294 476 b 443 231 294 290 354 231 b 481 233 451 231 467 232 l 481 43 b 433 42 461 42 444 42 b 74 393 200 42 74 190 b 390 728 74 621 222 728 b 632 569 524 728 596 656 l 636 569 b 810 719 667 639 719 699 l 810 846 l -24 846 l -24 1028 l 1293 1028 l 1293 846 l 1024 846 l 1024 699 b 1196 393 1124 653 1196 551 b 836 42 1196 190 1069 42 "},"व":{"ha":926,"x_min":0,"x_max":0,"o":"m 444 260 b 601 414 547 260 601 338 l 601 415 b 444 568 601 496 547 568 b 288 415 353 568 288 506 b 444 260 288 324 351 260 m 814 846 l 814 0 l 601 0 l 601 186 b 385 86 554 122 479 86 b 74 421 189 86 74 229 b 385 743 74 606 190 743 b 601 646 479 743 554 707 l 601 846 l -24 846 l -24 1028 l 950 1028 l 950 846 "},"श":{"ha":1189,"x_min":0,"x_max":0,"o":"m 426 -10 b 93 315 217 -10 93 117 l 93 582 l 286 582 b 526 743 408 582 526 619 b 429 851 526 807 492 851 b 332 742 367 851 332 807 b 333 694 332 725 332 710 l 115 694 b 111 749 114 713 111 731 b 429 1040 111 919 233 1040 b 747 729 618 1040 747 929 b 368 399 747 501 578 399 l 313 399 l 313 301 b 421 178 313 235 340 178 b 521 290 485 178 521 225 l 521 313 l 732 313 b 733 288 733 299 733 290 b 426 -10 733 100 614 -10 m 856 1028 l 1213 1028 l 1213 846 l 1076 846 l 1076 0 l 856 0 "},"ष":{"ha":960,"x_min":0,"x_max":0,"o":"m 464 389 b 619 486 543 389 596 429 l 306 696 l 306 574 b 464 389 306 467 356 389 m 633 846 l 307 846 l 633 626 m -24 1028 l 983 1028 l 983 846 l 847 846 l 847 0 l 633 0 l 633 292 b 418 206 589 238 518 206 b 94 581 204 206 94 365 l 94 846 l -24 846 "},"स":{"ha":1150,"x_min":0,"x_max":0,"o":"m 606 754 b 572 594 606 694 594 640 l 819 594 l 819 846 l 606 846 l 606 754 m -24 1028 l 1174 1028 l 1174 846 l 1038 846 l 1038 0 l 819 0 l 819 417 l 303 417 l 303 281 b 393 174 303 221 331 174 b 481 272 450 174 481 217 l 481 290 l 690 290 b 692 260 692 278 692 267 b 397 -12 692 94 582 -12 b 88 292 193 -12 88 121 l 88 572 l 190 572 b 388 754 340 572 388 647 l 388 846 l -24 846 "},"ह":{"ha":813,"x_min":0,"x_max":0,"o":"m 753 107 b 424 -156 739 -51 610 -156 b 82 167 214 -156 82 -28 b 207 411 82 275 129 360 b 114 571 149 447 114 501 b 339 749 114 679 199 749 l 450 749 l 450 846 l -24 846 l -24 1028 l 836 1028 l 836 846 l 658 846 l 658 594 l 417 594 b 331 528 371 594 331 576 b 368 468 331 501 344 481 b 429 472 388 471 408 472 b 753 214 635 472 736 360 l 544 214 b 424 300 535 257 493 300 b 296 163 350 300 296 247 b 424 24 296 75 350 24 b 544 107 489 24 532 64 l 753 107 "},"ळ":{"ha":1335,"x_min":0,"x_max":0,"o":"m 425 260 b 561 396 504 260 561 314 b 425 535 561 476 504 535 b 286 394 343 535 286 478 b 425 260 286 313 344 260 m 910 260 b 1049 394 990 260 1049 313 b 911 535 1049 478 992 535 b 774 396 829 535 774 476 b 910 260 774 314 829 260 m 943 74 b 671 235 821 74 718 132 l 664 235 b 393 74 617 132 514 74 b 74 396 217 74 74 197 b 392 719 74 594 217 719 b 665 561 504 719 601 674 l 669 561 b 863 711 717 646 783 693 l 863 846 l -24 846 l -24 1028 l 1358 1028 l 1358 846 l 1075 846 l 1075 693 b 1261 396 1185 647 1261 542 b 943 74 1261 197 1118 74 "},"क़":{"ha":1340,"x_min":0,"x_max":0,"o":"m 576 193 b 360 89 535 129 461 89 b 74 414 183 89 74 224 b 368 738 74 606 183 738 b 576 640 467 738 536 700 l 576 846 l -24 846 l -24 1028 l 1364 1028 l 1364 846 l 786 846 l 786 640 b 986 738 826 700 893 738 b 1267 419 1164 738 1267 596 b 981 103 1267 218 1146 103 b 886 114 947 103 919 106 l 886 285 b 921 281 896 282 908 281 b 1046 414 993 281 1046 329 b 917 551 1046 492 996 551 b 786 400 826 551 786 482 l 786 0 l 576 0 m 329 -243 b 203 -119 258 -243 203 -189 b 329 10 203 -47 258 10 b 457 -119 401 10 457 -47 b 329 -243 457 -189 401 -243 m 435 272 b 576 414 526 272 576 343 b 436 553 576 486 528 553 b 294 413 356 553 294 497 b 435 272 294 328 351 272 "},"ख़":{"ha":1333,"x_min":0,"x_max":0,"o":"m 840 154 b 797 157 825 154 811 156 b 482 -10 735 63 629 -10 b 90 383 243 -10 90 132 l 90 560 l 126 560 b 314 740 251 560 314 613 l 314 846 l -24 846 l -24 1028 l 1357 1028 l 1357 846 l 1221 846 l 1221 0 l 1004 0 l 1004 219 b 840 154 969 181 917 154 m 450 -337 b 324 -214 379 -337 324 -283 b 450 -85 324 -142 379 -85 b 578 -214 522 -85 578 -142 b 450 -337 578 -283 522 -337 m 889 321 b 1004 442 965 321 1004 378 b 889 561 1003 501 968 561 b 768 443 822 561 768 518 b 889 321 768 363 821 321 m 488 179 b 638 247 564 179 611 210 b 574 443 597 299 574 365 b 840 726 574 607 685 726 b 1004 660 917 726 969 700 l 1004 846 l 532 846 l 532 710 b 307 408 532 524 440 425 l 307 357 b 488 179 307 256 369 179 "},"ग़":{"ha":1131,"x_min":0,"x_max":0,"o":"m 801 846 l 626 846 l 626 532 b 342 235 626 365 542 235 b 50 521 157 235 50 336 b 51 565 50 536 50 551 l 263 565 l 263 522 b 336 421 263 467 279 421 b 407 524 396 421 407 475 l 407 846 l -24 846 l -24 1028 l 1156 1028 l 1156 846 l 1019 846 l 1019 0 l 801 0 m 343 -99 b 217 25 272 -99 217 -44 b 343 154 217 97 272 154 b 471 25 415 154 471 97 b 343 -99 471 -44 415 -99 "},"ज़":{"ha":1194,"x_min":0,"x_max":0,"o":"m -24 1028 l 1218 1028 l 1218 846 l 1082 846 l 1082 0 l 864 0 l 864 492 l 704 492 l 704 450 b 390 139 704 268 585 139 b 72 450 181 139 72 268 l 72 678 l 292 678 l 292 456 b 392 329 292 378 326 329 b 490 456 456 329 490 378 l 490 678 l 864 678 l 864 846 l -24 846 m 392 -193 b 265 -69 321 -193 265 -139 b 392 60 265 3 321 60 b 519 -69 464 60 519 3 b 392 -193 519 -139 464 -193 "},"ड़":{"ha":786,"x_min":0,"x_max":0,"o":"m -24 1028 l 808 1028 l 808 846 l 654 846 l 654 590 l 400 590 b 310 526 356 590 310 575 b 392 463 310 479 347 463 l 454 463 b 740 219 596 463 740 401 b 428 -28 740 69 629 -28 b 71 240 226 -28 78 68 l 288 240 b 421 136 290 171 349 136 b 535 221 493 136 535 169 b 414 308 535 283 485 308 l 364 308 b 90 533 258 308 90 343 b 344 743 90 679 206 743 l 443 743 l 443 846 l -24 846 m 425 -360 b 299 -236 354 -360 299 -306 b 425 -107 299 -164 354 -107 b 553 -236 497 -107 553 -164 b 425 -360 553 -306 497 -360 "},"ढ़":{"ha":910,"x_min":0,"x_max":0,"o":"m -24 1028 l 933 1028 l 933 846 l 708 846 l 708 601 l 547 601 b 285 369 399 601 285 524 b 525 144 285 243 363 144 b 703 271 625 144 703 189 b 626 349 703 317 672 349 b 557 282 588 349 557 321 b 561 260 557 274 558 265 l 406 260 b 400 313 403 278 400 297 b 636 504 400 436 499 504 b 889 271 796 504 889 408 b 521 -12 889 94 757 -12 b 74 378 268 -12 74 129 b 476 751 74 619 246 751 l 503 751 l 503 846 l -24 846 m 493 -342 b 367 -218 422 -342 367 -287 b 493 -89 367 -146 422 -89 b 621 -218 565 -89 621 -146 b 493 -342 621 -287 565 -342 "},"फ़":{"ha":1367,"x_min":0,"x_max":0,"o":"m 449 406 b 586 557 540 406 586 475 l 586 846 l 313 846 l 313 569 b 449 406 313 474 356 406 m -24 1028 l 1392 1028 l 1392 846 l 804 846 l 804 640 b 1015 738 846 699 918 738 b 1296 425 1192 738 1296 600 b 1010 103 1296 221 1176 103 b 907 117 975 103 940 107 l 907 285 b 951 279 921 281 938 279 b 1075 414 1026 279 1075 333 b 946 551 1075 492 1025 551 b 804 376 850 551 804 475 l 804 0 l 586 0 l 586 300 b 393 222 543 251 479 222 b 94 569 196 222 94 369 l 94 846 l -24 846 m 315 -103 b 189 21 244 -103 189 -49 b 315 150 189 93 244 150 b 443 21 388 150 443 93 b 315 -103 443 -49 388 -103 "},"ऱ":{"ha":738,"x_min":0,"x_max":0,"o":"m -24 1028 l 761 1028 l 761 846 l 643 846 l 643 772 b 310 417 643 569 564 417 l 303 417 l 303 278 b 388 174 303 218 328 174 b 471 272 440 174 471 215 l 471 311 l 681 311 l 681 279 b 392 -12 681 103 575 -12 b 88 289 190 -12 88 119 l 88 592 l 228 592 b 425 772 376 592 425 661 l 425 846 l -24 846 m 150 -294 b 24 -171 79 -294 24 -240 b 150 -42 24 -99 79 -42 b 278 -171 222 -42 278 -99 b 150 -294 278 -240 222 -294 "},"ं":{"ha":0,"x_min":0,"x_max":0,"o":"m -224 1129 b -350 1256 -294 1129 -350 1186 b -224 1382 -350 1326 -294 1382 b -96 1256 -153 1382 -96 1326 b -224 1129 -96 1186 -153 1129 "},"ँ":{"ha":0,"x_min":0,"x_max":0,"o":"m -233 1126 b -565 1419 -449 1126 -565 1239 l -392 1419 b -233 1282 -392 1346 -336 1282 b -75 1419 -131 1282 -75 1346 l 100 1419 b -233 1126 100 1239 -17 1126 m -235 1369 b -318 1454 -281 1369 -318 1407 b -235 1539 -318 1500 -281 1539 b -149 1454 -185 1539 -149 1500 b -235 1369 -149 1407 -185 1369 "},"ः":{"ha":389,"x_min":0,"x_max":0,"o":"m 194 524 b 67 650 124 524 67 581 b 194 776 67 721 124 776 b 322 650 265 776 322 721 b 194 524 322 581 265 524 m 194 121 b 67 247 124 121 67 176 b 194 374 67 318 124 374 b 322 247 265 374 322 318 b 194 121 322 176 265 121 "},"ऽ":{"ha":829,"x_min":0,"x_max":0,"o":"m 79 247 l 406 247 b 481 301 456 247 481 268 b 167 735 481 410 167 492 b 401 933 167 868 265 933 l 717 933 l 717 750 l 456 750 b 389 701 422 750 389 742 b 703 268 389 593 703 513 b 463 64 703 142 604 64 l 79 64 "},"्":{"ha":0,"x_min":0,"x_max":0,"o":"m -326 -76 l -110 -76 l 76 -386 l -147 -386 "},"़":{"ha":0,"x_min":0,"x_max":0,"o":"m -393 -364 b -519 -240 -464 -364 -519 -310 b -393 -111 -519 -168 -464 -111 b -265 -240 -321 -111 -265 -168 b -393 -364 -265 -310 -321 -364 "},"०":{"ha":906,"x_min":0,"x_max":0,"o":"m 63 521 b 453 1035 63 818 164 1035 b 843 521 742 1035 843 818 b 453 4 843 221 742 4 b 63 521 164 4 63 221 m 610 521 b 453 813 610 676 593 813 b 296 521 313 813 296 676 b 453 226 296 360 313 226 b 610 521 593 226 610 360 "},"१":{"ha":522,"x_min":0,"x_max":0,"o":"m 175 793 l 38 793 l 38 1014 l 422 1014 l 422 0 l 175 0 "},"२":{"ha":793,"x_min":0,"x_max":0,"o":"m 54 190 b 499 715 269 368 499 544 b 393 836 499 789 465 836 b 281 685 322 836 281 781 l 51 685 b 403 1036 58 931 218 1036 b 736 731 633 1036 736 901 b 376 207 736 508 538 331 l 751 207 l 751 14 l 54 14 "},"३":{"ha":840,"x_min":0,"x_max":0,"o":"m 71 728 b 417 1038 79 928 210 1038 b 746 763 631 1038 746 915 b 593 535 746 629 663 558 l 593 529 b 764 285 694 496 764 418 b 429 -8 764 114 642 -8 b 58 321 218 -8 65 92 l 289 321 b 421 189 290 242 333 189 b 535 303 494 189 535 236 b 357 429 535 393 481 429 l 313 429 l 313 622 l 357 622 b 515 733 438 622 515 642 b 411 839 515 801 475 839 b 303 728 335 839 307 783 l 71 728 "},"४":{"ha":940,"x_min":0,"x_max":0,"o":"m 535 181 l 68 181 l 68 372 l 507 1000 l 772 1000 l 772 386 l 886 386 l 886 181 l 772 181 l 772 0 l 535 0 m 551 386 l 551 739 l 318 386 "},"५":{"ha":903,"x_min":0,"x_max":0,"o":"m 776 1015 l 776 807 l 343 807 l 343 615 b 529 685 379 656 449 685 b 835 353 750 685 835 517 b 485 0 835 139 710 0 b 117 301 257 0 125 126 l 349 301 b 476 201 358 249 399 201 b 606 354 567 201 606 267 b 475 494 606 446 560 494 b 357 411 408 494 369 458 l 128 411 l 128 1015 "},"६":{"ha":885,"x_min":0,"x_max":0,"o":"m 564 740 b 446 843 550 807 517 843 b 296 557 339 843 297 753 b 511 661 336 622 418 661 b 813 335 688 661 813 546 b 467 -6 813 133 685 -6 b 86 514 161 -6 86 211 b 457 1035 86 861 194 1035 b 785 740 675 1035 772 890 m 454 474 b 315 338 379 474 315 429 b 457 196 315 249 367 196 b 589 333 538 196 589 247 b 454 474 589 418 543 474 "},"७":{"ha":743,"x_min":0,"x_max":0,"o":"m 710 1013 l 710 836 l 361 0 l 118 0 l 471 810 l 39 810 l 39 1013 "},"८":{"ha":900,"x_min":0,"x_max":0,"o":"m 229 544 b 99 763 151 586 99 656 b 450 1035 99 907 211 1035 b 800 763 689 1035 800 907 b 669 544 800 658 746 585 b 825 297 768 497 825 413 b 450 -19 825 94 657 -19 b 75 297 243 -19 75 94 b 229 544 75 413 132 499 m 450 608 b 569 726 518 608 569 653 b 450 846 569 803 521 846 b 331 725 379 846 331 803 b 450 608 331 651 382 608 m 450 442 b 304 308 365 442 304 394 b 450 175 304 232 358 175 b 593 308 540 175 593 233 b 450 442 593 392 535 442 "},"९":{"ha":854,"x_min":0,"x_max":0,"o":"m 318 297 b 446 188 332 226 372 188 b 581 465 546 188 581 272 b 379 375 540 408 465 375 b 72 699 206 375 72 483 b 421 1038 72 904 206 1038 b 790 533 710 1038 790 842 b 438 -4 790 188 710 -4 b 99 297 217 -4 110 142 m 433 563 b 561 694 511 563 561 613 b 428 833 561 785 508 833 b 296 696 346 833 296 781 b 433 563 296 619 340 563 "},"ॐ":{"ha":1489,"x_min":0,"x_max":0,"o":"m 419 14 b 94 307 221 14 94 132 l 299 307 b 407 201 299 249 340 201 b 513 310 474 201 513 246 b 383 424 513 368 475 424 l 321 424 l 321 607 l 383 607 b 503 708 457 607 503 650 b 404 808 503 771 460 808 b 306 715 347 808 306 772 l 103 715 b 408 994 103 882 225 994 b 700 738 586 994 700 893 b 553 525 700 635 649 556 l 553 519 b 578 511 561 517 571 514 l 657 511 b 792 647 750 511 792 539 b 1086 947 792 835 868 947 b 1390 604 1304 947 1390 824 l 1390 436 b 1015 22 1390 165 1258 22 b 874 36 969 22 925 26 l 874 217 b 975 207 911 211 946 207 b 1178 443 1135 207 1178 299 l 1178 633 b 1086 764 1178 713 1156 764 b 996 644 1018 764 996 711 b 710 342 996 432 926 346 b 714 288 713 324 714 306 b 419 14 714 119 593 14 m 781 1008 b 449 1301 564 1008 449 1119 l 621 1301 b 781 1164 621 1226 678 1164 b 939 1301 882 1164 939 1226 l 1114 1301 b 781 1008 1114 1119 997 1008 m 779 1251 b 696 1335 733 1251 696 1288 b 779 1421 696 1383 733 1421 b 864 1335 828 1421 864 1383 b 779 1251 864 1288 828 1251 "},"॰":{"ha":661,"x_min":0,"x_max":0,"o":"m 333 700 b 569 467 472 700 569 604 b 333 235 569 331 472 235 b 92 467 192 235 92 331 b 333 700 92 604 192 700 m 333 571 b 224 467 269 571 224 528 b 333 364 224 406 269 364 b 436 467 393 364 436 406 b 333 571 436 526 393 571 "},"।":{"ha":478,"x_min":0,"x_max":0,"o":"m 421 0 l 204 0 l 204 1028 l 421 1028 "},"॥":{"ha":857,"x_min":0,"x_max":0,"o":"m 421 0 l 204 0 l 204 1028 l 421 1028 m 799 0 l 582 0 l 582 1028 l 799 1028 "},"₨":{"ha":1653,"x_min":0,"x_max":0,"o":"m 601 658 b 471 781 601 732 560 781 l 324 781 l 324 538 l 471 538 b 601 658 560 538 601 582 m 485 975 b 843 669 724 975 843 839 b 618 388 843 544 774 428 l 851 0 l 582 0 l 371 371 l 324 371 l 324 0 l 86 0 l 86 975 m 903 546 b 1225 786 903 675 1017 786 b 1571 522 1431 786 1550 678 l 1335 522 b 1217 607 1326 578 1281 607 b 1121 543 1157 607 1121 581 b 1579 228 1121 414 1579 513 b 1265 -11 1579 90 1460 -11 b 907 253 1063 -11 929 82 l 1143 253 b 1264 168 1149 194 1200 168 b 1360 232 1329 168 1360 194 b 903 546 1360 365 903 261 "},"₹":{"ha":831,"x_min":0,"x_max":0,"o":"m 53 975 l 788 975 l 788 815 l 669 815 l 669 732 l 788 732 l 788 588 l 661 588 b 301 335 632 428 528 335 l 301 279 b 394 165 301 214 322 165 b 485 282 463 165 485 207 l 704 282 b 400 -14 697 99 597 -14 b 79 311 196 -14 79 90 l 79 490 b 440 588 342 490 418 499 l 53 588 l 53 732 l 447 732 l 447 815 l 53 815 "},"‌":{"ha":0,"x_min":0,"x_max":0,"o":"m -32 -319 l -32 1126 l 33 1126 l 33 -319 "},"‍":{"ha":0,"x_min":0,"x_max":0,"o":"m 132 778 l 32 882 l 32 -319 l -33 -319 l -33 882 l -129 781 l -175 826 l -46 956 l -178 1088 l -132 1133 l 0 1001 l 133 1133 l 178 1089 l 44 956 l 178 824 "},"◌":{"ha":904,"x_min":0,"x_max":0,"o":"m 774 568 b 714 510 774 533 749 510 b 654 568 679 510 654 533 b 714 626 654 603 679 626 b 774 568 749 626 774 603 m 251 171 b 192 113 251 136 226 113 b 132 171 157 113 132 136 b 192 229 132 206 157 229 b 251 171 226 229 251 206 m 388 65 b 328 7 388 31 363 7 b 268 65 293 7 268 31 b 328 124 268 100 293 124 b 388 65 363 124 388 100 m 189 328 b 129 269 189 293 164 269 b 69 328 94 269 69 293 b 129 386 69 363 94 386 b 189 328 164 386 189 363 m 560 46 b 500 -12 560 11 535 -12 b 440 46 465 -12 440 11 b 500 104 440 81 465 104 b 560 46 535 104 560 81 m 210 496 b 150 438 210 461 185 438 b 90 496 115 438 90 461 b 150 554 90 531 115 554 b 210 496 185 554 210 531 m 719 110 b 660 51 719 75 694 51 b 600 110 625 51 600 75 b 660 168 600 144 625 168 b 719 110 694 168 719 144 m 315 633 b 256 575 315 599 290 575 b 196 633 221 575 196 599 b 256 692 196 668 221 692 b 315 633 290 692 315 668 m 821 243 b 761 185 821 208 796 185 b 701 243 726 185 701 208 b 761 301 701 278 726 301 b 821 243 796 301 821 278 m 478 692 b 418 633 478 657 453 633 b 358 692 383 633 358 657 b 418 750 358 726 383 750 b 478 692 453 750 478 726 m 835 410 b 775 351 835 375 810 351 b 715 410 740 351 715 375 b 775 468 715 444 740 468 b 835 410 810 468 835 444 m 646 671 b 586 613 646 636 621 613 b 526 671 551 613 526 636 b 586 729 526 706 551 729 b 646 671 621 729 646 706 "},"!":{"ha":544,"x_min":0,"x_max":0,"o":"m 142 1010 l 399 1010 l 371 344 l 169 344 m 414 117 b 274 -11 414 46 357 -11 b 132 117 189 -11 132 46 b 274 247 132 190 189 247 b 414 117 357 247 414 190 "},"\"":{"ha":571,"x_min":0,"x_max":0,"o":"m 56 1111 l 251 1111 l 233 804 l 74 804 m 319 1111 l 515 1111 l 497 804 l 338 804 "},"#":{"ha":1256,"x_min":0,"x_max":0,"o":"m 771 608 l 540 608 l 501 426 l 732 426 m 686 213 l 456 213 l 410 0 l 188 0 l 233 213 l 28 213 l 28 426 l 279 426 l 318 608 l 117 608 l 117 822 l 363 822 l 407 1028 l 629 1028 l 585 822 l 815 822 l 860 1028 l 1082 1028 l 1038 822 l 1210 822 l 1210 608 l 993 608 l 954 426 l 1121 426 l 1121 213 l 908 213 l 863 0 l 640 0 "},"$":{"ha":914,"x_min":0,"x_max":0,"o":"m 396 -7 b 63 288 207 10 69 108 l 315 288 b 396 181 321 231 349 196 l 396 400 b 61 699 247 439 61 481 b 396 988 61 872 207 975 l 396 1100 l 485 1100 l 485 988 b 810 699 675 972 797 875 l 556 699 b 485 796 550 750 524 782 l 485 581 b 824 283 633 539 824 499 b 485 -8 824 133 704 1 l 485 -121 l 396 -121 m 575 275 b 485 374 575 325 539 353 l 485 176 b 575 275 540 186 575 224 m 313 710 b 396 610 313 661 346 632 l 396 803 b 313 710 344 794 313 764 "},"%":{"ha":1208,"x_min":0,"x_max":0,"o":"m 43 758 b 275 993 43 913 143 993 b 506 758 407 993 506 913 b 275 524 506 604 407 524 b 43 758 143 524 43 604 m 274 854 b 207 758 232 854 207 825 b 274 664 207 693 232 664 b 342 758 315 664 342 693 b 274 854 342 825 315 854 m 757 978 l 986 978 l 451 0 l 222 0 m 704 219 b 935 454 704 375 803 454 b 1165 219 1067 454 1165 375 b 935 -15 1165 65 1067 -15 b 704 219 803 -15 704 65 m 933 315 b 867 219 892 315 867 285 b 933 125 867 154 892 125 b 1001 219 975 125 1001 154 b 933 315 1001 285 975 315 "},"&":{"ha":1108,"x_min":0,"x_max":0,"o":"m 554 739 b 482 817 556 792 524 817 b 404 747 438 817 404 789 b 482 613 404 707 431 667 l 719 381 b 738 419 725 393 732 406 l 789 507 l 1026 507 l 960 386 b 874 231 933 328 904 276 l 1108 0 l 832 0 l 742 88 b 419 -15 653 19 547 -15 b 50 283 193 -15 50 103 b 249 571 50 403 114 507 b 181 746 199 631 181 683 b 485 994 181 883 290 994 b 778 739 683 994 782 874 m 431 176 b 596 229 494 176 549 194 l 379 439 b 279 300 313 404 279 356 b 431 176 279 232 336 176 "},"'":{"ha":307,"x_min":0,"x_max":0,"o":"m 56 1111 l 251 1111 l 233 804 l 74 804 "},"(":{"ha":663,"x_min":0,"x_max":0,"o":"m 406 -290 b 121 483 226 -118 121 169 b 419 1268 121 797 226 1092 l 653 1268 l 653 1246 b 349 483 454 1050 349 763 b 640 -268 349 201 454 -75 l 640 -290 "},")":{"ha":663,"x_min":0,"x_max":0,"o":"m 257 -290 b 542 483 436 -118 542 169 b 243 1268 542 797 436 1092 l 10 1268 l 10 1246 b 314 483 208 1050 314 763 b 22 -268 314 201 208 -75 l 22 -290 "},"*":{"ha":742,"x_min":0,"x_max":0,"o":"m 421 844 l 565 965 l 643 824 l 472 764 l 643 706 l 560 558 l 421 681 l 456 500 l 293 500 l 326 681 l 189 557 l 103 707 l 274 767 l 104 822 l 183 965 l 328 844 l 292 1028 l 457 1028 "},"+":{"ha":872,"x_min":0,"x_max":0,"o":"m 549 840 l 549 592 l 790 592 l 790 379 l 549 379 l 549 132 l 324 132 l 324 379 l 82 379 l 82 592 l 324 592 l 324 840 "},",":{"ha":403,"x_min":0,"x_max":0,"o":"m 115 240 l 358 240 l 182 -210 l 26 -210 "},"-":{"ha":806,"x_min":0,"x_max":0,"o":"m 72 586 l 683 586 l 683 389 l 72 389 "},".":{"ha":392,"x_min":0,"x_max":0,"o":"m 338 117 b 197 -11 338 46 281 -11 b 56 117 113 -11 56 46 b 197 247 56 190 113 247 b 338 117 281 247 338 190 "},"/":{"ha":629,"x_min":0,"x_max":0,"o":"m 386 1319 l 615 1319 l 243 -260 l 14 -260 "},":":{"ha":394,"x_min":0,"x_max":0,"o":"m 338 117 b 197 -11 338 46 281 -11 b 56 117 113 -11 56 46 b 197 247 56 190 113 247 b 338 117 281 247 338 190 m 338 682 b 197 554 338 611 281 554 b 56 682 113 554 56 611 b 197 813 56 756 113 813 b 338 682 281 813 338 756 "},";":{"ha":482,"x_min":0,"x_max":0,"o":"m 378 671 b 238 543 378 600 321 543 b 96 671 153 543 96 600 b 238 801 96 744 153 801 b 378 671 321 801 378 744 m 149 240 l 392 240 l 215 -210 l 60 -210 "},"<":{"ha":765,"x_min":0,"x_max":0,"o":"m 660 179 l 361 179 l 79 486 l 361 793 l 660 793 l 376 486 "},"=":{"ha":967,"x_min":0,"x_max":0,"o":"m 94 414 l 872 414 l 872 204 l 94 204 m 94 768 l 872 768 l 872 558 l 94 558 "},">":{"ha":751,"x_min":0,"x_max":0,"o":"m 371 486 l 88 793 l 386 793 l 668 486 l 386 179 l 88 179 "},"?":{"ha":747,"x_min":0,"x_max":0,"o":"m 39 729 b 371 1029 35 896 151 1029 b 699 732 564 1029 699 925 b 388 454 699 553 569 456 l 381 350 l 172 350 l 165 608 l 249 608 b 468 733 379 608 469 632 b 368 835 468 796 429 835 b 263 729 300 835 263 793 l 39 729 m 419 117 b 279 -11 419 46 363 -11 b 138 117 194 -11 138 46 b 279 247 138 190 194 247 b 419 117 363 247 419 190 "},"@":{"ha":1500,"x_min":0,"x_max":0,"o":"m 1047 -7 b 861 104 949 -7 883 35 b 628 -10 810 32 725 -10 b 407 221 490 -10 407 78 b 729 610 407 424 539 610 b 888 526 808 610 861 579 l 900 600 l 1092 600 l 1031 251 b 1081 146 1019 188 1026 146 b 1218 428 1176 146 1218 297 b 835 768 1218 639 1078 768 b 281 203 517 768 281 518 b 653 -151 281 -21 418 -151 b 899 -101 742 -151 829 -133 l 936 -253 b 631 -312 844 -293 742 -312 b 101 185 311 -312 101 -118 b 858 928 101 611 425 928 b 1399 435 1192 928 1399 726 b 1047 -7 1399 203 1275 -7 m 853 333 b 754 440 853 396 817 440 b 613 263 671 440 613 357 b 706 161 613 203 643 161 b 853 333 785 161 853 239 "},"A":{"ha":1024,"x_min":0,"x_max":0,"o":"m 693 172 l 329 172 l 271 0 l 22 0 l 375 975 l 650 975 l 1003 0 l 751 0 m 511 713 l 392 356 l 632 356 "},"B":{"ha":915,"x_min":0,"x_max":0,"o":"m 624 297 b 496 407 624 367 575 407 l 324 407 l 324 192 l 499 192 b 624 297 578 192 624 228 m 600 682 b 479 785 600 749 557 785 l 324 785 l 324 581 l 479 581 b 600 682 557 581 600 615 m 864 265 b 540 0 864 104 746 0 l 86 0 l 86 975 l 525 975 b 842 722 724 975 842 876 b 676 500 842 604 771 528 b 864 265 790 476 864 376 "},"C":{"ha":1058,"x_min":0,"x_max":0,"o":"m 46 489 b 536 986 46 781 249 986 b 999 644 768 986 943 856 l 738 644 b 533 769 697 728 624 769 b 288 489 388 769 288 661 b 533 208 288 317 388 208 b 738 333 624 208 697 250 l 999 333 b 536 -7 943 122 768 -7 b 46 489 249 -7 46 197 "},"D":{"ha":1010,"x_min":0,"x_max":0,"o":"m 451 975 b 963 488 763 975 963 778 b 451 0 963 199 763 0 l 86 0 l 86 975 l 451 975 m 436 206 b 721 488 615 206 721 308 b 436 772 721 667 615 772 l 324 772 l 324 206 "},"E":{"ha":751,"x_min":0,"x_max":0,"o":"m 683 785 l 324 785 l 324 588 l 642 588 l 642 404 l 324 404 l 324 190 l 683 190 l 683 0 l 86 0 l 86 975 l 683 975 "},"F":{"ha":760,"x_min":0,"x_max":0,"o":"m 86 975 l 721 975 l 721 785 l 324 785 l 324 579 l 621 579 l 621 394 l 324 394 l 324 0 l 86 0 "},"G":{"ha":1058,"x_min":0,"x_max":0,"o":"m 542 986 b 996 667 775 986 944 867 l 733 667 b 542 767 697 732 631 767 b 288 489 389 767 288 658 b 561 203 288 308 390 203 b 797 375 679 203 761 265 l 496 375 l 496 550 l 1013 550 l 1013 329 b 543 -7 963 161 800 -7 b 46 489 251 -7 46 197 b 542 986 46 781 250 986 "},"H":{"ha":1015,"x_min":0,"x_max":0,"o":"m 693 401 l 324 401 l 324 0 l 86 0 l 86 975 l 324 975 l 324 593 l 693 593 l 693 975 l 931 975 l 931 0 l 693 0 "},"I":{"ha":410,"x_min":0,"x_max":0,"o":"m 86 975 l 324 975 l 324 0 l 86 0 "},"J":{"ha":803,"x_min":0,"x_max":0,"o":"m 460 975 l 697 975 l 697 311 b 376 -10 697 101 569 -10 b 36 326 176 -10 36 107 l 272 326 b 369 203 272 243 308 203 b 460 311 426 203 460 239 "},"K":{"ha":968,"x_min":0,"x_max":0,"o":"m 324 431 l 324 0 l 86 0 l 86 975 l 324 975 l 324 547 l 649 975 l 928 975 l 550 497 l 942 0 l 651 0 "},"L":{"ha":663,"x_min":0,"x_max":0,"o":"m 324 975 l 324 183 l 635 183 l 635 0 l 86 0 l 86 975 "},"M":{"ha":1275,"x_min":0,"x_max":0,"o":"m 86 975 l 367 975 l 640 300 l 911 975 l 1190 975 l 1190 0 l 953 0 l 953 585 l 735 0 l 543 0 l 324 586 l 324 0 l 86 0 "},"N":{"ha":1044,"x_min":0,"x_max":0,"o":"m 958 975 l 958 0 l 721 0 l 324 601 l 324 0 l 86 0 l 86 975 l 324 975 l 721 371 l 721 975 "},"O":{"ha":1092,"x_min":0,"x_max":0,"o":"m 1046 490 b 547 -10 1046 197 824 -10 b 46 490 271 -10 46 197 b 547 989 46 783 271 989 b 1046 490 825 989 1046 783 m 289 490 b 547 207 289 319 389 207 b 804 490 703 207 804 319 b 547 774 804 664 703 774 b 289 490 389 774 289 664 "},"P":{"ha":867,"x_min":0,"x_max":0,"o":"m 453 539 b 588 661 547 539 588 586 b 453 783 588 736 547 783 l 324 783 l 324 539 m 829 661 b 471 350 829 500 719 350 l 324 350 l 324 0 l 86 0 l 86 975 l 471 975 b 829 661 710 975 829 840 "},"Q":{"ha":1094,"x_min":0,"x_max":0,"o":"m 289 490 b 547 207 289 319 389 207 b 804 490 703 207 804 319 b 547 774 804 664 703 774 b 289 490 389 774 289 664 m 1046 490 b 854 90 1046 319 971 179 l 1068 -167 l 781 -167 l 656 1 b 547 -10 621 -6 585 -10 b 46 490 271 -10 46 197 b 547 989 46 783 271 989 b 1046 490 825 989 1046 783 "},"R":{"ha":906,"x_min":0,"x_max":0,"o":"m 601 658 b 471 778 601 731 560 778 l 324 778 l 324 536 l 471 536 b 601 658 560 536 601 582 m 485 975 b 843 668 724 975 843 838 b 626 386 843 546 776 431 l 851 0 l 583 0 l 381 368 l 324 368 l 324 0 l 86 0 l 86 975 "},"S":{"ha":854,"x_min":0,"x_max":0,"o":"m 794 290 b 439 -10 794 126 667 -10 b 58 292 229 -10 65 94 l 311 292 b 432 181 318 217 365 181 b 546 272 501 181 546 215 b 61 701 546 453 58 356 b 417 989 61 886 213 989 b 782 697 629 989 772 883 l 525 697 b 413 799 521 760 476 797 b 313 710 356 800 313 771 b 794 290 313 540 794 617 "},"T":{"ha":821,"x_min":0,"x_max":0,"o":"m 33 975 l 788 975 l 788 785 l 529 785 l 529 0 l 292 0 l 292 785 l 33 785 "},"U":{"ha":979,"x_min":0,"x_max":0,"o":"m 82 975 l 319 975 l 319 392 b 489 210 319 276 376 210 b 661 392 601 210 661 276 l 661 975 l 899 975 l 899 393 b 485 -10 899 124 710 -10 b 82 393 258 -10 82 124 "},"V":{"ha":1014,"x_min":0,"x_max":0,"o":"m 750 975 l 1001 975 l 656 0 l 358 0 l 13 975 l 265 975 l 507 239 "},"W":{"ha":1461,"x_min":0,"x_max":0,"o":"m 35 975 l 289 975 l 429 265 l 603 975 l 864 975 l 1031 265 l 1172 975 l 1428 975 l 1174 0 l 886 0 l 731 642 l 569 0 l 282 0 "},"X":{"ha":993,"x_min":0,"x_max":0,"o":"m 485 299 l 310 0 l 40 0 l 353 496 l 33 975 l 310 975 l 506 681 l 678 975 l 947 975 l 638 483 l 960 0 l 683 0 "},"Y":{"ha":932,"x_min":0,"x_max":0,"o":"m 10 975 l 279 975 l 468 567 l 656 975 l 922 975 l 585 322 l 585 0 l 347 0 l 347 322 "},"Z":{"ha":828,"x_min":0,"x_max":0,"o":"m 758 794 l 339 194 l 758 194 l 758 0 l 69 0 l 69 181 l 486 781 l 69 781 l 69 975 l 758 975 "},"[":{"ha":708,"x_min":0,"x_max":0,"o":"m 167 1268 l 583 1268 l 583 1076 l 389 1076 l 389 -97 l 583 -97 l 583 -290 l 167 -290 "},"\\":{"ha":1114,"x_min":0,"x_max":0,"o":"m 856 -260 l 626 -260 l 254 1319 l 483 1319 "},"]":{"ha":708,"x_min":0,"x_max":0,"o":"m 542 1268 l 125 1268 l 125 1076 l 319 1076 l 319 -97 l 125 -97 l 125 -290 l 542 -290 "},"^":{"ha":985,"x_min":0,"x_max":0,"o":"m 493 703 l 281 229 l 42 229 l 378 978 l 608 978 l 943 229 l 704 229 "},"_":{"ha":1083,"x_min":0,"x_max":0,"o":"m 118 -57 l 979 -57 l 979 -285 l 118 -285 "},"`":{"ha":404,"x_min":0,"x_max":0,"o":"m 14 1153 l 349 992 l 349 828 l 14 968 "},"a":{"ha":943,"x_min":0,"x_max":0,"o":"m 39 389 b 381 786 39 633 190 786 b 619 665 496 786 578 733 l 619 775 l 857 775 l 857 0 l 619 0 l 619 110 b 379 -11 576 42 494 -11 b 39 389 190 -11 39 144 m 619 388 b 450 579 619 511 540 579 b 281 389 361 579 281 513 b 450 196 281 265 361 196 b 619 388 540 196 619 264 "},"b":{"ha":943,"x_min":0,"x_max":0,"o":"m 324 665 b 563 786 367 735 451 786 b 904 389 754 786 904 633 b 563 -11 904 144 753 -11 b 324 108 449 -11 367 40 l 324 0 l 86 0 l 86 1028 l 324 1028 l 324 665 m 663 389 b 492 579 663 513 582 579 b 322 388 403 579 322 511 b 492 196 322 264 403 196 b 663 389 582 196 663 265 "},"c":{"ha":840,"x_min":0,"x_max":0,"o":"m 39 388 b 428 786 39 632 200 786 b 800 494 622 786 760 679 l 547 494 b 424 583 528 549 489 583 b 281 388 339 583 281 517 b 424 192 281 258 339 192 b 547 281 489 192 526 224 l 800 281 b 428 -11 760 101 622 -11 b 39 388 200 -11 39 142 "},"d":{"ha":943,"x_min":0,"x_max":0,"o":"m 39 389 b 381 786 39 633 190 786 b 619 668 483 786 572 739 l 619 1028 l 857 1028 l 857 0 l 619 0 l 619 111 b 381 -11 576 40 494 -11 b 39 389 190 -11 39 144 m 619 388 b 450 579 619 511 540 579 b 281 389 361 579 281 513 b 450 196 281 265 361 196 b 619 388 540 196 619 264 "},"e":{"ha":856,"x_min":0,"x_max":0,"o":"m 428 596 b 276 463 350 596 290 549 l 574 463 b 428 596 574 547 507 596 m 799 257 b 431 -11 761 106 624 -11 b 39 388 203 -11 39 142 b 431 786 39 633 200 786 b 817 400 657 786 817 636 b 813 331 817 378 815 354 l 275 331 b 422 182 283 229 346 182 b 546 257 489 182 526 215 l 799 257 "},"f":{"ha":500,"x_min":0,"x_max":0,"o":"m 110 578 l 24 578 l 24 775 l 110 775 l 110 797 b 471 1088 110 1000 235 1100 l 471 886 b 347 782 379 892 347 864 l 347 775 l 475 775 l 475 578 l 347 578 l 347 0 l 110 0 "},"g":{"ha":943,"x_min":0,"x_max":0,"o":"m 39 389 b 381 786 39 633 190 786 b 619 665 494 786 578 735 l 619 775 l 857 775 l 857 1 b 469 -382 857 -206 738 -382 b 68 -81 239 -382 89 -265 l 303 -81 b 458 -176 318 -139 376 -176 b 619 1 549 -176 619 -129 l 619 111 b 381 -11 576 43 494 -11 b 39 389 190 -11 39 144 m 619 388 b 450 579 619 511 540 579 b 281 389 361 579 281 513 b 450 196 281 265 361 196 b 619 388 540 196 619 264 "},"h":{"ha":936,"x_min":0,"x_max":0,"o":"m 86 1028 l 324 1028 l 324 671 b 563 783 371 738 456 783 b 857 453 739 783 857 661 l 857 0 l 621 0 l 621 421 b 472 585 621 526 563 585 b 324 421 382 585 324 526 l 324 0 l 86 0 "},"i":{"ha":410,"x_min":0,"x_max":0,"o":"m 86 775 l 324 775 l 324 0 l 86 0 m 206 856 b 64 983 121 856 64 913 b 206 1113 64 1056 121 1113 b 346 983 289 1113 346 1056 b 206 856 346 913 289 856 "},"j":{"ha":408,"x_min":0,"x_max":0,"o":"m 204 856 b 63 983 119 856 63 913 b 204 1113 63 1056 119 1113 b 344 983 288 1113 344 1056 b 204 856 344 913 288 856 m 324 775 l 324 -100 b 50 -369 324 -301 211 -369 l -43 -369 l -43 -168 l 14 -168 b 86 -103 67 -168 86 -149 l 86 775 "},"k":{"ha":858,"x_min":0,"x_max":0,"o":"m 86 1028 l 324 1028 l 324 460 l 558 775 l 851 775 l 529 386 l 854 0 l 560 0 l 324 325 l 324 0 l 86 0 "},"l":{"ha":410,"x_min":0,"x_max":0,"o":"m 86 1028 l 324 1028 l 324 0 l 86 0 "},"m":{"ha":1471,"x_min":0,"x_max":0,"o":"m 1154 421 b 1006 578 1154 522 1096 578 b 857 421 915 578 857 522 l 857 0 l 621 0 l 621 421 b 472 578 621 522 563 578 b 324 421 382 578 324 522 l 324 0 l 86 0 l 86 775 l 324 775 l 324 678 b 550 783 369 740 449 783 b 814 639 667 783 761 732 b 1075 783 865 721 963 783 b 1390 453 1267 783 1390 661 l 1390 0 l 1154 0 "},"n":{"ha":936,"x_min":0,"x_max":0,"o":"m 621 421 b 472 585 621 526 563 585 b 324 421 382 585 324 526 l 324 0 l 86 0 l 86 775 l 324 775 l 324 672 b 558 783 371 738 454 783 b 857 453 738 783 857 661 l 857 0 l 621 0 "},"o":{"ha":885,"x_min":0,"x_max":0,"o":"m 844 388 b 439 -11 844 142 667 -11 b 39 388 211 -11 39 142 b 442 786 39 633 215 786 b 844 388 669 786 844 633 m 281 388 b 439 194 281 257 353 194 b 603 388 524 194 603 257 b 442 581 603 519 525 581 b 281 388 356 581 281 519 "},"p":{"ha":943,"x_min":0,"x_max":0,"o":"m 324 665 b 563 786 367 733 449 786 b 904 389 753 786 904 633 b 563 -11 904 144 753 -11 b 324 108 449 -11 367 43 l 324 -369 l 86 -369 l 86 775 l 324 775 l 324 665 m 663 389 b 492 579 663 513 582 579 b 322 388 403 579 322 511 b 492 196 322 264 403 196 b 663 389 582 196 663 265 "},"q":{"ha":943,"x_min":0,"x_max":0,"o":"m 39 386 b 393 783 39 622 200 783 b 619 686 494 783 572 744 l 619 775 l 857 775 l 857 -369 l 619 -369 l 619 97 b 390 -10 569 36 493 -10 b 39 386 200 -10 39 150 m 619 388 b 450 578 619 518 531 578 b 281 386 371 578 281 517 b 450 196 281 256 371 196 b 619 388 531 196 619 257 "},"r":{"ha":594,"x_min":0,"x_max":0,"o":"m 324 0 l 86 0 l 86 775 l 324 775 l 324 646 b 567 783 378 728 463 783 l 567 532 l 501 532 b 324 360 389 532 324 493 "},"s":{"ha":775,"x_min":0,"x_max":0,"o":"m 715 225 b 401 -11 715 90 596 -11 b 44 254 194 -11 56 104 l 279 254 b 399 164 285 200 333 164 b 492 226 460 164 492 192 b 69 546 492 351 69 261 b 385 786 69 678 182 786 b 711 522 585 786 696 675 l 492 522 b 378 610 485 575 444 610 b 292 550 322 610 292 588 b 715 225 292 426 711 514 "},"t":{"ha":564,"x_min":0,"x_max":0,"o":"m 124 578 l 29 578 l 29 775 l 124 775 l 124 964 l 361 964 l 361 775 l 517 775 l 517 578 l 361 578 l 361 267 b 433 201 361 221 381 201 l 518 201 l 518 0 l 397 0 b 124 269 236 0 124 68 "},"u":{"ha":936,"x_min":0,"x_max":0,"o":"m 851 0 l 614 0 l 614 106 b 379 -8 567 39 483 -8 b 79 322 200 -8 79 115 l 79 775 l 315 775 l 315 354 b 464 190 315 249 375 190 b 614 354 556 190 614 249 l 614 775 l 851 775 "},"v":{"ha":869,"x_min":0,"x_max":0,"o":"m 267 775 l 435 222 l 603 775 l 856 775 l 581 0 l 288 0 l 13 775 "},"w":{"ha":1203,"x_min":0,"x_max":0,"o":"m 6 775 l 243 775 l 353 221 l 483 775 l 735 775 l 867 224 l 975 775 l 1199 775 l 989 0 l 726 0 l 604 503 l 478 0 l 217 0 "},"x":{"ha":817,"x_min":0,"x_max":0,"o":"m 396 215 l 271 0 l 14 0 l 269 396 l 7 775 l 274 775 l 422 561 l 547 775 l 804 775 l 544 385 l 811 0 l 544 0 "},"y":{"ha":878,"x_min":0,"x_max":0,"o":"m 621 775 l 878 775 l 392 -368 l 136 -368 l 314 26 l -1 775 l 264 775 l 443 290 "},"z":{"ha":689,"x_min":0,"x_max":0,"o":"m 638 586 l 308 196 l 644 196 l 644 0 l 43 0 l 43 189 l 365 579 l 46 579 l 46 775 l 638 775 "},"{":{"ha":693,"x_min":0,"x_max":0,"o":"m 258 288 b 126 394 258 349 219 390 l 126 583 b 258 690 219 588 258 625 b 229 1019 258 776 229 914 b 494 1269 229 1181 336 1269 l 594 1269 l 594 1075 l 540 1075 b 457 996 481 1075 457 1049 b 481 681 457 921 481 778 b 332 490 481 582 435 510 l 332 488 b 481 296 435 467 481 396 b 457 -18 481 199 457 57 b 540 -99 457 -71 481 -99 l 594 -99 l 594 -293 l 494 -293 b 229 -42 336 -293 229 -204 b 258 288 229 64 258 201 "},"|":{"ha":404,"x_min":0,"x_max":0,"o":"m 321 1132 l 321 -179 l 83 -179 l 83 1132 "},"}":{"ha":693,"x_min":0,"x_max":0,"o":"m 435 288 b 567 394 435 349 474 390 l 567 583 b 435 690 474 588 435 625 b 464 1019 435 776 464 914 b 199 1269 464 1181 357 1269 l 99 1269 l 99 1075 l 153 1075 b 236 996 213 1075 236 1049 b 213 681 236 921 213 778 b 361 490 213 582 258 510 l 361 488 b 213 296 258 467 213 396 b 236 -18 213 199 236 57 b 153 -99 236 -71 213 -99 l 99 -99 l 99 -293 l 199 -293 b 464 -42 357 -293 464 -204 b 435 288 464 64 435 201 "},"~":{"ha":883,"x_min":0,"x_max":0,"o":"m 39 289 b 315 590 74 503 178 590 b 582 499 438 590 501 499 b 669 590 629 499 661 526 l 846 590 b 568 289 811 376 706 289 b 301 381 446 289 383 381 b 213 289 254 381 222 351 l 39 289 "}," ":{"ha":294,"x_min":0,"x_max":0,"o":""},"¡":{"ha":544,"x_min":0,"x_max":0,"o":"m 142 -226 l 399 -226 l 371 439 l 169 439 m 414 667 b 274 794 414 738 357 794 b 132 667 189 794 132 738 b 274 536 132 593 189 536 b 414 667 357 536 414 593 "},"¢":{"ha":876,"x_min":0,"x_max":0,"o":"m 781 264 b 476 -6 768 107 639 8 l 476 -118 l 388 -118 l 388 -4 b 58 356 179 14 58 151 b 388 715 58 560 179 697 l 388 829 l 476 829 l 476 717 b 781 447 639 703 768 604 l 563 447 b 436 526 544 500 500 526 b 285 356 342 526 285 463 b 436 185 285 249 342 185 b 563 264 500 185 547 214 l 781 264 "},"£":{"ha":921,"x_min":0,"x_max":0,"o":"m 136 732 b 472 1038 136 925 275 1038 b 811 722 696 1038 804 899 l 593 722 b 478 843 590 792 558 843 b 361 708 406 843 361 800 b 392 558 361 661 376 610 l 643 558 l 643 399 l 426 399 l 426 394 b 335 181 426 332 404 243 l 817 181 l 817 -6 l 108 -6 l 75 111 b 201 396 160 186 201 264 l 201 399 l 50 399 l 50 558 l 163 558 b 136 732 149 608 136 665 "},"¤":{"ha":801,"x_min":0,"x_max":0,"o":"m 504 524 b 401 638 504 603 456 638 b 300 524 349 638 300 603 b 401 411 300 446 347 411 b 504 524 454 411 504 446 m 538 297 b 401 272 497 281 451 272 b 264 297 350 272 304 281 l 175 208 l 83 301 l 160 378 b 114 525 131 418 114 468 b 161 674 114 583 131 633 l 83 751 l 175 844 l 268 751 b 403 775 308 767 353 775 b 535 753 451 775 496 767 l 626 844 l 718 751 l 643 676 b 692 525 674 636 692 585 b 643 376 692 467 674 417 l 718 301 l 626 208 "},"¥":{"ha":932,"x_min":0,"x_max":0,"o":"m 585 186 l 585 0 l 347 0 l 347 186 l 69 186 l 69 344 l 336 344 l 292 429 l 69 431 l 69 590 l 208 590 l 10 975 l 279 975 l 468 543 l 656 975 l 922 975 l 724 590 l 863 590 l 863 431 l 640 429 l 596 344 l 863 344 l 863 186 "},"¦":{"ha":529,"x_min":0,"x_max":0,"o":"m 383 390 l 383 -179 l 146 -179 l 146 390 m 146 563 l 146 1132 l 383 1132 l 383 563 "},"§":{"ha":815,"x_min":0,"x_max":0,"o":"m 92 740 b 411 989 92 882 208 989 b 724 726 600 989 717 885 l 489 726 b 408 822 485 793 457 822 b 331 754 360 822 331 801 b 543 596 331 697 379 667 b 774 339 688 533 774 456 b 625 131 774 251 733 181 b 724 -62 689 78 724 13 b 404 -311 724 -204 607 -311 b 92 -49 215 -311 99 -207 l 326 -49 b 407 -144 331 -115 358 -144 b 485 -76 456 -144 485 -124 b 272 82 485 -19 436 11 b 42 339 128 144 42 222 b 190 547 42 426 82 506 b 92 740 125 601 92 665 m 524 339 b 408 447 524 399 481 447 b 293 339 336 447 293 399 b 408 231 293 279 336 231 b 524 339 481 231 524 279 "},"¨":{"ha":510,"x_min":0,"x_max":0,"o":"m 115 861 b 14 963 58 861 14 906 b 115 1065 14 1021 58 1065 b 218 963 174 1065 218 1021 b 115 861 218 906 174 861 m 393 861 b 292 963 336 861 292 906 b 393 1065 292 1021 336 1065 b 496 963 451 1065 496 1021 b 393 861 496 906 451 861 "},"©":{"ha":1082,"x_min":0,"x_max":0,"o":"m 53 490 b 542 989 53 783 251 989 b 1031 490 832 989 1031 783 b 542 -10 1031 197 832 -10 b 53 490 251 -10 53 197 m 947 490 b 542 911 947 747 792 911 b 136 490 292 911 136 747 b 542 68 136 236 292 68 b 947 490 792 68 947 236 m 833 575 b 543 803 804 717 690 803 b 235 490 364 803 235 682 b 543 178 235 299 364 178 b 833 406 690 178 804 268 l 629 406 b 536 338 615 367 589 338 b 426 490 469 338 426 389 b 536 643 426 593 469 643 b 629 575 585 643 617 615 l 833 575 "},"ª":{"ha":651,"x_min":0,"x_max":0,"o":"m 269 485 b 35 736 138 485 35 581 b 265 988 35 892 138 988 b 431 919 346 988 397 960 l 431 981 l 610 981 l 610 492 l 431 492 l 431 550 b 269 485 399 511 347 485 m 325 846 b 219 735 269 846 219 807 b 325 625 219 663 269 625 b 431 736 381 625 431 664 b 325 846 431 808 381 846 "},"«":{"ha":774,"x_min":0,"x_max":0,"o":"m 399 167 l 179 167 l 63 410 l 179 653 l 399 653 l 278 410 m 711 167 l 492 167 l 375 410 l 492 653 l 711 653 l 590 410 "},"¬":{"ha":996,"x_min":0,"x_max":0,"o":"m 65 614 l 919 614 l 919 250 l 682 250 l 682 433 l 65 433 "},"­":{"ha":806,"x_min":0,"x_max":0,"o":"m 72 586 l 683 586 l 683 389 l 72 389 "},"®":{"ha":714,"x_min":0,"x_max":0,"o":"m 357 913 b 138 690 222 913 138 824 b 357 468 138 558 222 468 b 576 690 490 468 576 558 b 357 913 576 824 490 913 m 357 390 b 54 690 181 390 54 515 b 357 990 54 867 181 990 b 658 690 533 990 658 867 b 357 390 658 515 533 390 m 492 746 b 438 661 492 707 471 676 l 508 547 l 394 547 l 339 650 l 331 650 l 331 547 l 231 547 l 231 842 l 385 842 b 492 746 449 842 492 804 m 329 758 l 329 718 l 368 718 b 390 739 381 718 390 724 b 368 758 390 753 381 758 "},"¯":{"ha":583,"x_min":0,"x_max":0,"o":"m 14 1036 l 569 1036 l 569 872 l 14 872 "},"°":{"ha":643,"x_min":0,"x_max":0,"o":"m 35 735 b 322 985 35 890 153 985 b 608 735 492 985 608 890 b 324 482 608 581 493 482 b 35 735 154 482 35 581 m 425 733 b 322 857 425 819 372 857 b 218 733 271 857 218 819 b 324 611 218 649 272 611 b 425 733 374 611 425 649 "},"±":{"ha":874,"x_min":0,"x_max":0,"o":"m 550 869 l 550 707 l 792 707 l 792 496 l 550 496 l 550 364 l 792 364 l 792 154 l 83 154 l 83 364 l 325 364 l 325 496 l 83 496 l 83 707 l 325 707 l 325 869 "},"²":{"ha":532,"x_min":0,"x_max":0,"o":"m 47 814 b 285 992 53 918 139 992 b 490 838 428 992 490 913 b 326 669 490 769 442 725 l 242 628 l 483 628 l 483 489 l 54 489 l 54 622 l 224 725 b 301 825 275 757 301 789 b 267 864 301 849 288 864 b 225 814 242 864 228 846 l 47 814 "},"³":{"ha":519,"x_min":0,"x_max":0,"o":"m 29 822 b 263 992 32 911 101 992 b 476 846 392 992 476 929 b 382 740 476 788 440 753 l 382 736 b 485 624 449 718 485 682 b 263 483 485 538 396 483 b 21 653 99 483 28 550 l 206 653 b 251 610 208 622 225 610 b 294 654 276 610 294 624 b 240 701 294 686 274 701 l 193 701 l 193 779 l 232 779 b 286 825 267 779 286 793 b 243 865 286 850 271 865 b 199 822 217 865 203 851 l 29 822 "},"´":{"ha":363,"x_min":0,"x_max":0,"o":"m 349 1153 l 349 968 l 14 828 l 14 992 "},"µ":{"ha":979,"x_min":0,"x_max":0,"o":"m 875 0 l 638 0 l 638 114 b 403 -8 593 40 511 -8 b 340 3 381 -8 360 -4 l 340 -369 l 104 -369 l 104 775 l 340 775 l 340 354 b 489 197 340 253 399 197 b 638 354 579 197 638 253 l 638 775 l 875 775 "},"¶":{"ha":983,"x_min":0,"x_max":0,"o":"m 879 975 l 879 0 l 683 0 l 683 794 l 597 794 l 597 0 l 401 0 l 401 379 l 369 379 b 39 676 135 379 39 522 b 369 975 39 831 135 975 "},"·":{"ha":415,"x_min":0,"x_max":0,"o":"m 351 436 b 211 308 351 365 294 308 b 69 436 126 308 69 365 b 211 567 69 510 126 567 b 351 436 294 567 351 510 "},"¸":{"ha":435,"x_min":0,"x_max":0,"o":"m 240 -51 b 421 -210 324 -51 421 -94 b 228 -371 421 -324 324 -371 l 14 -371 l 14 -240 l 196 -240 b 251 -204 231 -240 251 -232 b 196 -169 251 -178 231 -169 l 97 -169 l 97 10 l 240 10 "},"¹":{"ha":346,"x_min":0,"x_max":0,"o":"m 111 840 l 28 840 l 28 978 l 290 978 l 290 489 l 111 489 "},"º":{"ha":636,"x_min":0,"x_max":0,"o":"m 35 735 b 318 985 35 882 149 985 b 601 735 488 985 601 882 b 317 482 601 588 486 482 b 35 735 147 482 35 588 m 418 733 b 317 847 418 811 371 847 b 218 733 264 847 218 811 b 317 621 218 658 263 621 b 418 733 369 621 418 658 "},"»":{"ha":774,"x_min":0,"x_max":0,"o":"m 382 167 l 503 410 l 382 653 l 601 653 l 718 410 l 601 167 m 69 167 l 190 410 l 69 653 l 289 653 l 406 410 l 289 167 "},"¼":{"ha":1092,"x_min":0,"x_max":0,"o":"m 657 975 l 886 975 l 351 0 l 122 0 m 1050 188 l 1050 86 l 994 86 l 994 0 l 815 0 l 815 86 l 544 86 l 544 181 l 747 489 l 994 489 l 994 188 m 824 192 l 824 371 l 715 192 m 139 840 l 56 840 l 56 978 l 318 978 l 318 489 l 139 489 "},"½":{"ha":1140,"x_min":0,"x_max":0,"o":"m 657 978 l 886 978 l 351 0 l 122 0 m 139 840 l 56 840 l 56 978 l 318 978 l 318 489 l 139 489 m 615 324 b 853 501 621 428 707 501 b 1058 347 996 501 1058 422 b 894 179 1058 279 1010 235 l 810 138 l 1051 138 l 1051 -1 l 622 -1 l 622 132 l 792 235 b 869 335 843 267 869 299 b 835 374 869 358 856 374 b 793 324 810 374 796 356 l 615 324 "},"¾":{"ha":1238,"x_min":0,"x_max":0,"o":"m 817 978 l 1046 978 l 511 0 l 282 0 m 1210 188 l 1210 86 l 1154 86 l 1154 0 l 975 0 l 975 86 l 704 86 l 704 181 l 892 489 l 1154 489 l 1154 188 m 983 188 l 983 385 l 875 188 m 78 822 b 311 992 81 911 150 992 b 525 846 440 992 525 929 b 431 740 525 788 489 753 l 431 736 b 533 624 497 718 533 682 b 311 483 533 538 444 483 b 69 653 147 483 76 550 l 254 653 b 300 610 257 622 274 610 b 343 654 325 610 343 624 b 289 701 343 686 322 701 l 242 701 l 242 779 l 281 779 b 335 825 315 779 335 793 b 292 865 335 850 319 865 b 247 822 265 865 251 851 l 78 822 "},"¿":{"ha":747,"x_min":0,"x_max":0,"o":"m 707 54 b 375 -246 711 -112 594 -246 b 47 51 182 -246 47 -142 b 358 329 47 231 176 328 l 365 433 l 574 433 l 581 175 l 497 175 b 278 50 367 175 276 151 b 378 -51 278 -12 317 -51 b 483 54 446 -51 483 -10 l 707 54 m 326 667 b 467 794 326 738 383 794 b 608 667 551 794 608 738 b 467 536 608 593 551 536 b 326 667 383 536 326 593 "},"À":{"ha":1024,"x_min":0,"x_max":0,"o":"m 693 172 l 329 172 l 271 0 l 22 0 l 375 975 l 650 975 l 1003 0 l 751 0 m 339 1356 l 674 1194 l 674 1031 l 339 1171 m 511 713 l 392 356 l 632 356 "},"Á":{"ha":1024,"x_min":0,"x_max":0,"o":"m 693 172 l 329 172 l 271 0 l 22 0 l 375 975 l 650 975 l 1003 0 l 751 0 m 674 1356 l 674 1171 l 339 1031 l 339 1194 m 511 713 l 392 356 l 632 356 "},"Â":{"ha":1024,"x_min":0,"x_max":0,"o":"m 693 172 l 329 172 l 271 0 l 22 0 l 375 975 l 650 975 l 1003 0 l 751 0 m 728 1031 l 513 1144 l 297 1031 l 297 1194 l 513 1304 l 728 1194 m 511 713 l 392 356 l 632 356 "},"Ã":{"ha":1024,"x_min":0,"x_max":0,"o":"m 693 172 l 329 172 l 271 0 l 22 0 l 375 975 l 650 975 l 1003 0 l 751 0 m 235 1043 b 426 1249 258 1189 328 1249 b 608 1186 510 1249 553 1186 b 668 1249 640 1186 663 1206 l 790 1249 b 599 1043 767 1103 696 1043 b 417 1106 515 1043 472 1106 b 356 1043 385 1106 363 1086 l 235 1043 m 511 713 l 392 356 l 632 356 "},"Ä":{"ha":1024,"x_min":0,"x_max":0,"o":"m 693 172 l 329 172 l 271 0 l 22 0 l 375 975 l 650 975 l 1003 0 l 751 0 m 372 1064 b 271 1165 315 1064 271 1108 b 372 1268 271 1224 315 1268 b 475 1165 431 1268 475 1224 b 372 1064 475 1108 431 1064 m 650 1064 b 549 1165 593 1064 549 1108 b 650 1268 549 1224 593 1268 b 753 1165 708 1268 753 1224 b 650 1064 753 1108 708 1064 m 511 713 l 392 356 l 632 356 "},"Å":{"ha":1024,"x_min":0,"x_max":0,"o":"m 693 172 l 329 172 l 271 0 l 22 0 l 375 975 l 650 975 l 1003 0 l 751 0 m 513 1135 b 579 1203 550 1135 579 1163 b 513 1271 579 1244 550 1271 b 447 1203 476 1271 447 1244 b 513 1135 447 1163 476 1135 m 513 1371 b 683 1203 607 1371 683 1307 b 513 1035 683 1099 607 1035 b 343 1203 419 1035 343 1099 b 513 1371 343 1307 419 1371 m 511 713 l 392 356 l 632 356 "},"Æ":{"ha":1326,"x_min":0,"x_max":0,"o":"m 440 344 l 669 344 l 669 799 m 907 788 l 907 588 l 1217 588 l 1217 407 l 907 407 l 907 188 l 1258 188 l 1258 0 l 669 0 l 669 164 l 349 164 l 265 0 l 8 0 l 507 975 l 1258 975 l 1258 788 "},"Ç":{"ha":1058,"x_min":0,"x_max":0,"o":"m 46 489 b 536 986 46 781 249 986 b 999 644 768 986 943 856 l 738 644 b 533 769 697 728 624 769 b 288 489 388 769 288 661 b 533 208 288 317 388 208 b 738 333 624 208 697 250 l 999 333 b 611 -3 949 146 806 22 l 611 -57 b 792 -215 694 -57 792 -100 b 599 -376 792 -329 694 -376 l 385 -376 l 385 -246 l 567 -246 b 622 -210 601 -246 622 -237 b 567 -175 622 -183 601 -175 l 468 -175 l 468 -3 b 46 489 217 26 46 221 "},"È":{"ha":751,"x_min":0,"x_max":0,"o":"m 683 785 l 324 785 l 324 588 l 642 588 l 642 404 l 324 404 l 324 190 l 683 190 l 683 0 l 86 0 l 86 975 l 683 975 m 206 1356 l 540 1194 l 540 1031 l 206 1171 "},"É":{"ha":751,"x_min":0,"x_max":0,"o":"m 683 785 l 324 785 l 324 588 l 642 588 l 642 404 l 324 404 l 324 190 l 683 190 l 683 0 l 86 0 l 86 975 l 683 975 m 540 1356 l 540 1171 l 206 1031 l 206 1194 "},"Ê":{"ha":751,"x_min":0,"x_max":0,"o":"m 683 785 l 324 785 l 324 588 l 642 588 l 642 404 l 324 404 l 324 190 l 683 190 l 683 0 l 86 0 l 86 975 l 683 975 m 593 1031 l 378 1144 l 163 1031 l 163 1194 l 378 1304 l 593 1194 "},"Ë":{"ha":751,"x_min":0,"x_max":0,"o":"m 683 785 l 324 785 l 324 588 l 642 588 l 642 404 l 324 404 l 324 190 l 683 190 l 683 0 l 86 0 l 86 975 l 683 975 m 239 1064 b 138 1165 182 1064 138 1108 b 239 1268 138 1224 182 1268 b 342 1165 297 1268 342 1224 b 239 1064 342 1108 297 1064 m 517 1064 b 415 1165 460 1064 415 1108 b 517 1268 415 1224 460 1268 b 619 1165 575 1268 619 1224 b 517 1064 619 1108 575 1064 "},"Ì":{"ha":410,"x_min":0,"x_max":0,"o":"m 86 975 l 324 975 l 324 0 l 86 0 m 32 1356 l 367 1194 l 367 1031 l 32 1171 "},"Í":{"ha":410,"x_min":0,"x_max":0,"o":"m 86 975 l 324 975 l 324 0 l 86 0 m 367 1356 l 367 1171 l 32 1031 l 32 1194 "},"Î":{"ha":410,"x_min":0,"x_max":0,"o":"m 86 975 l 324 975 l 324 0 l 86 0 m 421 1031 l 206 1144 l -10 1031 l -10 1194 l 206 1304 l 421 1194 "},"Ï":{"ha":410,"x_min":0,"x_max":0,"o":"m 86 975 l 324 975 l 324 0 l 86 0 m 65 1064 b -36 1165 8 1064 -36 1108 b 65 1268 -36 1224 8 1268 b 168 1165 124 1268 168 1224 b 65 1064 168 1108 124 1064 m 343 1064 b 242 1165 286 1064 242 1108 b 343 1268 242 1224 286 1268 b 446 1165 401 1268 446 1224 b 343 1064 446 1108 401 1064 "},"Ð":{"ha":1017,"x_min":0,"x_max":0,"o":"m 458 975 b 969 488 771 975 969 778 b 458 0 969 199 771 0 l 93 0 l 93 389 l 6 389 l 6 586 l 93 586 l 93 975 l 458 975 m 444 203 b 728 488 622 203 728 308 b 444 772 728 667 622 772 l 332 772 l 332 586 l 543 586 l 543 389 l 332 389 l 332 203 "},"Ñ":{"ha":1044,"x_min":0,"x_max":0,"o":"m 958 975 l 958 0 l 721 0 l 324 601 l 324 0 l 86 0 l 86 975 l 324 975 l 721 371 l 721 975 m 244 1043 b 436 1249 268 1189 338 1249 b 618 1186 519 1249 563 1186 b 678 1249 650 1186 672 1206 l 800 1249 b 608 1043 776 1103 706 1043 b 426 1106 525 1043 482 1106 b 365 1043 394 1106 372 1086 l 244 1043 "},"Ò":{"ha":1092,"x_min":0,"x_max":0,"o":"m 1046 490 b 547 -10 1046 197 824 -10 b 46 490 271 -10 46 197 b 547 989 46 783 271 989 b 1046 490 825 989 1046 783 m 289 490 b 547 207 289 319 389 207 b 804 490 703 207 804 319 b 547 774 804 664 703 774 b 289 490 389 774 289 664 m 374 1356 l 708 1194 l 708 1031 l 374 1171 "},"Ó":{"ha":1092,"x_min":0,"x_max":0,"o":"m 1046 490 b 547 -10 1046 197 824 -10 b 46 490 271 -10 46 197 b 547 989 46 783 271 989 b 1046 490 825 989 1046 783 m 289 490 b 547 207 289 319 389 207 b 804 490 703 207 804 319 b 547 774 804 664 703 774 b 289 490 389 774 289 664 m 708 1356 l 708 1171 l 374 1031 l 374 1194 "},"Ô":{"ha":1092,"x_min":0,"x_max":0,"o":"m 1046 490 b 547 -10 1046 197 824 -10 b 46 490 271 -10 46 197 b 547 989 46 783 271 989 b 1046 490 825 989 1046 783 m 289 490 b 547 207 289 319 389 207 b 804 490 703 207 804 319 b 547 774 804 664 703 774 b 289 490 389 774 289 664 m 761 1031 l 546 1144 l 331 1031 l 331 1194 l 546 1304 l 761 1194 "},"Õ":{"ha":1092,"x_min":0,"x_max":0,"o":"m 1046 490 b 547 -10 1046 197 824 -10 b 46 490 271 -10 46 197 b 547 989 46 783 271 989 b 1046 490 825 989 1046 783 m 289 490 b 547 207 289 319 389 207 b 804 490 703 207 804 319 b 547 774 804 664 703 774 b 289 490 389 774 289 664 m 268 1043 b 460 1249 292 1189 361 1249 b 642 1186 543 1249 586 1186 b 701 1249 674 1186 696 1206 l 824 1249 b 632 1043 800 1103 729 1043 b 450 1106 549 1043 506 1106 b 389 1043 418 1106 396 1086 l 268 1043 "},"Ö":{"ha":1092,"x_min":0,"x_max":0,"o":"m 1046 490 b 547 -10 1046 197 824 -10 b 46 490 271 -10 46 197 b 547 989 46 783 271 989 b 1046 490 825 989 1046 783 m 289 490 b 547 207 289 319 389 207 b 804 490 703 207 804 319 b 547 774 804 664 703 774 b 289 490 389 774 289 664 m 407 1064 b 306 1165 350 1064 306 1108 b 407 1268 306 1224 350 1268 b 510 1165 465 1268 510 1224 b 407 1064 510 1108 465 1064 m 685 1064 b 583 1165 628 1064 583 1108 b 685 1268 583 1224 628 1268 b 788 1165 743 1268 788 1224 b 685 1064 788 1108 743 1064 "},"×":{"ha":885,"x_min":0,"x_max":0,"o":"m 96 301 l 286 494 l 101 679 l 257 833 l 442 649 l 624 833 l 779 681 l 594 496 l 789 301 l 633 147 l 440 340 l 250 149 "},"Ø":{"ha":1092,"x_min":0,"x_max":0,"o":"m 1044 490 b 546 -10 1044 197 822 -10 b 249 83 435 -10 332 24 l 175 1 l 31 1 l 169 154 b 44 490 92 240 44 357 b 546 989 44 783 269 989 b 843 897 658 989 760 956 l 917 978 l 1061 978 l 922 825 b 1044 490 999 739 1044 624 m 288 490 b 326 328 288 428 301 372 l 693 732 b 546 774 653 758 603 774 b 288 490 388 774 288 664 m 546 207 b 803 490 701 207 803 319 b 765 651 803 553 789 608 l 399 249 b 546 207 439 222 489 207 "},"Ù":{"ha":979,"x_min":0,"x_max":0,"o":"m 82 975 l 319 975 l 319 392 b 489 210 319 276 376 210 b 661 392 601 210 661 276 l 661 975 l 899 975 l 899 393 b 485 -10 899 124 710 -10 b 82 393 258 -10 82 124 m 317 1356 l 651 1194 l 651 1031 l 317 1171 "},"Ú":{"ha":979,"x_min":0,"x_max":0,"o":"m 82 975 l 319 975 l 319 392 b 489 210 319 276 376 210 b 661 392 601 210 661 276 l 661 975 l 899 975 l 899 393 b 485 -10 899 124 710 -10 b 82 393 258 -10 82 124 m 651 1356 l 651 1171 l 317 1031 l 317 1194 "},"Û":{"ha":979,"x_min":0,"x_max":0,"o":"m 82 975 l 319 975 l 319 392 b 489 210 319 276 376 210 b 661 392 601 210 661 276 l 661 975 l 899 975 l 899 393 b 485 -10 899 124 710 -10 b 82 393 258 -10 82 124 m 706 1031 l 490 1144 l 275 1031 l 275 1194 l 490 1304 l 706 1194 "},"Ü":{"ha":979,"x_min":0,"x_max":0,"o":"m 82 975 l 319 975 l 319 392 b 489 210 319 276 376 210 b 661 392 601 210 661 276 l 661 975 l 899 975 l 899 393 b 485 -10 899 124 710 -10 b 82 393 258 -10 82 124 m 350 1064 b 249 1165 293 1064 249 1108 b 350 1268 249 1224 293 1268 b 453 1165 408 1268 453 1224 b 350 1064 453 1108 408 1064 m 628 1064 b 526 1165 571 1064 526 1108 b 628 1268 526 1224 571 1268 b 731 1165 686 1268 731 1224 b 628 1064 731 1108 686 1064 "},"Ý":{"ha":932,"x_min":0,"x_max":0,"o":"m 10 975 l 279 975 l 468 567 l 656 975 l 922 975 l 585 322 l 585 0 l 347 0 l 347 322 m 628 1356 l 628 1171 l 293 1031 l 293 1194 "},"Þ":{"ha":867,"x_min":0,"x_max":0,"o":"m 453 364 b 588 489 547 364 588 414 b 453 614 588 564 547 614 l 324 614 l 324 364 m 829 489 b 471 185 829 331 719 185 l 324 185 l 324 0 l 86 0 l 86 975 l 321 975 l 321 794 l 471 794 b 829 489 710 794 829 663 "},"ß":{"ha":1056,"x_min":0,"x_max":0,"o":"m 68 742 b 463 1067 68 935 218 1067 b 814 814 676 1067 814 950 b 661 547 814 661 661 603 b 789 465 661 522 678 506 b 989 233 932 411 989 344 b 686 -14 989 86 869 -14 b 363 251 503 -14 385 81 l 581 251 b 682 158 588 194 625 158 b 760 219 732 158 760 179 b 644 318 760 260 739 285 b 424 508 489 374 424 422 b 578 778 424 628 578 689 b 450 869 578 835 528 869 b 304 725 350 869 304 815 l 304 0 l 68 0 "},"à":{"ha":943,"x_min":0,"x_max":0,"o":"m 39 389 b 381 786 39 633 190 786 b 619 665 496 786 578 733 l 619 775 l 857 775 l 857 0 l 619 0 l 619 110 b 379 -11 576 42 494 -11 b 39 389 190 -11 39 144 m 619 388 b 450 579 619 511 540 579 b 281 389 361 579 281 513 b 450 196 281 265 361 196 b 619 388 540 196 619 264 m 303 1153 l 638 992 l 638 828 l 303 968 "},"á":{"ha":943,"x_min":0,"x_max":0,"o":"m 39 389 b 381 786 39 633 190 786 b 619 665 496 786 578 733 l 619 775 l 857 775 l 857 0 l 619 0 l 619 110 b 379 -11 576 42 494 -11 b 39 389 190 -11 39 144 m 619 388 b 450 579 619 511 540 579 b 281 389 361 579 281 513 b 450 196 281 265 361 196 b 619 388 540 196 619 264 m 638 1153 l 638 968 l 303 828 l 303 992 "},"â":{"ha":943,"x_min":0,"x_max":0,"o":"m 39 389 b 381 786 39 633 190 786 b 619 665 496 786 578 733 l 619 775 l 857 775 l 857 0 l 619 0 l 619 110 b 379 -11 576 42 494 -11 b 39 389 190 -11 39 144 m 619 388 b 450 579 619 511 540 579 b 281 389 361 579 281 513 b 450 196 281 265 361 196 b 619 388 540 196 619 264 m 692 828 l 476 942 l 261 828 l 261 992 l 476 1101 l 692 992 "},"ã":{"ha":943,"x_min":0,"x_max":0,"o":"m 39 389 b 381 786 39 633 190 786 b 619 665 496 786 578 733 l 619 775 l 857 775 l 857 0 l 619 0 l 619 110 b 379 -11 576 42 494 -11 b 39 389 190 -11 39 144 m 619 388 b 450 579 619 511 540 579 b 281 389 361 579 281 513 b 450 196 281 265 361 196 b 619 388 540 196 619 264 m 199 840 b 390 1046 222 986 292 1046 b 572 983 474 1046 517 983 b 632 1046 604 983 626 1003 l 754 1046 b 563 840 731 900 660 840 b 381 903 479 840 436 903 b 319 840 349 903 326 883 l 199 840 "},"ä":{"ha":943,"x_min":0,"x_max":0,"o":"m 39 389 b 381 786 39 633 190 786 b 619 665 496 786 578 733 l 619 775 l 857 775 l 857 0 l 619 0 l 619 110 b 379 -11 576 42 494 -11 b 39 389 190 -11 39 144 m 619 388 b 450 579 619 511 540 579 b 281 389 361 579 281 513 b 450 196 281 265 361 196 b 619 388 540 196 619 264 m 336 861 b 235 963 279 861 235 906 b 336 1065 235 1021 279 1065 b 439 963 394 1065 439 1021 b 336 861 439 906 394 861 m 614 861 b 513 963 557 861 513 906 b 614 1065 513 1021 557 1065 b 717 963 672 1065 717 1021 b 614 861 717 906 672 861 "},"å":{"ha":943,"x_min":0,"x_max":0,"o":"m 39 389 b 381 786 39 633 190 786 b 619 665 496 786 578 733 l 619 775 l 857 775 l 857 0 l 619 0 l 619 110 b 379 -11 576 42 494 -11 b 39 389 190 -11 39 144 m 619 388 b 450 579 619 511 540 579 b 281 389 361 579 281 513 b 450 196 281 265 361 196 b 619 388 540 196 619 264 m 476 1168 b 647 1000 571 1168 647 1104 b 476 832 647 896 571 832 b 307 1000 383 832 307 896 b 476 1168 307 1104 383 1168 m 476 932 b 543 1000 514 932 543 960 b 476 1068 543 1042 514 1068 b 411 1000 440 1068 411 1042 b 476 932 411 960 440 932 "},"æ":{"ha":1485,"x_min":0,"x_max":0,"o":"m 1036 596 b 864 454 953 596 881 550 l 1203 454 b 1036 596 1201 544 1128 596 m 1426 257 b 1101 -11 1389 106 1271 -11 b 849 111 988 -11 897 38 l 849 0 l 622 0 l 622 111 b 381 -11 575 40 490 -11 b 39 389 190 -11 39 144 b 385 786 39 633 190 786 b 625 667 490 786 572 743 l 625 775 l 849 775 l 849 667 b 1101 786 906 747 990 786 b 1446 401 1303 786 1446 633 b 1439 333 1446 379 1443 357 l 864 333 b 1031 179 878 225 953 179 b 1174 257 1108 179 1154 211 l 1426 257 m 281 389 b 450 196 281 265 361 196 b 619 388 540 196 619 264 b 450 579 619 511 540 579 b 281 389 361 579 281 513 "},"ç":{"ha":840,"x_min":0,"x_max":0,"o":"m 39 388 b 428 786 39 632 200 786 b 800 494 622 786 760 679 l 547 494 b 424 583 528 549 489 583 b 281 388 339 583 281 517 b 424 192 281 258 339 192 b 547 281 489 192 526 224 l 800 281 b 497 -6 765 124 654 18 l 497 -57 b 678 -215 581 -57 678 -100 b 485 -376 678 -329 581 -376 l 271 -376 l 271 -246 l 453 -246 b 508 -210 488 -246 508 -237 b 453 -175 508 -183 488 -175 l 354 -175 l 354 -6 b 39 388 167 24 39 169 "},"è":{"ha":856,"x_min":0,"x_max":0,"o":"m 428 596 b 276 463 350 596 290 549 l 574 463 b 428 596 574 547 507 596 m 799 257 b 431 -11 761 106 624 -11 b 39 388 203 -11 39 142 b 431 786 39 633 200 786 b 817 400 657 786 817 636 b 813 331 817 378 815 354 l 275 331 b 422 182 283 229 346 182 b 546 257 489 182 526 215 l 799 257 m 256 1158 l 590 997 l 590 833 l 256 974 "},"é":{"ha":856,"x_min":0,"x_max":0,"o":"m 428 596 b 276 463 350 596 290 549 l 574 463 b 428 596 574 547 507 596 m 799 257 b 431 -11 761 106 624 -11 b 39 388 203 -11 39 142 b 431 786 39 633 200 786 b 817 400 657 786 817 636 b 813 331 817 378 815 354 l 275 331 b 422 182 283 229 346 182 b 546 257 489 182 526 215 l 799 257 m 590 1158 l 590 974 l 256 833 l 256 997 "},"ê":{"ha":856,"x_min":0,"x_max":0,"o":"m 428 596 b 276 463 350 596 290 549 l 574 463 b 428 596 574 547 507 596 m 799 257 b 431 -11 761 106 624 -11 b 39 388 203 -11 39 142 b 431 786 39 633 200 786 b 817 400 657 786 817 636 b 813 331 817 378 815 354 l 275 331 b 422 182 283 229 346 182 b 546 257 489 182 526 215 l 799 257 m 643 833 l 428 947 l 213 833 l 213 997 l 428 1107 l 643 997 "},"ë":{"ha":856,"x_min":0,"x_max":0,"o":"m 428 596 b 276 463 350 596 290 549 l 574 463 b 428 596 574 547 507 596 m 799 257 b 431 -11 761 106 624 -11 b 39 388 203 -11 39 142 b 431 786 39 633 200 786 b 817 400 657 786 817 636 b 813 331 817 378 815 354 l 275 331 b 422 182 283 229 346 182 b 546 257 489 182 526 215 l 799 257 m 288 867 b 186 968 231 867 186 911 b 288 1071 186 1026 231 1071 b 390 968 346 1071 390 1026 b 288 867 390 911 346 867 m 565 867 b 464 968 508 867 464 911 b 565 1071 464 1026 508 1071 b 668 968 624 1071 668 1026 b 565 867 668 911 624 867 "},"ì":{"ha":446,"x_min":0,"x_max":0,"o":"m 104 775 l 342 775 l 342 0 l 104 0 m 50 1153 l 385 992 l 385 828 l 50 968 "},"í":{"ha":446,"x_min":0,"x_max":0,"o":"m 104 775 l 342 775 l 342 0 l 104 0 m 385 1153 l 385 968 l 50 828 l 50 992 "},"î":{"ha":446,"x_min":0,"x_max":0,"o":"m 104 775 l 342 775 l 342 0 l 104 0 m 439 828 l 224 942 l 8 828 l 8 992 l 224 1101 l 439 992 "},"ï":{"ha":446,"x_min":0,"x_max":0,"o":"m 104 775 l 342 775 l 342 0 l 104 0 m 83 861 b -18 963 26 861 -18 906 b 83 1065 -18 1021 26 1065 b 186 963 142 1065 186 1021 b 83 861 186 906 142 861 m 361 861 b 260 963 304 861 260 906 b 361 1065 260 1021 304 1065 b 464 963 419 1065 464 1021 b 361 861 464 906 419 861 "},"ð":{"ha":889,"x_min":0,"x_max":0,"o":"m 39 389 b 422 783 39 633 210 783 b 585 740 483 783 533 768 b 513 861 565 782 542 822 l 367 817 l 367 910 l 453 936 b 357 1028 422 968 390 999 l 575 1028 b 617 986 589 1014 603 1000 l 749 1026 l 749 933 l 681 913 b 850 440 785 776 850 613 b 446 -10 850 144 669 -10 b 39 389 222 -10 39 144 m 282 388 b 446 193 282 253 365 193 b 607 388 526 193 607 253 b 444 581 607 522 524 581 b 282 388 364 581 282 522 "},"ñ":{"ha":936,"x_min":0,"x_max":0,"o":"m 324 0 l 86 0 l 86 775 l 324 775 l 324 672 b 558 783 371 738 454 783 b 857 453 738 783 857 661 l 857 0 l 621 0 l 621 421 b 472 585 621 526 563 585 b 324 421 382 585 324 526 m 224 840 b 415 1046 247 986 317 1046 b 597 983 499 1046 542 983 b 657 1046 629 983 651 1003 l 779 1046 b 588 840 756 900 685 840 b 406 903 504 840 461 903 b 344 840 374 903 351 883 l 224 840 "},"ò":{"ha":885,"x_min":0,"x_max":0,"o":"m 844 388 b 439 -11 844 142 667 -11 b 39 388 211 -11 39 142 b 442 786 39 633 215 786 b 844 388 669 786 844 633 m 281 388 b 439 194 281 257 353 194 b 603 388 524 194 603 257 b 442 581 603 519 525 581 b 281 388 356 581 281 519 m 288 1158 l 622 997 l 622 833 l 288 974 "},"ó":{"ha":885,"x_min":0,"x_max":0,"o":"m 844 388 b 439 -11 844 142 667 -11 b 39 388 211 -11 39 142 b 442 786 39 633 215 786 b 844 388 669 786 844 633 m 281 388 b 439 194 281 257 353 194 b 603 388 524 194 603 257 b 442 581 603 519 525 581 b 281 388 356 581 281 519 m 622 1158 l 622 974 l 288 833 l 288 997 "},"ô":{"ha":885,"x_min":0,"x_max":0,"o":"m 844 388 b 439 -11 844 142 667 -11 b 39 388 211 -11 39 142 b 442 786 39 633 215 786 b 844 388 669 786 844 633 m 281 388 b 439 194 281 257 353 194 b 603 388 524 194 603 257 b 442 581 603 519 525 581 b 281 388 356 581 281 519 m 676 833 l 461 947 l 246 833 l 246 997 l 461 1107 l 676 997 "},"õ":{"ha":885,"x_min":0,"x_max":0,"o":"m 844 388 b 439 -11 844 142 667 -11 b 39 388 211 -11 39 142 b 442 786 39 633 215 786 b 844 388 669 786 844 633 m 281 388 b 439 194 281 257 353 194 b 603 388 524 194 603 257 b 442 581 603 519 525 581 b 281 388 356 581 281 519 m 182 846 b 374 1051 206 992 275 1051 b 556 989 457 1051 500 989 b 615 1051 588 989 610 1008 l 738 1051 b 546 846 714 906 643 846 b 364 908 463 846 419 908 b 303 846 332 908 310 889 l 182 846 "},"ö":{"ha":885,"x_min":0,"x_max":0,"o":"m 844 388 b 439 -11 844 142 667 -11 b 39 388 211 -11 39 142 b 442 786 39 633 215 786 b 844 388 669 786 844 633 m 281 388 b 439 194 281 257 353 194 b 603 388 524 194 603 257 b 442 581 603 519 525 581 b 281 388 356 581 281 519 m 321 867 b 219 968 264 867 219 911 b 321 1071 219 1026 264 1071 b 424 968 379 1071 424 1026 b 321 867 424 911 379 867 m 599 867 b 497 968 542 867 497 911 b 599 1071 497 1026 542 1071 b 701 968 657 1071 701 1026 b 599 867 701 911 657 867 "},"÷":{"ha":849,"x_min":0,"x_max":0,"o":"m 74 592 l 783 592 l 783 382 l 74 382 m 574 171 b 433 43 574 100 517 43 b 292 171 349 43 292 100 b 433 301 292 244 349 301 b 574 171 517 301 574 244 m 574 800 b 433 672 574 729 517 672 b 292 800 349 672 292 729 b 433 931 292 874 349 931 b 574 800 517 931 574 874 "},"ø":{"ha":874,"x_min":0,"x_max":0,"o":"m 839 388 b 433 -11 839 142 661 -11 b 197 56 343 -11 263 13 l 146 0 l 18 0 l 126 118 b 33 388 68 186 33 278 b 436 786 33 633 210 786 b 675 718 526 786 608 763 l 728 775 l 856 775 l 746 656 b 839 388 804 588 839 497 m 275 388 b 290 297 275 353 281 322 l 525 553 b 436 581 499 572 468 581 b 275 388 350 581 275 519 m 433 194 b 597 388 518 194 597 257 b 582 476 597 422 592 451 l 347 219 b 433 194 372 203 401 194 "},"ù":{"ha":936,"x_min":0,"x_max":0,"o":"m 851 0 l 614 0 l 614 106 b 379 -8 567 39 483 -8 b 79 322 200 -8 79 115 l 79 775 l 315 775 l 315 354 b 464 190 315 249 375 190 b 614 354 556 190 614 249 l 614 775 l 851 775 m 296 1153 l 631 992 l 631 828 l 296 968 "},"ú":{"ha":936,"x_min":0,"x_max":0,"o":"m 851 0 l 614 0 l 614 106 b 379 -8 567 39 483 -8 b 79 322 200 -8 79 115 l 79 775 l 315 775 l 315 354 b 464 190 315 249 375 190 b 614 354 556 190 614 249 l 614 775 l 851 775 m 631 1153 l 631 968 l 296 828 l 296 992 "},"û":{"ha":936,"x_min":0,"x_max":0,"o":"m 851 0 l 614 0 l 614 106 b 379 -8 567 39 483 -8 b 79 322 200 -8 79 115 l 79 775 l 315 775 l 315 354 b 464 190 315 249 375 190 b 614 354 556 190 614 249 l 614 775 l 851 775 m 685 828 l 469 942 l 254 828 l 254 992 l 469 1101 l 685 992 "},"ü":{"ha":936,"x_min":0,"x_max":0,"o":"m 851 0 l 614 0 l 614 106 b 379 -8 567 39 483 -8 b 79 322 200 -8 79 115 l 79 775 l 315 775 l 315 354 b 464 190 315 249 375 190 b 614 354 556 190 614 249 l 614 775 l 851 775 m 329 861 b 228 963 272 861 228 906 b 329 1065 228 1021 272 1065 b 432 963 388 1065 432 1021 b 329 861 432 906 388 861 m 607 861 b 506 963 550 861 506 906 b 607 1065 506 1021 550 1065 b 710 963 665 1065 710 1021 b 607 861 710 906 665 861 "},"ý":{"ha":878,"x_min":0,"x_max":0,"o":"m 621 775 l 878 775 l 392 -368 l 136 -368 l 314 26 l -1 775 l 264 775 l 443 290 m 600 1153 l 600 968 l 265 828 l 265 992 "},"þ":{"ha":943,"x_min":0,"x_max":0,"o":"m 324 674 b 551 783 374 743 449 783 b 904 386 744 783 904 622 b 551 -10 904 150 744 -10 b 324 113 449 -10 375 38 l 324 -369 l 86 -369 l 86 1028 l 324 1028 l 324 674 m 663 386 b 493 578 663 517 574 578 b 324 388 413 578 324 518 b 493 196 324 257 413 196 b 663 386 574 196 663 256 "},"ÿ":{"ha":878,"x_min":0,"x_max":0,"o":"m 621 775 l 878 775 l 392 -368 l 136 -368 l 314 26 l -1 775 l 264 775 l 443 290 m 299 861 b 197 963 242 861 197 906 b 299 1065 197 1021 242 1065 b 401 963 357 1065 401 1021 b 299 861 401 906 357 861 m 576 861 b 475 963 519 861 475 906 b 576 1065 475 1021 519 1065 b 679 963 635 1065 679 1021 b 576 861 679 906 635 861 "},"Ā":{"ha":1024,"x_min":0,"x_max":0,"o":"m 693 172 l 329 172 l 271 0 l 22 0 l 375 975 l 650 975 l 1003 0 l 751 0 m 235 1239 l 790 1239 l 790 1075 l 235 1075 m 511 713 l 392 356 l 632 356 "},"ā":{"ha":943,"x_min":0,"x_max":0,"o":"m 39 389 b 381 786 39 633 190 786 b 619 665 496 786 578 733 l 619 775 l 857 775 l 857 0 l 619 0 l 619 110 b 379 -11 576 42 494 -11 b 39 389 190 -11 39 144 m 619 388 b 450 579 619 511 540 579 b 281 389 361 579 281 513 b 450 196 281 265 361 196 b 619 388 540 196 619 264 m 199 1036 l 754 1036 l 754 872 l 199 872 "},"Ă":{"ha":1024,"x_min":0,"x_max":0,"o":"m 693 172 l 329 172 l 271 0 l 22 0 l 375 975 l 650 975 l 1003 0 l 751 0 m 750 1274 b 513 1035 750 1118 651 1035 b 276 1275 374 1035 276 1119 l 276 1301 l 394 1301 b 513 1208 394 1243 422 1208 b 631 1301 603 1208 631 1243 l 750 1301 l 750 1274 m 511 713 l 392 356 l 632 356 "},"ă":{"ha":943,"x_min":0,"x_max":0,"o":"m 39 389 b 381 786 39 633 190 786 b 619 665 496 786 578 733 l 619 775 l 857 775 l 857 0 l 619 0 l 619 110 b 379 -11 576 42 494 -11 b 39 389 190 -11 39 144 m 619 388 b 450 579 619 511 540 579 b 281 389 361 579 281 513 b 450 196 281 265 361 196 b 619 388 540 196 619 264 m 714 1071 b 476 832 714 915 615 832 b 240 1072 338 832 240 917 l 240 1099 l 358 1099 b 476 1006 358 1040 386 1006 b 594 1099 567 1006 594 1040 l 714 1099 l 714 1071 "},"Ą":{"ha":1024,"x_min":0,"x_max":0,"o":"m 650 975 l 1003 0 l 938 -31 b 846 -119 864 -64 846 -92 b 908 -168 846 -150 868 -168 b 1013 -147 938 -168 972 -161 l 1013 -281 b 875 -301 972 -293 926 -301 b 671 -139 761 -301 671 -250 b 749 8 671 -85 690 -37 l 693 172 l 329 172 l 271 0 l 22 0 l 375 975 m 511 713 l 392 356 l 632 356 "},"ą":{"ha":943,"x_min":0,"x_max":0,"o":"m 39 389 b 381 786 39 633 190 786 b 619 665 496 786 578 733 l 619 775 l 857 775 l 857 0 l 793 -32 b 700 -122 725 -67 700 -92 b 761 -168 700 -150 722 -168 b 867 -147 790 -168 828 -161 l 867 -281 b 731 -301 828 -293 781 -301 b 525 -143 615 -301 525 -250 b 619 14 525 -87 549 -36 l 619 110 b 379 -11 576 42 494 -11 b 39 389 190 -11 39 144 m 619 388 b 450 579 619 511 540 579 b 281 389 361 579 281 513 b 450 196 281 265 361 196 b 619 388 540 196 619 264 "},"Ć":{"ha":1058,"x_min":0,"x_max":0,"o":"m 46 489 b 536 986 46 781 249 986 b 999 644 768 986 943 856 l 738 644 b 533 769 697 728 624 769 b 288 489 388 769 288 661 b 533 208 288 317 388 208 b 738 333 624 208 697 250 l 999 333 b 536 -7 943 122 768 -7 b 46 489 249 -7 46 197 m 694 1361 l 694 1176 l 360 1036 l 360 1200 "},"ć":{"ha":840,"x_min":0,"x_max":0,"o":"m 39 388 b 428 786 39 632 200 786 b 800 494 622 786 760 679 l 547 494 b 424 583 528 549 489 583 b 281 388 339 583 281 517 b 424 192 281 258 339 192 b 547 281 489 192 526 224 l 800 281 b 428 -11 760 101 622 -11 b 39 388 200 -11 39 142 m 578 1153 l 578 968 l 243 828 l 243 992 "},"Ċ":{"ha":1058,"x_min":0,"x_max":0,"o":"m 46 489 b 536 986 46 781 249 986 b 999 644 768 986 943 856 l 738 644 b 533 769 697 728 624 769 b 288 489 388 769 288 661 b 533 208 288 317 388 208 b 738 333 624 208 697 250 l 999 333 b 536 -7 943 122 768 -7 b 46 489 249 -7 46 197 m 532 1069 b 431 1171 475 1069 431 1114 b 532 1274 431 1229 475 1274 b 635 1171 590 1274 635 1229 b 532 1069 635 1114 590 1069 "},"ċ":{"ha":840,"x_min":0,"x_max":0,"o":"m 39 388 b 428 786 39 632 200 786 b 800 494 622 786 760 679 l 547 494 b 424 583 528 549 489 583 b 281 388 339 583 281 517 b 424 192 281 258 339 192 b 547 281 489 192 526 224 l 800 281 b 428 -11 760 101 622 -11 b 39 388 200 -11 39 142 m 414 861 b 313 963 357 861 313 906 b 414 1065 313 1021 357 1065 b 517 963 472 1065 517 1021 b 414 861 517 906 472 861 "},"Č":{"ha":1058,"x_min":0,"x_max":0,"o":"m 46 489 b 536 986 46 781 249 986 b 999 644 768 986 943 856 l 738 644 b 533 769 697 728 624 769 b 288 489 388 769 288 661 b 533 208 288 317 388 208 b 738 333 624 208 697 250 l 999 333 b 536 -7 943 122 768 -7 b 46 489 249 -7 46 197 m 749 1310 l 749 1146 l 533 1036 l 318 1146 l 318 1310 l 533 1189 "},"č":{"ha":840,"x_min":0,"x_max":0,"o":"m 39 388 b 428 786 39 632 200 786 b 800 494 622 786 760 679 l 547 494 b 424 583 528 549 489 583 b 281 388 339 583 281 517 b 424 192 281 258 339 192 b 547 281 489 192 526 224 l 800 281 b 428 -11 760 101 622 -11 b 39 388 200 -11 39 142 m 631 1101 l 631 938 l 415 828 l 200 938 l 200 1101 l 415 981 "},"Ď":{"ha":1010,"x_min":0,"x_max":0,"o":"m 451 975 b 963 488 763 975 963 778 b 451 0 963 199 763 0 l 86 0 l 86 975 l 451 975 m 436 206 b 721 488 615 206 721 308 b 436 772 721 667 615 772 l 324 772 l 324 206 m 711 1304 l 711 1140 l 496 1031 l 281 1140 l 281 1304 l 496 1183 "},"ď":{"ha":1158,"x_min":0,"x_max":0,"o":"m 1117 1028 b 1144 864 1136 969 1144 914 b 950 653 1144 739 1082 653 l 950 743 b 1022 835 997 743 1022 772 l 1022 857 l 935 857 l 935 1028 m 39 389 b 381 786 39 633 190 786 b 619 668 483 786 572 739 l 619 1028 l 857 1028 l 857 0 l 619 0 l 619 111 b 381 -11 576 40 494 -11 b 39 389 190 -11 39 144 m 619 388 b 450 579 619 511 540 579 b 281 389 361 579 281 513 b 450 196 281 265 361 196 b 619 388 540 196 619 264 "},"Đ":{"ha":1017,"x_min":0,"x_max":0,"o":"m 458 975 b 969 488 771 975 969 778 b 458 0 969 199 771 0 l 93 0 l 93 389 l 6 389 l 6 586 l 93 586 l 93 975 l 458 975 m 444 203 b 728 488 622 203 728 308 b 444 772 728 667 622 772 l 332 772 l 332 586 l 543 586 l 543 389 l 332 389 l 332 203 "},"đ":{"ha":961,"x_min":0,"x_max":0,"o":"m 39 389 b 381 786 39 633 190 786 b 619 668 483 786 572 739 l 619 821 l 522 821 l 522 935 l 619 935 l 619 1028 l 857 1028 l 857 935 l 943 935 l 943 821 l 857 821 l 857 0 l 619 0 l 619 111 b 381 -11 576 40 494 -11 b 39 389 190 -11 39 144 m 619 388 b 450 579 619 511 540 579 b 281 389 361 579 281 513 b 450 196 281 265 361 196 b 619 388 540 196 619 264 "},"Ē":{"ha":751,"x_min":0,"x_max":0,"o":"m 683 785 l 324 785 l 324 588 l 642 588 l 642 404 l 324 404 l 324 190 l 683 190 l 683 0 l 86 0 l 86 975 l 683 975 m 101 1239 l 657 1239 l 657 1075 l 101 1075 "},"ē":{"ha":856,"x_min":0,"x_max":0,"o":"m 428 596 b 276 463 350 596 290 549 l 574 463 b 428 596 574 547 507 596 m 799 257 b 431 -11 761 106 624 -11 b 39 388 203 -11 39 142 b 431 786 39 633 200 786 b 817 400 657 786 817 636 b 813 331 817 378 815 354 l 275 331 b 422 182 283 229 346 182 b 546 257 489 182 526 215 l 799 257 m 151 1042 l 707 1042 l 707 878 l 151 878 "},"Ĕ":{"ha":751,"x_min":0,"x_max":0,"o":"m 683 785 l 324 785 l 324 588 l 642 588 l 642 404 l 324 404 l 324 190 l 683 190 l 683 0 l 86 0 l 86 975 l 683 975 m 615 1274 b 378 1035 615 1118 517 1035 b 142 1275 239 1035 142 1119 l 142 1301 l 260 1301 b 378 1208 260 1243 288 1208 b 496 1301 468 1208 496 1243 l 615 1301 l 615 1274 "},"ĕ":{"ha":856,"x_min":0,"x_max":0,"o":"m 428 596 b 276 463 350 596 290 549 l 574 463 b 428 596 574 547 507 596 m 799 257 b 431 -11 761 106 624 -11 b 39 388 203 -11 39 142 b 431 786 39 633 200 786 b 817 400 657 786 817 636 b 813 331 817 378 815 354 l 275 331 b 422 182 283 229 346 182 b 546 257 489 182 526 215 l 799 257 m 665 1076 b 428 838 665 921 567 838 b 192 1078 289 838 192 922 l 192 1104 l 310 1104 b 428 1011 310 1046 338 1011 b 546 1104 518 1011 546 1046 l 665 1104 l 665 1076 "},"Ė":{"ha":751,"x_min":0,"x_max":0,"o":"m 683 785 l 324 785 l 324 588 l 642 588 l 642 404 l 324 404 l 324 190 l 683 190 l 683 0 l 86 0 l 86 975 l 683 975 m 376 1064 b 275 1165 319 1064 275 1108 b 376 1268 275 1224 319 1268 b 479 1165 435 1268 479 1224 b 376 1064 479 1108 435 1064 "},"ė":{"ha":856,"x_min":0,"x_max":0,"o":"m 428 596 b 276 463 350 596 290 549 l 574 463 b 428 596 574 547 507 596 m 799 257 b 431 -11 761 106 624 -11 b 39 388 203 -11 39 142 b 431 786 39 633 200 786 b 817 400 657 786 817 636 b 813 331 817 378 815 354 l 275 331 b 422 182 283 229 346 182 b 546 257 489 182 526 215 l 799 257 m 426 867 b 325 968 369 867 325 911 b 426 1071 325 1026 369 1071 b 529 968 485 1071 529 1026 b 426 867 529 911 485 867 "},"Ę":{"ha":751,"x_min":0,"x_max":0,"o":"m 683 785 l 324 785 l 324 588 l 642 588 l 642 404 l 324 404 l 324 190 l 683 190 l 683 0 l 619 -32 b 526 -122 551 -67 526 -92 b 588 -168 526 -150 549 -168 b 693 -147 617 -168 654 -161 l 693 -281 b 557 -301 654 -293 607 -301 b 351 -143 442 -301 351 -250 b 428 0 351 -92 371 -46 l 86 0 l 86 975 l 683 975 "},"ę":{"ha":856,"x_min":0,"x_max":0,"o":"m 428 596 b 276 463 350 596 290 549 l 574 463 b 428 596 574 547 507 596 m 579 -265 b 443 -286 540 -278 493 -286 b 238 -128 328 -286 238 -235 b 303 7 238 -81 254 -36 b 39 388 144 53 39 190 b 431 786 39 633 200 786 b 817 400 657 786 817 636 b 813 331 817 378 815 354 l 275 331 b 422 182 283 229 346 182 b 546 257 489 182 526 215 l 799 257 b 549 4 769 139 679 42 l 506 -17 b 413 -107 438 -51 413 -76 b 474 -153 413 -135 435 -153 b 579 -132 503 -153 540 -146 l 579 -265 "},"Ě":{"ha":751,"x_min":0,"x_max":0,"o":"m 683 785 l 324 785 l 324 588 l 642 588 l 642 404 l 324 404 l 324 190 l 683 190 l 683 0 l 86 0 l 86 975 l 683 975 m 593 1304 l 593 1140 l 378 1031 l 163 1140 l 163 1304 l 378 1183 "},"ě":{"ha":856,"x_min":0,"x_max":0,"o":"m 428 596 b 276 463 350 596 290 549 l 574 463 b 428 596 574 547 507 596 m 799 257 b 431 -11 761 106 624 -11 b 39 388 203 -11 39 142 b 431 786 39 633 200 786 b 817 400 657 786 817 636 b 813 331 817 378 815 354 l 275 331 b 422 182 283 229 346 182 b 546 257 489 182 526 215 l 799 257 m 643 1107 l 643 943 l 428 833 l 213 943 l 213 1107 l 428 986 "},"Ğ":{"ha":1058,"x_min":0,"x_max":0,"o":"m 542 986 b 996 667 775 986 944 867 l 733 667 b 542 767 697 732 631 767 b 288 489 389 767 288 658 b 561 203 288 308 390 203 b 797 375 679 203 761 265 l 496 375 l 496 550 l 1013 550 l 1013 329 b 543 -7 963 161 800 -7 b 46 489 251 -7 46 197 b 542 986 46 781 250 986 m 767 1274 b 529 1035 767 1118 668 1035 b 293 1275 390 1035 293 1119 l 293 1301 l 411 1301 b 529 1208 411 1243 439 1208 b 647 1301 619 1208 647 1243 l 767 1301 l 767 1274 "},"ğ":{"ha":943,"x_min":0,"x_max":0,"o":"m 39 389 b 381 786 39 633 190 786 b 619 665 494 786 578 735 l 619 775 l 857 775 l 857 1 b 469 -382 857 -206 738 -382 b 68 -81 239 -382 89 -265 l 303 -81 b 458 -176 318 -139 376 -176 b 619 1 549 -176 619 -129 l 619 111 b 381 -11 576 43 494 -11 b 39 389 190 -11 39 144 m 619 388 b 450 579 619 511 540 579 b 281 389 361 579 281 513 b 450 196 281 265 361 196 b 619 388 540 196 619 264 m 714 1071 b 476 832 714 915 615 832 b 240 1072 338 832 240 917 l 240 1099 l 358 1099 b 476 1006 358 1040 386 1006 b 594 1099 567 1006 594 1040 l 714 1099 l 714 1071 "},"Ġ":{"ha":1058,"x_min":0,"x_max":0,"o":"m 542 986 b 996 667 775 986 944 867 l 733 667 b 542 767 697 732 631 767 b 288 489 389 767 288 658 b 561 203 288 308 390 203 b 797 375 679 203 761 265 l 496 375 l 496 550 l 1013 550 l 1013 329 b 543 -7 963 161 800 -7 b 46 489 251 -7 46 197 b 542 986 46 781 250 986 m 528 1064 b 426 1165 471 1064 426 1108 b 528 1268 426 1224 471 1268 b 631 1165 586 1268 631 1224 b 528 1064 631 1108 586 1064 "},"ġ":{"ha":943,"x_min":0,"x_max":0,"o":"m 39 389 b 381 786 39 633 190 786 b 619 665 494 786 578 735 l 619 775 l 857 775 l 857 1 b 469 -382 857 -206 738 -382 b 68 -81 239 -382 89 -265 l 303 -81 b 458 -176 318 -139 376 -176 b 619 1 549 -176 619 -129 l 619 111 b 381 -11 576 43 494 -11 b 39 389 190 -11 39 144 m 619 388 b 450 579 619 511 540 579 b 281 389 361 579 281 513 b 450 196 281 265 361 196 b 619 388 540 196 619 264 m 475 861 b 374 963 418 861 374 906 b 475 1065 374 1021 418 1065 b 578 963 533 1065 578 1021 b 475 861 578 906 533 861 "},"Ģ":{"ha":1061,"x_min":0,"x_max":0,"o":"m 618 -56 b 646 -219 638 -114 646 -169 b 451 -431 646 -344 583 -431 l 451 -340 b 524 -249 499 -340 524 -311 l 524 -226 l 436 -226 l 436 -56 m 542 986 b 996 667 775 986 944 867 l 733 667 b 542 767 697 732 631 767 b 288 489 389 767 288 658 b 561 203 288 308 390 203 b 797 375 679 203 761 265 l 496 375 l 496 550 l 1013 550 l 1013 329 b 543 -7 963 161 800 -7 b 46 489 251 -7 46 197 b 542 986 46 781 250 986 "},"ģ":{"ha":943,"x_min":0,"x_max":0,"o":"m 397 831 b 369 994 378 889 369 944 b 564 1206 369 1119 432 1206 l 564 1115 b 492 1024 517 1115 492 1086 l 492 1001 l 579 1001 l 579 831 m 39 389 b 381 786 39 633 190 786 b 619 665 494 786 578 735 l 619 775 l 857 775 l 857 1 b 469 -382 857 -206 738 -382 b 68 -81 239 -382 89 -265 l 303 -81 b 458 -176 318 -139 376 -176 b 619 1 549 -176 619 -129 l 619 111 b 381 -11 576 43 494 -11 b 39 389 190 -11 39 144 m 619 388 b 450 579 619 511 540 579 b 281 389 361 579 281 513 b 450 196 281 265 361 196 b 619 388 540 196 619 264 "},"Ĩ":{"ha":410,"x_min":0,"x_max":0,"o":"m 86 975 l 324 975 l 324 0 l 86 0 m -72 1043 b 119 1249 -49 1189 21 1249 b 301 1186 203 1249 246 1186 b 361 1249 333 1186 356 1206 l 483 1249 b 292 1043 460 1103 389 1043 b 110 1106 208 1043 165 1106 b 49 1043 78 1106 56 1086 l -72 1043 "},"ĩ":{"ha":446,"x_min":0,"x_max":0,"o":"m 104 775 l 342 775 l 342 0 l 104 0 m -54 840 b 138 1046 -31 986 39 1046 b 319 983 221 1046 264 983 b 379 1046 351 983 374 1003 l 501 1046 b 310 840 478 900 407 840 b 128 903 226 840 183 903 b 67 840 96 903 74 883 l -54 840 "},"Ī":{"ha":410,"x_min":0,"x_max":0,"o":"m 86 975 l 324 975 l 324 0 l 86 0 m -72 1239 l 483 1239 l 483 1075 l -72 1075 "},"ī":{"ha":446,"x_min":0,"x_max":0,"o":"m 104 775 l 342 775 l 342 0 l 104 0 m -54 1036 l 501 1036 l 501 872 l -54 872 "},"Ĭ":{"ha":410,"x_min":0,"x_max":0,"o":"m 86 975 l 324 975 l 324 0 l 86 0 m 443 1274 b 206 1035 443 1118 344 1035 b -31 1275 67 1035 -31 1119 l -31 1301 l 88 1301 b 206 1208 88 1243 115 1208 b 324 1301 296 1208 324 1243 l 443 1301 l 443 1274 "},"ĭ":{"ha":446,"x_min":0,"x_max":0,"o":"m 104 775 l 342 775 l 342 0 l 104 0 m 461 1071 b 224 832 461 915 363 832 b -12 1072 85 832 -12 917 l -12 1099 l 106 1099 b 224 1006 106 1040 133 1006 b 342 1099 314 1006 342 1040 l 461 1099 l 461 1071 "},"Į":{"ha":410,"x_min":0,"x_max":0,"o":"m 333 -281 b 197 -301 294 -293 247 -301 b -8 -143 82 -301 -8 -250 b 86 14 -8 -87 15 -36 l 86 975 l 324 975 l 324 0 l 260 -32 b 167 -122 192 -67 167 -92 b 228 -168 167 -150 189 -168 b 333 -147 257 -168 294 -161 l 333 -281 "},"į":{"ha":410,"x_min":0,"x_max":0,"o":"m 333 -281 b 197 -301 294 -293 247 -301 b -8 -143 82 -301 -8 -250 b 86 14 -8 -87 15 -36 l 86 775 l 324 775 l 324 0 l 260 -32 b 167 -122 192 -67 167 -92 b 228 -168 167 -150 189 -168 b 333 -147 257 -168 294 -161 l 333 -281 m 206 856 b 64 983 121 856 64 913 b 206 1113 64 1056 121 1113 b 346 983 289 1113 346 1056 b 206 856 346 913 289 856 "},"İ":{"ha":410,"x_min":0,"x_max":0,"o":"m 86 975 l 324 975 l 324 0 l 86 0 m 204 1064 b 103 1165 147 1064 103 1108 b 204 1268 103 1224 147 1268 b 307 1165 263 1268 307 1224 b 204 1064 307 1108 263 1064 "},"ı":{"ha":446,"x_min":0,"x_max":0,"o":"m 104 775 l 342 775 l 342 0 l 104 0 "},"Ķ":{"ha":1000,"x_min":0,"x_max":0,"o":"m 588 -56 b 615 -219 607 -114 615 -169 b 421 -431 615 -344 553 -431 l 421 -340 b 493 -249 468 -340 493 -311 l 493 -226 l 406 -226 l 406 -56 m 324 431 l 324 0 l 86 0 l 86 975 l 324 975 l 324 547 l 649 975 l 928 975 l 550 497 l 942 0 l 651 0 "},"ķ":{"ha":858,"x_min":0,"x_max":0,"o":"m 521 -56 b 547 -219 539 -114 547 -169 b 353 -431 547 -344 485 -431 l 353 -340 b 426 -249 400 -340 426 -311 l 426 -226 l 339 -226 l 339 -56 m 86 1028 l 324 1028 l 324 460 l 558 775 l 851 775 l 529 386 l 854 0 l 560 0 l 324 325 l 324 0 l 86 0 "},"Ĺ":{"ha":663,"x_min":0,"x_max":0,"o":"m 324 975 l 324 183 l 635 183 l 635 0 l 86 0 l 86 975 m 476 1356 l 476 1171 l 142 1031 l 142 1194 "},"ĺ":{"ha":410,"x_min":0,"x_max":0,"o":"m 86 1028 l 324 1028 l 324 0 l 86 0 m 367 1406 l 367 1221 l 32 1081 l 32 1244 "},"Ļ":{"ha":665,"x_min":0,"x_max":0,"o":"m 463 -56 b 490 -219 482 -114 490 -169 b 296 -431 490 -344 428 -431 l 296 -340 b 368 -249 343 -340 368 -311 l 368 -226 l 281 -226 l 281 -56 m 324 975 l 324 183 l 635 183 l 635 0 l 86 0 l 86 975 "},"ļ":{"ha":410,"x_min":0,"x_max":0,"o":"m 297 -56 b 325 -219 317 -114 325 -169 b 131 -431 325 -344 261 -431 l 131 -340 b 203 -249 178 -340 203 -311 l 203 -226 l 115 -226 l 115 -56 m 86 1028 l 324 1028 l 324 0 l 86 0 "},"Ľ":{"ha":726,"x_min":0,"x_max":0,"o":"m 647 975 b 675 811 667 917 675 861 b 481 600 675 686 613 600 l 481 690 b 553 782 528 690 553 719 l 553 804 l 465 804 l 465 975 m 324 975 l 324 183 l 635 183 l 635 0 l 86 0 l 86 975 "},"ľ":{"ha":658,"x_min":0,"x_max":0,"o":"m 596 1028 b 622 864 615 969 622 914 b 429 653 622 739 561 653 l 429 743 b 501 835 476 743 501 772 l 501 857 l 414 857 l 414 1028 m 86 1028 l 324 1028 l 324 0 l 86 0 "},"Ŀ":{"ha":663,"x_min":0,"x_max":0,"o":"m 324 975 l 324 183 l 635 183 l 635 0 l 86 0 l 86 975 m 313 1064 b 211 1165 256 1064 211 1108 b 313 1268 211 1224 256 1268 b 415 1165 371 1268 415 1224 b 313 1064 415 1108 371 1064 "},"ŀ":{"ha":410,"x_min":0,"x_max":0,"o":"m 204 1085 b 103 1188 146 1085 103 1129 b 204 1290 103 1246 146 1290 b 307 1188 263 1290 307 1246 b 204 1085 307 1129 263 1085 m 86 1028 l 324 1028 l 324 0 l 86 0 "},"Ł":{"ha":674,"x_min":0,"x_max":0,"o":"m 342 975 l 342 649 l 457 683 l 457 483 l 342 449 l 342 181 l 653 181 l 653 0 l 104 0 l 104 378 l 14 351 l 14 551 l 104 578 l 104 975 "},"ł":{"ha":446,"x_min":0,"x_max":0,"o":"m 104 383 l 14 356 l 14 557 l 104 585 l 104 1028 l 342 1028 l 342 656 l 433 683 l 433 482 l 342 454 l 342 0 l 104 0 "},"Ń":{"ha":1044,"x_min":0,"x_max":0,"o":"m 958 975 l 958 0 l 721 0 l 324 601 l 324 0 l 86 0 l 86 975 l 324 975 l 721 371 l 721 975 m 683 1356 l 683 1171 l 349 1031 l 349 1194 "},"ń":{"ha":936,"x_min":0,"x_max":0,"o":"m 663 1153 l 663 968 l 328 828 l 328 992 m 621 421 b 472 585 621 526 563 585 b 324 421 382 585 324 526 l 324 0 l 86 0 l 86 775 l 324 775 l 324 672 b 558 783 371 738 454 783 b 857 453 738 783 857 661 l 857 0 l 621 0 "},"Ņ":{"ha":1081,"x_min":0,"x_max":0,"o":"m 628 -56 b 656 -219 647 -114 656 -169 b 461 -431 656 -344 593 -431 l 461 -340 b 533 -249 508 -340 533 -311 l 533 -226 l 446 -226 l 446 -56 m 958 975 l 958 0 l 721 0 l 324 601 l 324 0 l 86 0 l 86 975 l 324 975 l 721 371 l 721 975 "},"ņ":{"ha":936,"x_min":0,"x_max":0,"o":"m 574 -56 b 601 -219 593 -114 601 -169 b 407 -431 601 -344 539 -431 l 407 -340 b 479 -249 454 -340 479 -311 l 479 -226 l 392 -226 l 392 -56 m 621 421 b 472 585 621 526 563 585 b 324 421 382 585 324 526 l 324 0 l 86 0 l 86 775 l 324 775 l 324 672 b 558 783 371 738 454 783 b 857 453 738 783 857 661 l 857 0 l 621 0 "},"Ň":{"ha":1044,"x_min":0,"x_max":0,"o":"m 958 975 l 958 0 l 721 0 l 324 601 l 324 0 l 86 0 l 86 975 l 324 975 l 721 371 l 721 975 m 738 1304 l 738 1140 l 522 1031 l 307 1140 l 307 1304 l 522 1183 "},"ň":{"ha":936,"x_min":0,"x_max":0,"o":"m 621 421 b 472 585 621 526 563 585 b 324 421 382 585 324 526 l 324 0 l 86 0 l 86 775 l 324 775 l 324 672 b 558 783 371 738 454 783 b 857 453 738 783 857 661 l 857 0 l 621 0 m 717 1101 l 717 938 l 501 828 l 286 938 l 286 1101 l 501 981 "},"Ō":{"ha":1092,"x_min":0,"x_max":0,"o":"m 1046 490 b 547 -10 1046 197 824 -10 b 46 490 271 -10 46 197 b 547 989 46 783 271 989 b 1046 490 825 989 1046 783 m 289 490 b 547 207 289 319 389 207 b 804 490 703 207 804 319 b 547 774 804 664 703 774 b 289 490 389 774 289 664 m 269 1239 l 825 1239 l 825 1075 l 269 1075 "},"ō":{"ha":885,"x_min":0,"x_max":0,"o":"m 844 388 b 439 -11 844 142 667 -11 b 39 388 211 -11 39 142 b 442 786 39 633 215 786 b 844 388 669 786 844 633 m 281 388 b 439 194 281 257 353 194 b 603 388 524 194 603 257 b 442 581 603 519 525 581 b 281 388 356 581 281 519 m 183 1042 l 739 1042 l 739 878 l 183 878 "},"Ŏ":{"ha":1092,"x_min":0,"x_max":0,"o":"m 1046 490 b 547 -10 1046 197 824 -10 b 46 490 271 -10 46 197 b 547 989 46 783 271 989 b 1046 490 825 989 1046 783 m 289 490 b 547 207 289 319 389 207 b 804 490 703 207 804 319 b 547 774 804 664 703 774 b 289 490 389 774 289 664 m 785 1274 b 547 1035 785 1118 686 1035 b 311 1275 408 1035 311 1119 l 311 1301 l 429 1301 b 547 1208 429 1243 457 1208 b 665 1301 638 1208 665 1243 l 785 1301 l 785 1274 "},"ŏ":{"ha":885,"x_min":0,"x_max":0,"o":"m 844 388 b 439 -11 844 142 667 -11 b 39 388 211 -11 39 142 b 442 786 39 633 215 786 b 844 388 669 786 844 633 m 281 388 b 439 194 281 257 353 194 b 603 388 524 194 603 257 b 442 581 603 519 525 581 b 281 388 356 581 281 519 m 699 1076 b 461 838 699 921 600 838 b 225 1078 322 838 225 922 l 225 1104 l 343 1104 b 461 1011 343 1046 371 1011 b 579 1104 551 1011 579 1046 l 699 1104 l 699 1076 "},"Ő":{"ha":1092,"x_min":0,"x_max":0,"o":"m 1046 490 b 547 -10 1046 197 824 -10 b 46 490 271 -10 46 197 b 547 989 46 783 271 989 b 1046 490 825 989 1046 783 m 289 490 b 547 207 289 319 389 207 b 804 490 703 207 804 319 b 547 774 804 664 703 774 b 289 490 389 774 289 664 m 614 1328 l 468 1038 l 322 1038 l 426 1328 m 904 1328 l 736 1038 l 590 1038 l 715 1328 "},"ő":{"ha":885,"x_min":0,"x_max":0,"o":"m 844 388 b 439 -11 844 142 667 -11 b 39 388 211 -11 39 142 b 442 786 39 633 215 786 b 844 388 669 786 844 633 m 281 388 b 439 194 281 257 353 194 b 603 388 524 194 603 257 b 442 581 603 519 525 581 b 281 388 356 581 281 519 m 528 1131 l 382 840 l 236 840 l 340 1131 m 818 1131 l 650 840 l 504 840 l 629 1131 "},"Œ":{"ha":1476,"x_min":0,"x_max":0,"o":"m 1049 788 l 1049 585 l 1368 585 l 1368 404 l 1049 404 l 1049 188 l 1410 188 l 1410 0 l 811 0 l 811 100 b 528 -14 740 24 640 -11 b 46 489 257 -14 46 193 b 528 989 46 783 258 989 b 811 878 640 989 740 953 l 811 975 l 1410 975 l 1410 788 m 547 771 b 289 489 389 771 289 661 b 547 204 289 317 389 204 b 804 489 703 204 804 317 b 547 771 804 661 703 771 "},"œ":{"ha":1446,"x_min":0,"x_max":0,"o":"m 603 388 b 440 582 603 519 525 582 b 281 388 356 582 281 519 b 439 193 281 257 353 193 b 603 388 524 193 603 257 m 997 596 b 846 451 917 596 857 544 l 1144 451 b 997 596 1143 544 1078 596 m 39 388 b 442 786 39 633 215 786 b 724 669 554 786 656 743 b 1001 786 790 743 886 786 b 1388 401 1228 786 1388 636 b 1382 333 1388 379 1386 357 l 844 333 b 989 182 853 228 913 182 b 1114 257 1057 182 1094 215 l 1367 257 b 997 -11 1329 106 1190 -11 b 724 106 885 -11 789 31 b 439 -11 654 31 553 -11 b 39 388 211 -11 39 142 "},"Ŕ":{"ha":906,"x_min":0,"x_max":0,"o":"m 601 658 b 471 778 601 731 560 778 l 324 778 l 324 536 l 471 536 b 601 658 560 536 601 582 m 485 975 b 843 668 724 975 843 838 b 626 386 843 546 776 431 l 851 0 l 583 0 l 381 368 l 324 368 l 324 0 l 86 0 l 86 975 m 607 1356 l 607 1171 l 272 1031 l 272 1194 "},"ŕ":{"ha":594,"x_min":0,"x_max":0,"o":"m 324 0 l 86 0 l 86 775 l 324 775 l 324 646 b 567 783 378 728 463 783 l 567 532 l 501 532 b 324 360 389 532 324 493 m 521 1153 l 521 968 l 186 828 l 186 992 "},"Ŗ":{"ha":928,"x_min":0,"x_max":0,"o":"m 551 -56 b 579 -219 571 -114 579 -169 b 385 -431 579 -344 517 -431 l 385 -340 b 457 -249 432 -340 457 -311 l 457 -226 l 369 -226 l 369 -56 m 86 0 l 86 975 l 485 975 b 843 668 724 975 843 838 b 626 386 843 546 776 431 l 851 0 l 583 0 l 381 368 l 324 368 l 324 0 m 601 658 b 471 778 601 731 560 778 l 324 778 l 324 536 l 471 536 b 601 658 560 536 601 582 "},"ŗ":{"ha":594,"x_min":0,"x_max":0,"o":"m 292 -56 b 318 -219 311 -114 318 -169 b 125 -431 318 -344 257 -431 l 125 -340 b 197 -249 171 -340 197 -311 l 197 -226 l 110 -226 l 110 -56 m 324 0 l 86 0 l 86 775 l 324 775 l 324 646 b 567 783 378 728 463 783 l 567 532 l 501 532 b 324 360 389 532 324 493 "},"Ř":{"ha":906,"x_min":0,"x_max":0,"o":"m 601 658 b 471 778 601 731 560 778 l 324 778 l 324 536 l 471 536 b 601 658 560 536 601 582 m 485 975 b 843 668 724 975 843 838 b 626 386 843 546 776 431 l 851 0 l 583 0 l 381 368 l 324 368 l 324 0 l 86 0 l 86 975 m 661 1304 l 661 1140 l 446 1031 l 231 1140 l 231 1304 l 446 1183 "},"ř":{"ha":594,"x_min":0,"x_max":0,"o":"m 324 0 l 86 0 l 86 775 l 324 775 l 324 646 b 567 783 378 728 463 783 l 567 532 l 501 532 b 324 360 389 532 324 493 m 575 1101 l 575 938 l 360 828 l 144 938 l 144 1101 l 360 981 "},"Ś":{"ha":854,"x_min":0,"x_max":0,"o":"m 794 290 b 439 -10 794 126 667 -10 b 58 292 229 -10 65 94 l 311 292 b 432 181 318 217 365 181 b 546 272 501 181 546 215 b 61 701 546 453 58 356 b 417 989 61 886 213 989 b 782 697 629 989 772 883 l 525 697 b 413 799 521 760 476 797 b 313 710 356 800 313 771 b 794 290 313 540 794 617 m 588 1361 l 588 1176 l 253 1036 l 253 1200 "},"ś":{"ha":775,"x_min":0,"x_max":0,"o":"m 715 225 b 401 -11 715 90 596 -11 b 44 254 194 -11 56 104 l 279 254 b 399 164 285 200 333 164 b 492 226 460 164 492 192 b 69 546 492 351 69 261 b 385 786 69 678 182 786 b 711 522 585 786 696 675 l 492 522 b 378 610 485 575 444 610 b 292 550 322 610 292 588 b 715 225 292 426 711 514 m 557 1158 l 557 974 l 222 833 l 222 997 "},"Ş":{"ha":854,"x_min":0,"x_max":0,"o":"m 794 290 b 510 -6 794 144 693 21 l 510 -61 b 690 -219 593 -61 690 -104 b 497 -381 690 -333 593 -381 l 283 -381 l 283 -250 l 465 -250 b 521 -214 500 -250 521 -242 b 465 -179 521 -187 500 -179 l 367 -179 l 367 -6 b 58 292 193 17 64 118 l 311 292 b 432 181 318 217 365 181 b 546 272 501 181 546 215 b 61 701 546 453 58 356 b 417 989 61 886 213 989 b 782 697 629 989 772 883 l 525 697 b 413 799 521 760 476 797 b 313 710 356 800 313 771 b 794 290 313 540 794 617 "},"ş":{"ha":775,"x_min":0,"x_max":0,"o":"m 715 225 b 478 -6 715 108 626 18 l 478 -57 b 658 -215 561 -57 658 -100 b 465 -376 658 -329 561 -376 l 251 -376 l 251 -246 l 433 -246 b 489 -210 468 -246 489 -237 b 433 -175 489 -183 468 -175 l 335 -175 l 335 -7 b 44 254 165 15 54 121 l 279 254 b 399 164 285 200 333 164 b 492 226 460 164 492 192 b 69 546 492 351 69 261 b 385 786 69 678 182 786 b 711 522 585 786 696 675 l 492 522 b 378 610 485 575 444 610 b 292 550 322 610 292 588 b 715 225 292 426 711 514 "},"Š":{"ha":854,"x_min":0,"x_max":0,"o":"m 794 290 b 439 -10 794 126 667 -10 b 58 292 229 -10 65 94 l 311 292 b 432 181 318 217 365 181 b 546 272 501 181 546 215 b 61 701 546 453 58 356 b 417 989 61 886 213 989 b 782 697 629 989 772 883 l 525 697 b 413 799 521 760 476 797 b 313 710 356 800 313 771 b 794 290 313 540 794 617 m 640 1310 l 640 1146 l 425 1036 l 210 1146 l 210 1310 l 425 1189 "},"š":{"ha":775,"x_min":0,"x_max":0,"o":"m 715 225 b 401 -11 715 90 596 -11 b 44 254 194 -11 56 104 l 279 254 b 399 164 285 200 333 164 b 492 226 460 164 492 192 b 69 546 492 351 69 261 b 385 786 69 678 182 786 b 711 522 585 786 696 675 l 492 522 b 378 610 485 575 444 610 b 292 550 322 610 292 588 b 715 225 292 426 711 514 m 611 1107 l 611 943 l 396 833 l 181 943 l 181 1107 l 396 986 "},"Ţ":{"ha":821,"x_min":0,"x_max":0,"o":"m 33 975 l 788 975 l 788 785 l 529 785 l 529 0 l 488 0 l 488 -57 b 668 -215 571 -57 668 -100 b 475 -376 668 -329 571 -376 l 261 -376 l 261 -246 l 443 -246 b 499 -210 478 -246 499 -237 b 443 -175 499 -183 478 -175 l 344 -175 l 344 0 l 292 0 l 292 785 l 33 785 "},"ţ":{"ha":564,"x_min":0,"x_max":0,"o":"m 124 578 l 29 578 l 29 775 l 124 775 l 124 964 l 361 964 l 361 775 l 517 775 l 517 578 l 361 578 l 361 267 b 433 201 361 221 381 201 l 518 201 l 518 0 l 397 0 b 378 0 390 0 385 0 l 378 -51 b 558 -210 463 -51 558 -94 b 365 -371 558 -324 461 -371 l 153 -371 l 153 -240 l 333 -240 b 389 -204 368 -240 389 -232 b 333 -169 389 -178 368 -169 l 235 -169 l 235 35 b 124 269 165 74 124 147 "},"Ť":{"ha":821,"x_min":0,"x_max":0,"o":"m 33 975 l 788 975 l 788 785 l 529 785 l 529 0 l 292 0 l 292 785 l 33 785 m 622 1304 l 622 1140 l 407 1031 l 192 1140 l 192 1304 l 407 1183 "},"ť":{"ha":567,"x_min":0,"x_max":0,"o":"m 614 1167 b 642 1017 633 1108 642 1067 b 447 833 642 906 579 833 l 447 924 b 519 974 494 924 519 939 l 519 996 l 432 996 l 432 1167 m 124 578 l 29 578 l 29 775 l 124 775 l 124 964 l 361 964 l 361 775 l 517 775 l 517 578 l 361 578 l 361 267 b 433 201 361 221 381 201 l 518 201 l 518 0 l 397 0 b 124 269 236 0 124 68 "},"Ũ":{"ha":979,"x_min":0,"x_max":0,"o":"m 82 975 l 319 975 l 319 392 b 489 210 319 276 376 210 b 661 392 601 210 661 276 l 661 975 l 899 975 l 899 393 b 485 -10 899 124 710 -10 b 82 393 258 -10 82 124 m 213 1043 b 404 1249 236 1189 306 1249 b 586 1186 488 1249 531 1186 b 646 1249 618 1186 640 1206 l 768 1249 b 576 1043 744 1103 674 1043 b 394 1106 493 1043 450 1106 b 333 1043 363 1106 340 1086 l 213 1043 "},"ũ":{"ha":936,"x_min":0,"x_max":0,"o":"m 614 106 b 379 -8 567 39 483 -8 b 79 322 200 -8 79 115 l 79 775 l 315 775 l 315 354 b 464 190 315 249 375 190 b 614 354 556 190 614 249 l 614 775 l 851 775 l 851 0 l 614 0 m 190 840 b 382 1046 214 986 283 1046 b 564 983 465 1046 508 983 b 624 1046 596 983 618 1003 l 746 1046 b 554 840 722 900 651 840 b 372 903 471 840 428 903 b 311 840 340 903 318 883 l 190 840 "},"Ū":{"ha":979,"x_min":0,"x_max":0,"o":"m 82 975 l 319 975 l 319 392 b 489 210 319 276 376 210 b 661 392 601 210 661 276 l 661 975 l 899 975 l 899 393 b 485 -10 899 124 710 -10 b 82 393 258 -10 82 124 m 213 1239 l 768 1239 l 768 1075 l 213 1075 "},"ū":{"ha":936,"x_min":0,"x_max":0,"o":"m 851 0 l 614 0 l 614 106 b 379 -8 567 39 483 -8 b 79 322 200 -8 79 115 l 79 775 l 315 775 l 315 354 b 464 190 315 249 375 190 b 614 354 556 190 614 249 l 614 775 l 851 775 m 192 1036 l 747 1036 l 747 872 l 192 872 "},"Ŭ":{"ha":979,"x_min":0,"x_max":0,"o":"m 82 975 l 319 975 l 319 392 b 489 210 319 276 376 210 b 661 392 601 210 661 276 l 661 975 l 899 975 l 899 393 b 485 -10 899 124 710 -10 b 82 393 258 -10 82 124 m 728 1274 b 490 1035 728 1118 629 1035 b 254 1275 351 1035 254 1119 l 254 1301 l 372 1301 b 490 1208 372 1243 400 1208 b 608 1301 581 1208 608 1243 l 728 1301 l 728 1274 "},"ŭ":{"ha":936,"x_min":0,"x_max":0,"o":"m 851 0 l 614 0 l 614 106 b 379 -8 567 39 483 -8 b 79 322 200 -8 79 115 l 79 775 l 315 775 l 315 354 b 464 190 315 249 375 190 b 614 354 556 190 614 249 l 614 775 l 851 775 m 707 1071 b 469 832 707 915 608 832 b 233 1072 331 832 233 917 l 233 1099 l 351 1099 b 469 1006 351 1040 379 1006 b 588 1099 560 1006 588 1040 l 707 1099 l 707 1071 "},"Ů":{"ha":979,"x_min":0,"x_max":0,"o":"m 82 975 l 319 975 l 319 392 b 489 210 319 276 376 210 b 661 392 601 210 661 276 l 661 975 l 899 975 l 899 393 b 485 -10 899 124 710 -10 b 82 393 258 -10 82 124 m 490 1371 b 661 1203 585 1371 661 1307 b 490 1035 661 1099 585 1035 b 321 1203 397 1035 321 1099 b 490 1371 321 1307 397 1371 m 490 1135 b 557 1203 528 1135 557 1163 b 490 1271 557 1244 528 1271 b 425 1203 454 1271 425 1244 b 490 1135 425 1163 454 1135 "},"ů":{"ha":936,"x_min":0,"x_max":0,"o":"m 851 0 l 614 0 l 614 106 b 379 -8 567 39 483 -8 b 79 322 200 -8 79 115 l 79 775 l 315 775 l 315 354 b 464 190 315 249 375 190 b 614 354 556 190 614 249 l 614 775 l 851 775 m 469 932 b 536 1000 507 932 536 960 b 469 1068 536 1042 507 1068 b 404 1000 433 1068 404 1042 b 469 932 404 960 433 932 m 469 1168 b 640 1000 564 1168 640 1104 b 469 832 640 896 564 832 b 300 1000 376 832 300 896 b 469 1168 300 1104 376 1168 "},"Ű":{"ha":979,"x_min":0,"x_max":0,"o":"m 82 975 l 319 975 l 319 392 b 489 210 319 276 376 210 b 661 392 601 210 661 276 l 661 975 l 899 975 l 899 393 b 485 -10 899 124 710 -10 b 82 393 258 -10 82 124 m 557 1328 l 411 1038 l 265 1038 l 369 1328 m 847 1328 l 679 1038 l 533 1038 l 658 1328 "},"ű":{"ha":936,"x_min":0,"x_max":0,"o":"m 851 0 l 614 0 l 614 106 b 379 -8 567 39 483 -8 b 79 322 200 -8 79 115 l 79 775 l 315 775 l 315 354 b 464 190 315 249 375 190 b 614 354 556 190 614 249 l 614 775 l 851 775 m 536 1125 l 390 835 l 244 835 l 349 1125 m 826 1125 l 658 835 l 513 835 l 638 1125 "},"Ų":{"ha":979,"x_min":0,"x_max":0,"o":"m 82 975 l 319 975 l 319 392 b 489 210 319 276 376 210 b 661 392 601 210 661 276 l 661 975 l 899 975 l 899 393 b 604 4 899 174 772 43 l 604 3 l 540 -29 b 447 -119 472 -64 447 -89 b 508 -165 447 -147 469 -165 b 614 -144 538 -165 575 -158 l 614 -278 b 478 -299 575 -290 528 -299 b 272 -140 363 -299 272 -247 b 354 7 272 -87 293 -40 b 82 393 194 50 82 179 "},"ų":{"ha":936,"x_min":0,"x_max":0,"o":"m 851 0 l 850 0 l 851 -3 l 788 -35 b 694 -125 719 -69 694 -94 b 756 -171 694 -153 717 -171 b 861 -150 785 -171 822 -164 l 861 -283 b 725 -304 822 -296 775 -304 b 519 -146 610 -304 519 -253 b 614 11 519 -90 543 -39 l 614 106 b 379 -8 567 39 483 -8 b 79 322 200 -8 79 115 l 79 775 l 315 775 l 315 354 b 464 190 315 249 375 190 b 614 354 556 190 614 249 l 614 775 l 851 775 "},"Ŵ":{"ha":1461,"x_min":0,"x_max":0,"o":"m 35 975 l 289 975 l 429 265 l 603 975 l 864 975 l 1031 265 l 1172 975 l 1428 975 l 1174 0 l 886 0 l 731 642 l 569 0 l 282 0 m 943 1032 l 728 1146 l 513 1032 l 513 1196 l 728 1306 l 943 1196 "},"ŵ":{"ha":1203,"x_min":0,"x_max":0,"o":"m 6 775 l 243 775 l 353 221 l 483 775 l 735 775 l 867 224 l 975 775 l 1199 775 l 989 0 l 726 0 l 604 503 l 478 0 l 217 0 m 818 828 l 603 942 l 388 828 l 388 992 l 603 1101 l 818 992 "},"Ŷ":{"ha":932,"x_min":0,"x_max":0,"o":"m 10 975 l 279 975 l 468 567 l 656 975 l 922 975 l 585 322 l 585 0 l 347 0 l 347 322 m 682 1031 l 467 1144 l 251 1031 l 251 1194 l 467 1304 l 682 1194 "},"ŷ":{"ha":878,"x_min":0,"x_max":0,"o":"m 621 775 l 878 775 l 392 -368 l 136 -368 l 314 26 l -1 775 l 264 775 l 443 290 m 654 828 l 439 942 l 224 828 l 224 992 l 439 1101 l 654 992 "},"Ÿ":{"ha":932,"x_min":0,"x_max":0,"o":"m 10 975 l 279 975 l 468 567 l 656 975 l 922 975 l 585 322 l 585 0 l 347 0 l 347 322 m 326 1064 b 225 1165 269 1064 225 1108 b 326 1268 225 1224 269 1268 b 429 1165 385 1268 429 1224 b 326 1064 429 1108 385 1064 m 604 1064 b 503 1165 547 1064 503 1108 b 604 1268 503 1224 547 1268 b 707 1165 663 1268 707 1224 b 604 1064 707 1108 663 1064 "},"Ź":{"ha":828,"x_min":0,"x_max":0,"o":"m 758 794 l 339 194 l 758 194 l 758 0 l 69 0 l 69 181 l 486 781 l 69 781 l 69 975 l 758 975 m 575 1356 l 575 1171 l 240 1031 l 240 1194 "},"ź":{"ha":689,"x_min":0,"x_max":0,"o":"m 638 586 l 308 196 l 644 196 l 644 0 l 43 0 l 43 189 l 365 579 l 46 579 l 46 775 l 638 775 m 511 1153 l 511 968 l 176 828 l 176 992 "},"Ż":{"ha":828,"x_min":0,"x_max":0,"o":"m 758 794 l 339 194 l 758 194 l 758 0 l 69 0 l 69 181 l 486 781 l 69 781 l 69 975 l 758 975 m 413 1064 b 311 1165 356 1064 311 1108 b 413 1268 311 1224 356 1268 b 515 1165 471 1268 515 1224 b 413 1064 515 1108 471 1064 "},"ż":{"ha":689,"x_min":0,"x_max":0,"o":"m 638 586 l 308 196 l 644 196 l 644 0 l 43 0 l 43 189 l 365 579 l 46 579 l 46 775 l 638 775 m 349 861 b 247 963 292 861 247 906 b 349 1065 247 1021 292 1065 b 451 963 407 1065 451 1021 b 349 861 451 906 407 861 "},"Ž":{"ha":828,"x_min":0,"x_max":0,"o":"m 758 794 l 339 194 l 758 194 l 758 0 l 69 0 l 69 181 l 486 781 l 69 781 l 69 975 l 758 975 m 629 1304 l 629 1140 l 414 1031 l 199 1140 l 199 1304 l 414 1183 "},"ž":{"ha":689,"x_min":0,"x_max":0,"o":"m 638 586 l 308 196 l 644 196 l 644 0 l 43 0 l 43 189 l 365 579 l 46 579 l 46 775 l 638 775 m 565 1101 l 565 938 l 350 828 l 135 938 l 135 1101 l 350 981 "},"Ə":{"ha":1081,"x_min":0,"x_max":0,"o":"m 536 207 b 772 397 656 207 757 275 l 307 397 b 536 207 313 283 407 207 m 540 -11 b 63 471 254 -11 63 169 b 68 557 63 497 65 528 l 774 557 b 542 781 765 699 665 781 b 336 656 444 781 365 733 l 78 656 b 539 994 131 854 303 994 b 1021 492 826 994 1021 796 b 540 -11 1021 189 829 -11 "},"ƒ":{"ha":467,"x_min":0,"x_max":0,"o":"m 118 804 b 486 1088 139 1001 256 1088 l 465 886 b 356 804 394 886 361 865 l 353 775 l 464 775 l 444 578 l 332 578 l 258 -114 b -50 -369 238 -312 113 -369 l -87 -369 l -68 -168 l -31 -168 b 21 -114 0 -168 17 -150 l 94 578 l 21 578 l 40 775 l 115 775 l 118 804 "},"Ǽ":{"ha":1326,"x_min":0,"x_max":0,"o":"m 878 1354 l 878 1169 l 543 1029 l 543 1193 m 440 344 l 669 344 l 669 799 m 907 788 l 907 588 l 1217 588 l 1217 407 l 907 407 l 907 188 l 1258 188 l 1258 0 l 669 0 l 669 164 l 349 164 l 265 0 l 8 0 l 507 975 l 1258 975 l 1258 788 "},"ǽ":{"ha":1486,"x_min":0,"x_max":0,"o":"m 1036 596 b 864 454 953 596 881 550 l 1203 454 b 1036 596 1201 544 1128 596 m 1426 257 b 1101 -11 1389 106 1271 -11 b 849 111 988 -11 897 38 l 849 0 l 622 0 l 622 111 b 381 -11 575 40 490 -11 b 39 389 190 -11 39 144 b 385 786 39 633 190 786 b 625 667 490 786 572 743 l 625 775 l 849 775 l 849 667 b 1101 786 906 747 990 786 b 1446 401 1303 786 1446 633 b 1439 333 1446 379 1443 357 l 864 333 b 1031 179 878 225 953 179 b 1174 257 1108 179 1154 211 l 1426 257 m 281 389 b 450 196 281 265 361 196 b 619 388 540 196 619 264 b 450 579 619 511 540 579 b 281 389 361 579 281 513 m 947 1153 l 947 968 l 613 828 l 613 992 "},"Ș":{"ha":899,"x_min":0,"x_max":0,"o":"m 538 -56 b 565 -219 557 -114 565 -169 b 371 -431 565 -344 503 -431 l 371 -340 b 443 -249 418 -340 443 -311 l 443 -226 l 356 -226 l 356 -56 m 794 290 b 439 -10 794 126 667 -10 b 58 292 229 -10 65 94 l 311 292 b 432 181 318 217 365 181 b 546 272 501 181 546 215 b 61 701 546 453 58 356 b 417 989 61 886 213 989 b 782 697 629 989 772 883 l 525 697 b 413 799 521 760 476 797 b 313 710 356 800 313 771 b 794 290 313 540 794 617 "},"ș":{"ha":775,"x_min":0,"x_max":0,"o":"m 474 -56 b 501 -219 493 -114 501 -169 b 307 -431 501 -344 439 -431 l 307 -340 b 379 -249 354 -340 379 -311 l 379 -226 l 292 -226 l 292 -56 m 715 225 b 401 -11 715 90 596 -11 b 44 254 194 -11 56 104 l 279 254 b 399 164 285 200 333 164 b 492 226 460 164 492 192 b 69 546 492 351 69 261 b 385 786 69 678 182 786 b 711 522 585 786 696 675 l 492 522 b 378 610 485 575 444 610 b 292 550 322 610 292 588 b 715 225 292 426 711 514 "},"Ț":{"ha":821,"x_min":0,"x_max":0,"o":"m 500 -56 b 526 -219 518 -114 526 -169 b 332 -431 526 -344 464 -431 l 332 -340 b 406 -249 379 -340 406 -311 l 406 -226 l 318 -226 l 318 -56 m 33 975 l 788 975 l 788 785 l 529 785 l 529 0 l 292 0 l 292 785 l 33 785 "},"ț":{"ha":564,"x_min":0,"x_max":0,"o":"m 376 -56 b 404 -219 396 -114 404 -169 b 210 -431 404 -344 342 -431 l 210 -340 b 282 -249 257 -340 282 -311 l 282 -226 l 194 -226 l 194 -56 m 124 578 l 29 578 l 29 775 l 124 775 l 124 964 l 361 964 l 361 775 l 517 775 l 517 578 l 361 578 l 361 267 b 433 201 361 221 381 201 l 518 201 l 518 0 l 397 0 b 124 269 236 0 124 68 "},"ə":{"ha":856,"x_min":0,"x_max":0,"o":"m 428 179 b 579 313 506 179 565 226 l 282 313 b 428 179 282 228 349 179 m 425 -11 b 39 375 199 -11 39 139 b 43 444 39 397 40 421 l 581 444 b 433 593 572 546 510 593 b 310 518 367 593 329 560 l 57 518 b 425 786 94 669 232 786 b 817 388 653 786 817 633 b 425 -11 817 142 656 -11 "},"ʼ":{"ha":436,"x_min":0,"x_max":0,"o":"m 68 603 l 140 975 l 383 975 l 228 603 "},"ˆ":{"ha":458,"x_min":0,"x_max":0,"o":"m 444 828 l 229 942 l 14 828 l 14 992 l 229 1101 l 444 992 "},"ˇ":{"ha":458,"x_min":0,"x_max":0,"o":"m 444 1101 l 444 938 l 229 828 l 14 938 l 14 1101 l 229 981 "},"ˉ":{"ha":583,"x_min":0,"x_max":0,"o":"m 14 1036 l 569 1036 l 569 872 l 14 872 "},"˘":{"ha":500,"x_min":0,"x_max":0,"o":"m 488 1071 b 250 832 488 915 389 832 b 14 1072 111 832 14 917 l 14 1099 l 132 1099 b 250 1006 132 1040 160 1006 b 368 1099 340 1006 368 1040 l 488 1099 l 488 1071 "},"˙":{"ha":232,"x_min":0,"x_max":0,"o":"m 115 861 b 14 963 58 861 14 906 b 115 1065 14 1021 58 1065 b 218 963 174 1065 218 1021 b 115 861 218 906 174 861 "},"˚":{"ha":364,"x_min":0,"x_max":0,"o":"m 182 1168 b 353 1000 276 1168 353 1104 b 182 832 353 896 276 832 b 13 1000 89 832 13 896 b 182 1168 13 1104 89 1168 m 182 932 b 249 1000 219 932 249 960 b 182 1068 249 1042 219 1068 b 117 1000 146 1068 117 1042 b 182 932 117 960 146 932 "},"˛":{"ha":375,"x_min":0,"x_max":0,"o":"m 301 107 l 351 0 l 288 -32 b 194 -122 219 -67 194 -92 b 256 -168 194 -150 217 -168 b 361 -147 285 -168 322 -161 l 361 -281 b 225 -301 322 -293 275 -301 b 19 -143 110 -301 19 -250 b 246 83 19 -61 69 10 "},"˜":{"ha":569,"x_min":0,"x_max":0,"o":"m 7 840 b 199 1046 31 986 100 1046 b 381 983 282 1046 325 983 b 440 1046 413 983 435 1003 l 563 1046 b 371 840 539 900 468 840 b 189 903 288 840 244 903 b 128 840 157 903 135 883 l 7 840 "},"˝":{"ha":615,"x_min":0,"x_max":0,"o":"m 306 1125 l 160 835 l 14 835 l 118 1125 m 596 1125 l 428 835 l 282 835 l 407 1125 "},"π":{"ha":982,"x_min":0,"x_max":0,"o":"m 28 775 l 954 775 l 954 594 l 857 594 l 857 0 l 619 0 l 619 594 l 363 594 l 363 0 l 125 0 l 125 594 l 28 594 "},"Ẁ":{"ha":1461,"x_min":0,"x_max":0,"o":"m 35 975 l 289 975 l 429 265 l 603 975 l 864 975 l 1031 265 l 1172 975 l 1428 975 l 1174 0 l 886 0 l 731 642 l 569 0 l 282 0 m 538 1353 l 872 1192 l 872 1028 l 538 1168 "},"ẁ":{"ha":1203,"x_min":0,"x_max":0,"o":"m 6 775 l 243 775 l 353 221 l 483 775 l 735 775 l 867 224 l 975 775 l 1199 775 l 989 0 l 726 0 l 604 503 l 478 0 l 217 0 m 403 1153 l 738 992 l 738 828 l 403 968 "},"Ẃ":{"ha":1461,"x_min":0,"x_max":0,"o":"m 35 975 l 289 975 l 429 265 l 603 975 l 864 975 l 1031 265 l 1172 975 l 1428 975 l 1174 0 l 886 0 l 731 642 l 569 0 l 282 0 m 932 1357 l 932 1172 l 597 1032 l 597 1196 "},"ẃ":{"ha":1203,"x_min":0,"x_max":0,"o":"m 6 775 l 243 775 l 353 221 l 483 775 l 735 775 l 867 224 l 975 775 l 1199 775 l 989 0 l 726 0 l 604 503 l 478 0 l 217 0 m 806 1153 l 806 968 l 471 828 l 471 992 "},"Ẅ":{"ha":1461,"x_min":0,"x_max":0,"o":"m 35 975 l 289 975 l 429 265 l 603 975 l 864 975 l 1031 265 l 1172 975 l 1428 975 l 1174 0 l 886 0 l 731 642 l 569 0 l 282 0 m 589 1063 b 488 1164 532 1063 488 1107 b 589 1267 488 1222 532 1267 b 692 1164 647 1267 692 1222 b 589 1063 692 1107 647 1063 m 867 1063 b 765 1164 810 1063 765 1107 b 867 1267 765 1222 810 1267 b 969 1164 925 1267 969 1222 b 867 1063 969 1107 925 1063 "},"ẅ":{"ha":1203,"x_min":0,"x_max":0,"o":"m 6 775 l 243 775 l 353 221 l 483 775 l 735 775 l 867 224 l 975 775 l 1199 775 l 989 0 l 726 0 l 604 503 l 478 0 l 217 0 m 463 861 b 361 963 406 861 361 906 b 463 1065 361 1021 406 1065 b 565 963 521 1065 565 1021 b 463 861 565 906 521 861 m 740 861 b 639 963 683 861 639 906 b 740 1065 639 1021 683 1065 b 843 963 799 1065 843 1021 b 740 861 843 906 799 861 "},"Ẽ":{"ha":751,"x_min":0,"x_max":0,"o":"m 683 785 l 324 785 l 324 588 l 642 588 l 642 404 l 324 404 l 324 190 l 683 190 l 683 0 l 86 0 l 86 975 l 683 975 m 100 1043 b 292 1249 124 1189 193 1249 b 474 1186 375 1249 418 1186 b 533 1249 506 1186 528 1206 l 656 1249 b 464 1043 632 1103 561 1043 b 282 1106 381 1043 338 1106 b 221 1043 250 1106 228 1086 l 100 1043 "},"ẽ":{"ha":856,"x_min":0,"x_max":0,"o":"m 428 596 b 276 463 350 596 290 549 l 574 463 b 428 596 574 547 507 596 m 799 257 b 431 -11 761 106 624 -11 b 39 388 203 -11 39 142 b 431 786 39 633 200 786 b 817 400 657 786 817 636 b 813 331 817 378 815 354 l 275 331 b 422 182 283 229 346 182 b 546 257 489 182 526 215 l 799 257 m 150 846 b 342 1051 174 992 243 1051 b 524 989 425 1051 468 989 b 583 1051 556 989 578 1008 l 706 1051 b 514 846 682 906 611 846 b 332 908 431 846 388 908 b 271 846 300 908 278 889 l 150 846 "},"Ỳ":{"ha":932,"x_min":0,"x_max":0,"o":"m 10 975 l 279 975 l 468 567 l 656 975 l 922 975 l 585 322 l 585 0 l 347 0 l 347 322 m 293 1356 l 628 1194 l 628 1031 l 293 1171 "},"ỳ":{"ha":878,"x_min":0,"x_max":0,"o":"m 621 775 l 878 775 l 392 -368 l 136 -368 l 314 26 l -1 775 l 264 775 l 443 290 m 265 1153 l 600 992 l 600 828 l 265 968 "},"Ỹ":{"ha":932,"x_min":0,"x_max":0,"o":"m 10 975 l 279 975 l 468 567 l 656 975 l 922 975 l 585 322 l 585 0 l 347 0 l 347 322 m 189 1043 b 381 1249 213 1189 282 1249 b 563 1186 464 1249 507 1186 b 622 1249 594 1186 617 1206 l 744 1249 b 553 1043 721 1103 650 1043 b 371 1106 469 1043 426 1106 b 310 1043 339 1106 317 1086 l 189 1043 "},"ỹ":{"ha":878,"x_min":0,"x_max":0,"o":"m 621 775 l 878 775 l 392 -368 l 136 -368 l 314 26 l -1 775 l 264 775 l 443 290 m 161 840 b 353 1046 185 986 254 1046 b 535 983 436 1046 479 983 b 594 1046 567 983 589 1003 l 717 1046 b 525 840 693 900 622 840 b 343 903 442 840 399 903 b 282 840 311 903 289 883 l 161 840 "},"–":{"ha":965,"x_min":0,"x_max":0,"o":"m 97 586 l 868 586 l 868 389 l 97 389 "},"—":{"ha":1292,"x_min":0,"x_max":0,"o":"m 97 586 l 1194 586 l 1194 389 l 97 389 "},"‘":{"ha":436,"x_min":0,"x_max":0,"o":"m 368 975 l 296 603 l 53 603 l 208 975 "},"’":{"ha":436,"x_min":0,"x_max":0,"o":"m 68 603 l 140 975 l 383 975 l 228 603 "},"‚":{"ha":335,"x_min":0,"x_max":0,"o":"m 115 240 l 358 240 l 182 -210 l 26 -210 "},"“":{"ha":754,"x_min":0,"x_max":0,"o":"m 368 975 l 296 603 l 53 603 l 208 975 m 685 975 l 613 603 l 369 603 l 525 975 "},"”":{"ha":760,"x_min":0,"x_max":0,"o":"m 392 603 l 464 975 l 707 975 l 551 603 m 75 603 l 147 975 l 390 975 l 235 603 "},"„":{"ha":806,"x_min":0,"x_max":0,"o":"m 115 240 l 358 240 l 182 -210 l 26 -210 m 518 240 l 761 240 l 585 -210 l 429 -210 "},"†":{"ha":908,"x_min":0,"x_max":0,"o":"m 839 775 l 839 594 l 549 613 l 572 -369 l 335 -369 l 358 613 l 69 594 l 69 775 l 358 757 l 335 1096 l 572 1096 l 549 757 "},"‡":{"ha":908,"x_min":0,"x_max":0,"o":"m 839 594 l 549 613 l 549 114 l 839 132 l 839 -49 l 549 -31 l 572 -369 l 335 -369 l 358 -31 l 69 -49 l 69 132 l 358 114 l 358 613 l 69 594 l 69 775 l 358 757 l 335 1096 l 572 1096 l 549 757 l 839 775 "},"•":{"ha":696,"x_min":0,"x_max":0,"o":"m 347 254 b 139 463 231 254 139 346 b 347 672 139 581 231 672 b 557 463 465 672 557 581 b 347 254 557 346 465 254 "},"…":{"ha":1056,"x_min":0,"x_max":0,"o":"m 671 117 b 531 -11 671 46 614 -11 b 389 117 446 -11 389 46 b 531 247 389 190 446 247 b 671 117 614 247 671 190 m 1006 117 b 865 -11 1006 46 949 -11 b 724 117 781 -11 724 46 b 865 247 724 190 781 247 b 1006 117 949 247 1006 190 m 338 117 b 197 -11 338 46 281 -11 b 56 117 113 -11 56 46 b 197 247 56 190 113 247 b 338 117 281 247 338 190 "},"‰":{"ha":1638,"x_min":0,"x_max":0,"o":"m 42 758 b 274 992 42 911 142 992 b 504 758 406 992 504 911 b 274 525 504 606 406 525 b 42 758 142 525 42 606 m 272 851 b 206 758 231 851 206 822 b 272 665 206 694 231 665 b 340 758 314 665 340 694 b 272 851 340 822 314 851 m 718 978 l 947 978 l 413 0 l 183 0 m 626 219 b 858 453 626 372 726 453 b 1089 219 990 453 1089 372 b 858 -14 1089 67 990 -14 b 626 219 726 -14 626 67 m 857 313 b 790 219 815 313 790 283 b 857 126 790 156 815 126 b 925 219 899 126 925 156 b 857 313 925 283 899 313 m 1133 219 b 1365 453 1133 372 1233 453 b 1596 219 1497 453 1596 372 b 1365 -14 1596 67 1497 -14 b 1133 219 1233 -14 1133 67 m 1364 313 b 1297 219 1322 313 1297 283 b 1364 126 1297 156 1322 126 b 1432 219 1406 126 1432 156 b 1364 313 1432 283 1406 313 "},"‹":{"ha":468,"x_min":0,"x_max":0,"o":"m 399 167 l 179 167 l 63 410 l 179 653 l 399 653 l 278 410 "},"›":{"ha":468,"x_min":0,"x_max":0,"o":"m 69 167 l 190 410 l 69 653 l 289 653 l 406 410 l 289 167 "},"⁄":{"ha":792,"x_min":0,"x_max":0,"o":"m 549 978 l 778 978 l 243 0 l 14 0 "},"€":{"ha":1106,"x_min":0,"x_max":0,"o":"m 114 489 b 115 529 114 503 114 517 l 28 529 l 28 654 l 138 654 b 603 986 199 856 372 986 b 1065 644 835 986 1010 856 l 804 644 b 600 767 764 725 690 767 b 396 654 510 767 438 725 l 628 654 l 628 529 l 357 529 b 356 489 356 517 356 503 b 357 451 356 476 356 464 l 628 451 l 628 328 l 393 328 b 600 210 435 253 508 210 b 804 333 690 210 764 253 l 1065 333 b 603 -7 1010 122 835 -7 b 136 328 371 -7 196 125 l 28 328 l 28 451 l 115 451 b 114 489 114 464 114 476 "},"₺":{"ha":1158,"x_min":0,"x_max":0,"o":"m 433 757 l 619 792 l 619 644 l 433 611 l 433 531 l 619 564 l 619 417 l 433 383 l 433 221 b 542 211 472 213 507 211 b 829 633 789 211 829 399 l 1071 633 b 543 -11 1071 186 925 -11 b 192 29 438 -11 321 4 l 192 340 l 17 308 l 17 456 l 192 488 l 192 567 l 14 535 l 14 678 l 192 711 l 192 982 l 433 982 "},"₽":{"ha":936,"x_min":0,"x_max":0,"o":"m 393 560 l 531 560 b 657 676 617 560 657 607 b 531 794 657 744 617 794 l 393 794 m 25 560 l 156 560 l 156 975 l 540 975 b 899 676 779 975 899 844 b 540 378 899 517 790 378 l 393 378 l 393 294 l 608 294 l 608 114 l 393 114 l 393 0 l 156 0 l 156 114 l 25 114 l 25 294 l 156 294 l 156 378 l 25 378 "},"ℓ":{"ha":410,"x_min":0,"x_max":0,"o":"m 86 1028 l 324 1028 l 324 0 l 86 0 "},"™":{"ha":1226,"x_min":0,"x_max":0,"o":"m 38 981 l 438 981 l 438 843 l 322 843 l 324 493 l 151 493 l 153 843 l 38 843 m 508 981 l 739 981 l 838 701 l 951 981 l 1164 981 l 1164 493 l 1007 493 l 1003 772 l 889 493 l 774 493 l 660 786 l 660 493 l 508 493 "},"Ω":{"ha":1094,"x_min":0,"x_max":0,"o":"m 49 513 b 547 989 49 807 269 989 b 1046 513 825 989 1046 807 b 906 181 1046 382 1008 264 l 1039 181 l 1039 0 l 664 0 l 664 186 b 804 485 746 254 804 349 b 547 771 804 667 703 771 b 290 485 392 771 290 667 b 431 186 290 349 349 254 l 431 0 l 56 0 l 56 181 l 190 181 b 49 513 88 264 49 382 "},"℮":{"ha":1039,"x_min":0,"x_max":0,"o":"m 950 186 b 532 -10 833 61 696 -10 b 49 467 256 -10 49 163 b 519 990 49 761 217 990 b 990 532 822 990 990 768 l 990 444 l 313 444 l 313 199 b 532 128 375 153 446 128 b 868 281 665 128 771 183 l 950 186 m 724 567 l 724 797 b 519 857 672 838 600 857 b 313 788 432 857 365 832 l 313 567 "},"∂":{"ha":854,"x_min":0,"x_max":0,"o":"m 553 439 b 446 581 553 535 507 581 b 288 347 347 581 288 481 b 396 193 288 239 335 193 b 553 439 492 193 553 300 m 47 346 b 426 779 47 603 218 779 b 579 719 488 779 539 761 b 374 893 558 824 500 893 b 282 883 346 893 315 890 l 282 1004 b 443 1028 340 1021 394 1028 b 807 563 682 1028 807 844 b 372 -10 807 206 632 -10 b 47 346 196 -10 47 103 "},"∆":{"ha":1021,"x_min":0,"x_max":0,"o":"m 414 978 l 607 978 l 993 181 l 993 0 l 28 0 l 28 181 m 511 708 l 272 181 l 749 181 "},"∏":{"ha":1038,"x_min":0,"x_max":0,"o":"m 28 978 l 1010 978 l 1010 797 l 913 797 l 913 0 l 675 0 l 675 797 l 363 797 l 363 0 l 125 0 l 125 797 l 28 797 "},"∑":{"ha":744,"x_min":0,"x_max":0,"o":"m 56 978 l 689 978 l 689 797 l 275 797 l 608 560 l 608 379 l 267 111 l 689 111 l 689 -69 l 56 -69 l 56 207 l 382 464 l 56 701 "},"−":{"ha":754,"x_min":0,"x_max":0,"o":"m 72 586 l 683 586 l 683 389 l 72 389 "},"∕":{"ha":629,"x_min":0,"x_max":0,"o":"m 386 1319 l 615 1319 l 243 -260 l 14 -260 "},"∙":{"ha":415,"x_min":0,"x_max":0,"o":"m 351 436 b 211 308 351 365 294 308 b 69 436 126 308 69 365 b 211 567 69 510 126 567 b 351 436 294 567 351 510 "},"√":{"ha":1292,"x_min":0,"x_max":0,"o":"m 415 -57 l 208 311 l 94 244 l 28 356 l 350 546 l 536 213 l 1119 1256 l 1264 1256 l 531 -57 "},"∞":{"ha":1079,"x_min":0,"x_max":0,"o":"m 308 401 b 438 471 354 401 403 426 b 308 564 394 524 356 564 b 229 482 263 564 229 535 b 308 401 229 429 263 401 m 771 401 b 850 483 817 401 850 431 b 771 564 850 536 817 564 b 633 482 721 564 668 535 b 771 401 674 436 714 401 m 42 482 b 289 722 42 633 154 722 b 544 594 411 722 486 663 b 789 722 597 671 683 724 b 1038 483 939 721 1038 635 b 790 243 1038 332 925 243 b 529 363 672 243 593 299 b 290 243 476 292 392 242 b 42 482 140 244 42 331 "},"∫":{"ha":406,"x_min":0,"x_max":0,"o":"m 144 1053 b 451 1308 165 1251 290 1308 l 475 1308 l 456 1107 l 432 1107 b 382 1053 401 1107 386 1089 l 261 -114 b -46 -369 240 -312 115 -369 l -69 -369 l -50 -168 l -26 -168 b 24 -114 4 -168 19 -150 "},"≈":{"ha":883,"x_min":0,"x_max":0,"o":"m 39 169 b 315 471 74 383 178 471 b 582 379 438 471 501 379 b 669 471 629 379 661 407 l 846 471 b 568 169 811 257 706 169 b 301 261 446 169 383 261 b 213 169 254 261 222 232 l 39 169 m 39 517 b 315 818 74 731 178 818 b 582 726 438 818 501 726 b 669 818 629 726 661 754 l 846 818 b 568 517 811 604 706 517 b 301 608 446 517 383 608 b 213 517 254 608 222 579 l 39 517 "},"≠":{"ha":951,"x_min":0,"x_max":0,"o":"m 200 204 l 94 204 l 94 414 l 363 414 l 474 558 l 94 558 l 94 768 l 636 768 l 740 903 l 872 903 l 768 768 l 872 768 l 872 558 l 607 558 l 494 414 l 872 414 l 872 204 l 333 204 l 228 68 l 94 68 "},"≤":{"ha":721,"x_min":0,"x_max":0,"o":"m 94 182 l 647 182 l 647 0 l 94 0 m 353 279 l 71 536 l 353 793 l 651 793 l 369 536 l 651 279 "},"≥":{"ha":721,"x_min":0,"x_max":0,"o":"m 71 279 l 351 536 l 71 793 l 368 793 l 651 536 l 368 279 m 626 182 l 626 0 l 74 0 l 74 182 "},"◊":{"ha":785,"x_min":0,"x_max":0,"o":"m 393 854 l 757 490 l 393 125 l 28 490 m 393 622 l 261 490 l 393 357 l 525 490 "},"ﬁ":{"ha":913,"x_min":0,"x_max":0,"o":"m 110 578 l 24 578 l 24 775 l 110 775 l 110 797 b 460 1088 110 1000 231 1100 l 460 886 b 347 782 376 892 347 864 l 347 775 l 808 775 l 808 0 l 571 0 l 571 578 l 347 578 l 347 0 l 110 0 m 690 842 b 550 965 607 842 550 893 b 690 1090 550 1038 607 1090 b 832 965 775 1090 832 1038 b 690 842 832 893 775 842 "},"ﬂ":{"ha":910,"x_min":0,"x_max":0,"o":"m 110 578 l 24 578 l 24 775 l 110 775 l 110 797 b 471 1088 110 1000 235 1100 l 471 886 b 347 782 379 892 347 864 l 347 775 l 475 775 l 475 578 l 347 578 l 347 0 l 110 0 m 586 1028 l 824 1028 l 824 0 l 586 0 "}}}
